<mxfile host="app.diagrams.net" modified="2021-05-28T20:09:26.821Z" agent="5.0 (X11)" etag="j2-DWzSVJH55hLHgdi3u" version="14.5.10" type="github">
  <diagram id="yPxyJZ8AM_hMuL3Unpa9" name="complex gitflow">
    <mxGraphModel dx="1014" dy="625" grid="0" gridSize="10" guides="1" tooltips="1" connect="1" arrows="1" fold="1" page="1" pageScale="1" pageWidth="1100" pageHeight="850" background="#EBEBEB" math="0" shadow="0">
      <root>
        <mxCell id="0" />
        <mxCell id="1" parent="0" />
        <mxCell id="AngJpRZp7Zyhj1QqLnKg-60" value="" style="shape=step;perimeter=stepPerimeter;whiteSpace=wrap;html=1;fixedSize=1;shadow=1;sketch=0;fillColor=#647687;fontColor=#ffffff;strokeColor=none;size=29.695652173913146;" vertex="1" parent="1">
          <mxGeometry x="89" y="719.49" width="322.75" height="80" as="geometry" />
        </mxCell>
        <mxCell id="AngJpRZp7Zyhj1QqLnKg-40" value="" style="rounded=1;whiteSpace=wrap;html=1;shadow=1;sketch=0;rotation=-90;" vertex="1" parent="1">
          <mxGeometry x="47.75" y="140" width="185.5" height="83" as="geometry" />
        </mxCell>
        <mxCell id="AngJpRZp7Zyhj1QqLnKg-36" value="" style="shape=document;whiteSpace=wrap;html=1;boundedLbl=1;fillColor=#bac8d3;shadow=0;strokeColor=none;" vertex="1" parent="1">
          <mxGeometry x="630" y="120" width="468" height="140" as="geometry" />
        </mxCell>
        <mxCell id="AngJpRZp7Zyhj1QqLnKg-2" style="edgeStyle=orthogonalEdgeStyle;rounded=0;orthogonalLoop=1;jettySize=auto;html=1;exitX=0.5;exitY=1;exitDx=0;exitDy=0;" edge="1" parent="1" source="AngJpRZp7Zyhj1QqLnKg-40" target="AngJpRZp7Zyhj1QqLnKg-11">
          <mxGeometry relative="1" as="geometry">
            <mxPoint x="320" y="130" as="targetPoint" />
            <mxPoint x="184.90499999999997" y="232.1550000000002" as="sourcePoint" />
            <Array as="points">
              <mxPoint x="207" y="181" />
              <mxPoint x="207" y="169" />
            </Array>
          </mxGeometry>
        </mxCell>
        <mxCell id="AngJpRZp7Zyhj1QqLnKg-3" value="&lt;font style=&quot;font-size: 18px&quot;&gt;&lt;b&gt;CALIFICACIÓN GENERAL DEL SISTEMA - SEMAFORO&lt;br&gt;&lt;/b&gt;&lt;/font&gt;" style="text;html=1;align=center;verticalAlign=bottom;whiteSpace=wrap;rounded=0;" vertex="1" parent="1">
          <mxGeometry x="236" y="4" width="639" height="56" as="geometry" />
        </mxCell>
        <mxCell id="AngJpRZp7Zyhj1QqLnKg-5" value="&lt;font style=&quot;font-size: 14px&quot;&gt;ESTABLECE EL RANGO DE CALIFICACIÓN A NIVEL GENERAL PARA LA CALIFICACIÓN GENERAL DEL REGISTRO, DE IGUAL FORMA PARA LA CALIFICACIÓN DE UN DETERMINADO REGISTRO&lt;/font&gt;" style="text;html=1;strokeColor=none;fillColor=none;spacing=5;spacingTop=-20;whiteSpace=wrap;overflow=hidden;rounded=0;" vertex="1" parent="1">
          <mxGeometry x="670" y="153.81" width="400" height="61.19" as="geometry" />
        </mxCell>
        <mxCell id="AngJpRZp7Zyhj1QqLnKg-6" value="" style="shape=table;html=1;whiteSpace=wrap;startSize=0;container=1;collapsible=0;childLayout=tableLayout;columnLines=0;rowLines=0;" vertex="1" parent="1">
          <mxGeometry x="275" y="108.81" width="160" height="120" as="geometry" />
        </mxCell>
        <mxCell id="AngJpRZp7Zyhj1QqLnKg-7" value="" style="shape=partialRectangle;html=1;whiteSpace=wrap;collapsible=0;dropTarget=0;pointerEvents=0;fillColor=#60a917;top=0;left=0;bottom=0;right=0;points=[[0,0.5],[1,0.5]];portConstraint=eastwest;strokeColor=#2D7600;fontStyle=1;fontColor=#FFFFFF;" vertex="1" parent="AngJpRZp7Zyhj1QqLnKg-6">
          <mxGeometry width="160" height="40" as="geometry" />
        </mxCell>
        <mxCell id="AngJpRZp7Zyhj1QqLnKg-8" value="ALTO" style="shape=partialRectangle;html=1;whiteSpace=wrap;connectable=0;fillColor=none;top=0;left=0;bottom=0;right=0;overflow=hidden;fontColor=#FCFCFC;fontStyle=1" vertex="1" parent="AngJpRZp7Zyhj1QqLnKg-7">
          <mxGeometry width="80" height="40" as="geometry" />
        </mxCell>
        <mxCell id="AngJpRZp7Zyhj1QqLnKg-9" value="61-100" style="shape=partialRectangle;html=1;whiteSpace=wrap;connectable=0;fillColor=none;top=0;left=0;bottom=0;right=0;overflow=hidden;fontColor=#EDEDED;fontStyle=1" vertex="1" parent="AngJpRZp7Zyhj1QqLnKg-7">
          <mxGeometry x="80" width="80" height="40" as="geometry" />
        </mxCell>
        <mxCell id="AngJpRZp7Zyhj1QqLnKg-11" value="" style="shape=partialRectangle;html=1;whiteSpace=wrap;collapsible=0;dropTarget=0;pointerEvents=0;fillColor=#e3c800;top=0;left=0;bottom=0;right=0;points=[[0,0.5],[1,0.5]];portConstraint=eastwest;strokeColor=#B09500;fontColor=#ffffff;" vertex="1" parent="AngJpRZp7Zyhj1QqLnKg-6">
          <mxGeometry y="40" width="160" height="40" as="geometry" />
        </mxCell>
        <mxCell id="AngJpRZp7Zyhj1QqLnKg-12" value="MEDIO" style="shape=partialRectangle;html=1;whiteSpace=wrap;connectable=0;fillColor=none;top=0;left=0;bottom=0;right=0;overflow=hidden;fontColor=#EDEDED;fontStyle=1" vertex="1" parent="AngJpRZp7Zyhj1QqLnKg-11">
          <mxGeometry width="80" height="40" as="geometry" />
        </mxCell>
        <mxCell id="AngJpRZp7Zyhj1QqLnKg-13" value="21-60" style="shape=partialRectangle;html=1;whiteSpace=wrap;connectable=0;fillColor=none;top=0;left=0;bottom=0;right=0;overflow=hidden;fontColor=#EDEDED;fontStyle=1" vertex="1" parent="AngJpRZp7Zyhj1QqLnKg-11">
          <mxGeometry x="80" width="80" height="40" as="geometry" />
        </mxCell>
        <mxCell id="AngJpRZp7Zyhj1QqLnKg-15" value="" style="shape=partialRectangle;html=1;whiteSpace=wrap;collapsible=0;dropTarget=0;pointerEvents=0;fillColor=#e51400;top=0;left=0;bottom=0;right=0;points=[[0,0.5],[1,0.5]];portConstraint=eastwest;strokeColor=#B20000;fontColor=#ffffff;" vertex="1" parent="AngJpRZp7Zyhj1QqLnKg-6">
          <mxGeometry y="80" width="160" height="40" as="geometry" />
        </mxCell>
        <mxCell id="AngJpRZp7Zyhj1QqLnKg-16" value="BAJO" style="shape=partialRectangle;html=1;whiteSpace=wrap;connectable=0;fillColor=none;top=0;left=0;bottom=0;right=0;overflow=hidden;fontColor=#EDEDED;fontStyle=1" vertex="1" parent="AngJpRZp7Zyhj1QqLnKg-15">
          <mxGeometry width="80" height="40" as="geometry" />
        </mxCell>
        <mxCell id="AngJpRZp7Zyhj1QqLnKg-17" value="0-20" style="shape=partialRectangle;html=1;whiteSpace=wrap;connectable=0;fillColor=none;top=0;left=0;bottom=0;right=0;overflow=hidden;fontColor=#EDEDED;fontStyle=1" vertex="1" parent="AngJpRZp7Zyhj1QqLnKg-15">
          <mxGeometry x="80" width="80" height="40" as="geometry" />
        </mxCell>
        <mxCell id="AngJpRZp7Zyhj1QqLnKg-24" value="" style="shape=image;verticalLabelPosition=bottom;labelBackgroundColor=#ffffff;verticalAlign=top;aspect=fixed;imageAspect=0;image=data:image/png,iVBORw0KGgoAAAANSUhEUgAAAIIAAADzCAYAAABKfc6ZAAAABHNCSVQICAgIfAhkiAAAABl0RVh0U29mdHdhcmUAZ25vbWUtc2NyZWVuc2hvdO8Dvz4AAAAmdEVYdENyZWF0aW9uIFRpbWUAdmllIDI4IG1heSAyMDIxIDE1OjE5OjIwLPCGHgAAGkBJREFUeJztnXlgFeW5uJ+Zk5M9ZE8gIYEACdnYN0FkvSJX1KpU0V5Qa7UV915brFaLV1vrr25osRR3rEVFFFxQBERAWSJr2EzYQoAkGJKQfT0z3/0jIwRNcs6JEMb7e58/z5nvm/d83zPvzJnt1ZRSCuH/e/TzHYBgD0QEARARBAufvKNF5zsGwQZoSimVd7SIpIRu5zsWoZNpOe+yaxAAEUGwEBEEQEQQLEQEARARBAsRQQBEBMFCRBAAEUGwEBEEQEQQLEQEARARBAsRQQBEBMFCROg0XNTVuc53EG1ynkRwUXHsG7ZuyiIr+yDFdabnTVUVeTv3caLp1AfUFuxm26EKjJbLmdXkf72CRW++w5q8ArZ9tpIdJ4wf9nfWaCMO67uSZb9n7ITZrGk4hyH8GJRS6tCRQtU5mKpi19tq1tWjVUpKmkpKTlNJyemqd/+L1fTHl6tD9e57cB18Uf0sfZS6f22j9cFhNf+afqr36EfVhkZ16rN3Zo5XKZkXqUnX3anmvPoXdXFqprr0+RzlOlc/rbU4vqN+u/rr5CFqyrO7VN25Wn8HaDnvnSpCY+6ratqQTNXv8gfUa2u+UUeKS1Vx/m616vWH1ZWjpqi/bmty24crd566LH2Eum91g/WJoU7s+Ex9sPGI+s6jxo2PqZFpE9Qf1lQqUymljHK1b9PXan+5eY5+WetxNGOqkiV3qKFXPKu228kCdea8+3Re6inj0+fns9XvYp595S9cFq1ZX0Qw8cZHmXjjGQtTdyKPA/knqPXrRmpaIqFtRqrTpVsPetZH4IvJyQNb2Lh6JyVEElSTzbp1zUtpznBS/LUW7RooPZTLwVII75lM7+iA0/tJo4pj+w9SUKEIS0ojJcYf7Yx1tta2ZRynMWu+pShoFHfdOZweZ/wGg7IDe6mIziBRL+Sb3ALqg3qQntqVwDNX1jl834xzRu1KdffgTDVy9kbV0O5y29W8X12i+qVmqJSBw1VGWobKuPRRtepE89b8w4zQoFb+frjqe90CdaTpuFp8zyQ1dNAA1StlgOp/wWg1bORoNWzEMNU3ZZC6fVmtUkopo/hL9cT1o1VySqZKHzBQ9UkdriY/vFIVGYY6tmy2umLUANUrdZDqP3iQ6pN2kbrhtZxTW3nbbVvEYSilVJ3Keed36uJBmSp5wAjVLyNTpY25RT23qaw5SzVtVX+e0E8Nv3yaGjtggMocOlT17Zupht/8psr9/q7lHNFy3jvtYNEsK+J4vU58j+60m4Z8Qkka8yv+/vEG9m7PYseq/2Fk8WJeWJLfykFYM0aTC+VqwqXFMnXOcj6ZNQSn8wIeXr6Orzd8SdaH9zHUqXC5TFClfPTILF4uHMpjH21k144tbF7yKNMGRhOgaQTE9OOqBxewfvtWsres4+0bw9k4bwHr63DTtkUcClx7XuK3j64l9IbX2LR1E9lZ7/NQxn7m3vcUq6sUYOAyFKXFXbhh4Zdkb97E+rmX47NhPq9nNZ718XdH5+0afHzwQVHb5KLdp26dSVxyQxIY9ZwsLqSqPpaesbCn8FtMev74vzm1X7NifTV9b5nJz1OC0YGw1Eu4KdX6fuhUbsKksaqMopIaQhK641tTRGGlCWZ7bVtOnsH+zz/nQMA45v5mKBEOICiZaXdcxYJrFvHZtiYmXti8ZNSkm5iRHoIORAwbTprjEwqLqlFE0Jl7iE4TQY9Iole44qM931CtehLaxq9UFdt48Y+P8fLag9T6hxEaqFNXauI3xIu/mO2gaiupcOmER4a3IpWL/GVPcP/TH7KtWNElLAR/o5J6lYlpumt7xlqoOFkJIZFEOk9/qkVEEaHVUlHx3X9fnYCgwFMTrukOdA0M4+z8Vm/ovPMIzoFc/p9x1HzxCvO3V30vKzTybW4uxxtMvl32d579IoAbF29k1+Z1bFg9l+u7t7BG19GUQZOrY0/za6Hd6RFqcHBvLnXf/9K1lVf/3yKODHmML7dvZstXn7Ps/hH4edL2DHTiEuPQSveTW3Z6Uuv355KvokmI92un7fmh83YN+DPszke4KetOXvzVNHKnXsXEzK741Raxa80HvPdlA9e88Sn3hIcTaO4iZ8tucpWTAx8+yzuHTZwjmntxxCSQGFBP1rsL+CxkLAMHJ3kXhu8wrrsuhSXzH+O++HuZPiSMkzs+YWn+CB6dnUxEqEZV/k525CQRfzKLF/+xnnoGum/76KQWK9Hpfuk0Jrz4IHN+9xyBt42lW80O3vjbR1Smz+TnAzpx2D2kUyPSQkfy4L8XkvnifN5cvoDHF1bgCoim14DR3DX/N9w4zImf8QDP3f4//OWFmVxZ04W+46ZwyeA8dkaGNqevLhO594Ep/Pbpedw5cy2/f/dVBsXEENoYTYiV33yDgvH1dxLitDKJXwhd/IMI7uID+NLv9n/wkt8zzFn0GL/+h0FY0lCuuL0/Uc5Ebn16Nt/Onses6xeixw3isvHj6fmxRkSg1n5bXSeiRRx67GX87eUGnnpqAY/PXEC1bywZ4+7gxVm/JNUHMEKJjgomOjr09LGAbzgxEaHURvp16vEB/J99CLaJ2jqNwIDTnhsNDeDnh+M8RmU3Ws67/XLUWcFJYMCZnzj87LdfthNy9VEARATBQkQQABFBsBARBEBEECxEBAEQEQQLEUEARATB4qdxitmo5fjB/Rwuq8fZJY7eyQmEOd03O980FueSUx9Pv8TgTr+I5C02F6GeAx89zcNPvcfXRfXWPQwajtBeTLxhFn+aeRFxtv0Fjax7cgZ3HL2DlQtvJNHmudfG4ZkULr2f6bPe48TA25n3/go2b95E1sp/88wNvclbOJelh87lAys/HsNlgOHC+AlUxLDt9kRdFvOeXU3dyId495lpJHx3/Th0IJffNYfL7/phk8bSQ+w9VIoZ0ZvM3qdvK1d1Bew57CA5NYKqg3s5UKoT0zeNXt/fv5jVFOTu42iNP91T+9I9+LuVNt96Xh6dQQ8K2LPvJGEZ/UgM1IBGTuYf5NDxKvToPmT0OvN29p8KthXBtWcNa4oDGffgZaclaAvjW1Y/eR9/eHMvRlQE+skyfEfcw/w5N5IZqChf9ijXzM6nb99qcg824Uct1VovZjz/Gn8a03yTaO03bzHrnmdYWRJE1+A6imu7c+0TLzD7P7qiu7KZ95ubWBqQSuDRPRTSg5tf/pBZYe9zz73PsuJADb4hfriqXcROfoR/Pf0zEn9iNz7YdtfQUFRICV3pkeB/6jOjIp/sbdvYsnUbW3cc4EQjgEnR+7O5b2ENV7y4iq/XrGLT6ueZkP8cf3glFwNwuVwo13HqBjzG6s1Z7Mh6n9+lHuWt+csoMIH6bcy59wk29/ody9avYe26tXx4VzgfP/wky8tP33p+8ttArp63guztn/DAMB+0oDhG/OLPLN2wld1bstgw91KMlfP49077PuzaFrbNCA5fJw5cuE6NqUHeew9z8/N7aVAGDfUOprywgTkTy1n98SbqB9zOlNhyDh8qB7oyZlQ33lu/kYI7UggA8BnAL24dSzdfgCRGDI5FfVrAcRO6Zn/KsqPRjL9nMFrRIQ4C+tAx9K+bz9qdLi4d1RxB+KRbmDkq/lTq1+NGM+O/wGyo5ERhBdVRicTzKQXHXdh4G2sV24rg7NGbRO0Ldu8tRfWPQcNBn5vfYOvNQOMq7hk+C8MAzArKKkxc+f/i7lsWtehBo3v/LqenQwsgKOjUjeM4HDooAwMwKsqoMEpZ8cRM1rdI6VpkPGn+6lSbgKDAM6a3LmcRDz80j0/3luMTGkawbyPlLsXYn8DB4fexrQiO5ElMSX2J5177J19e8jBjwtv4J67H0iPeD2fYnbz76jS6/mBDVJxwsy6fuATindGMeuojZg9v5Za2VjN9LWv++SQf1l7Ngg2zGBnmwDy6gGmT55xaQtM1lOFqvbnNsK0IOJK5+dHbWffL57nt6jyu+vklDE2KwLepgqIDa9jZCP0AtC5MnHEVcbf+nbv/qjPzkmSCa4+x9bMlrAn9Na/PGu5+VelTuXHEIv780B+IuXcaI7pqlOR8yZKPixjzxJNcH9daKx/CwkNQZYfYtjOX8LAiPv/7Ana44OLmXkno0R1WfsYbH2Rw1eABDOoZYtsTS/YVAQjI/DWvL+7Lghf/zbLFz7G0uAbTvwtRXXuSOe23TB/SHH7QBb9nwdxw/vbCS/z329/SFNyVPgMnMmN6On5oNEVGERbuS5Tv6WkIjYoiODKKMA3QE7j+2ZdwPPscr/7lTp6rdBCRmMaoK25lXJwOWigxUcFER7W49RxfLrj3GR6oeJyX7/4FL/gnMupnE7ko5wuiwhyAg9Tp93Pbtkd4/aE7WHXlHFY9Pp6gTh5DT/k/eju74AlS00n4ASKCAIgIgoWIIAAigmAhIgiAiCBYiAgCICIIFiKCAIgIgoWIIAAigmAhIgiAiCBYiAgCICIIFtqhI4U/wXtuhbONZAQBAK2yslKVlFcTFRZ8vmMROpmW8y4ZQQBEBMFCRBAAEUGwEBEEQEQQLEQEARARBAsRQQBEBMFCRBAAEUGwEBEEQEQQLEQEARARBAsRQQBEBMFCRBAAm79wE0CZjdRW19Gk+REU5I/zrKlrApXoykBpoaizOBRmUz3VNQ0o3wCCA335Kbyx36YimFQd28W69TvYlXeCqiaFAnTfLsT3SWfU6GH0j/Xv4OtsC/Exl+BrbsOhaqzPnCgtDZd+BY16JmZHulX1FO3ezJrNe9lXWEmDAtBwhsTQJ30gYy/MJDHIvgnYfncxq1oOrfuQt748Sk0bT1xoji6k/ceVXDM8llZeod0mmlqLn/EKTtXY1hIobTL1jum4NM+3Y9VwnA1LP2D5vkraKi6kByUyfurlTOgRaJv3Mdv4LuZGjqx9jzfWtS0BgDIq2bviXRZuLm1z4H/Y6Cv8jfntSACg0NRyAowF+ODhcz9GCRvfXcwn7UgAYNYcYfXb77O6oMnTiDsVW4ngKsxiyYbjtDdVp1B1HFi9kqwyTybsJE5zAT7Kk6SvQK3Cz9jlwZarKNmykhV5dR5poxqLWLMsiwIb1iSzkQiN7Ps6m2IvBkk1HmPjtiL3WUGtxWlWexGLiW5+6j4rGAVkbS7wTNzvmhRns/GgNy06B/uIYBZz6Ei9pwnZQlGef5T2k4JCU3tweNkz7MNhtp/GzbKj5FV42a+qI+/wCc93aZ2EfUQwqqlo78CgDcyqKirbzfgmmjrZgYAa0Gk/i6iqKqq8DllRXVndsX8m5xD7iKDpODoQjebQcbS7M9dA68i/ZM39uQWHo0PnCHSHbpt/Dt9hHxEc4USHex+OHhFJZLvNdBTdvN4xQCim1n69FT0iws26W48nMircRgPfjH3i0SJJT4n0cgtz0qNvEu7OgCh9GIa326A2xO25BC24F+ndnV71rOlRpKVE2Gjgm7FRPDpdh40kM8TzYXVEDWBC/y4eTMRwGhy9vMgKwbj0y9wf0GmhDB7Tz4usoBGSMYoLYm007Ba2ikgL6ssVVw4lzoPiylpgIpOuHE2SR4WYfTD1O2jQIzxY1omp/4Z6PdqTjvHrOYZp4xMI8MBfv27DuXZysi0LfNnvFDNQX7iVJUu/YndpYytbsUZAt35cduVEBkV5exB4Ah9jLv7mPrRW80M0Lsdt1OsZXh5TNFGc/TnvrNjN8Xr1g7aa5ktU+kVcO2Uw8d6cEz/HtJx3W4oAgFHD0Zy97DpwjOPldTRpvoRExJKUnMrAlGiPtsDWUWhqJz7mZnxUERoGaJEYWn9c2kgMreO13s26YnJ25ZCTX0xZdSPKN5DwmHhSMtLJiAuy3VXIn4YIwjnHxhedhPOFiCAAIoJgISIIgIggWIgIAiAiCBYiggCICIKFiCAAIoJgISIIgIggWIgIAiAiCBYiggCICIKFiCAAIoJgIQVABQA0pZTKO1pEUkK38x2L0Mm0nHfZNQiAiCBYiAgCICIIFiKCAIgIgoWIIAAigmAhIgiAiCBYiAgCICIIFiKCAIgIgoWIIAAigmAhIgiAiCBYiAgCYNtyf6dRRiM11bU0an4EBwfgexbrPjbV1VJVb+AMCCbY33HWaigYZi0nG+sxHUFEOP3sP8jYVgSDyvztrPpiM9v2H6eySaHQ0P1CSUztz9gJFzKkW0CHJk41lLDrq7V8sSWXvLJ6DAVoPgTH9mTAsNFcMrIX4R0alVr2F6/h9cJtbKoqp1YpQMPfN55h0SO5IWEYmb52ewnvaex3F7OqYf/Kd3h1dT7VZut32muOMPpNuY4ZF8bh74UNjcXbeXvBx2w50dTGS7c1ArpfwIwbJtEvzIu6j66jLMpdwNzSk7ja6Fd39ubmtBn8MizYNvtjG9/F3EjeijeZ//nhNiUAUEY5Oz96g1c2el4kyyzfyZsvfdCOBACKumObePXl5XxT6+HjHuZxFu19iefblKC5X7PpAK/seYVXq+xX4Q1sJoLr6DreWlNoldN1g6ol99OP+KrUgzJZqootH3zCjgrTg9fvK1zFm3l7+UHq3S5rcqToPeaX13hUrEsZR3lj32q+sVtlL2wlQgN712/huOH5g1eq4QhrNxW4zQrmie2szfGsSKfVgpPbN7Gj2k0Llc+SgsPUedyvoqlmI4tPNnjcorOwjwhGEfsOeVv30aTs0GFK2t3CFNWH8ihsZ1fTaqvGI+zLbzvZA5h1B9je4O3mXcuO8sJ2diPnBxuJUEV5tfc506ysoP0anIrKiiq89ABUE+WV7WcRo6GCkg7UfSxtaL+O9PnAPiJoDhztF3BsvZnuvvaiw9GRcwQaPg43Vd50Bz4d+A/r0B02Gvhm7BOPI5KuEd6OqoYjKppoN3Ufw2MicXrbtR5ETJR/uwLp/jEkaF53TEJglO3K+thHBD2afhnRbqq6fg/NSa/MZNxVCPTrk0aql0Wg9NBUBiS0P126Xxpju3hZ91GL5aLIGBsNfDM2ikcnftQ4Bnlc91HDET2UyUNC3U6EFpjOJRfF4etx1wGkTriQPk53C0ZwaeIIL7KCTlT0JKYG2WjYLWwVkRaczjXXjaK7n9upRQvqyeXXT6SPR0XZHHQfN5Wp6V3Q3XbtQ8ywK/nF8DCPtvTAsEt5pGcvurhdUiMweByP9MkkzJOQOxlbiQAagX0mcfevJzMo2rf1idB0AuMHM33mdCbGu91kT+OIYtT0W/jV6ERC2tj/aM4w0ifN4N6paYR6nO99SUu4hX/2HUGyT+vFvzX86BF9JXP7X8rgjhxddgL2u9bwHUYVh3ftZHtuPoUnm68+donsRp+0fgxLiyWwwwor6k8cYOv2HPYdK6W8zsAZFErXxD4MHJRBn3Av5PoeZlMhXxVv58uKAgobGzAdwcQFJTEyegjjQkJsd4Wv5bzbVwThnGPji07C+UJEEAARQbAQEQRARBAsRAQBEBEECxFBAEQEwUJEEAARQbAQEQRARBAsRAQBEBEECxFBAEQEwUJEEAARQbCQuo8CAFplZaUqKa8mKiz4fMcidDIt5112DQIgIggWIoIAiAiChYggACKCYCEiCICIIFiICAIgIggWIoIAiAiChYggACKCYCEiCICIIFiICAIgIggWdnsH5A9x1aFOVqD0QLSwLmhn7bXmCld9LdX1Jj4BgQT5nb1yf2ZTPdU1DSjfAIIDfW33JvbWsKkILtSeT2hYuJSmbQcxG0xAg8BYHMMvxu+/rsfZO6RDPavGMr7J2sT6nQc4UtZgFdBwEBSTQMbA4Ywb0oOwjoyKqqdo92bWbN7LvsJKqy6VhjMkhj7pAxl7YSaJNnwZ93fY7+ZVdRLXgj9R+2Y2qq2yKz5dcd72ZwKu6os35RKaSnazZNFKsktdbZb78+82mGuuGUdaqOeTphqOs2HpByzf13ZlFj0okfFTL2dCj8Czlnl+LDa+ebUO47VZ1P5rR9sSALiO0/TCfdR+kO9xz2bFXha/ubwdCQAU9UVbeWvhavZ7WrHLKGHju4v5pB0JAMyaI6x++31WFzR5HHNnYi8Rcv5F3du5KI/K/VXgeukpGgs8KfdXTfZnq9ldpTwqHuYq2cHS1YdxX4tNUbJlJSvyPKsgpxqLWLMsiwK7FXTCViLU0LTkQwyXF8/b1O2k4aO9bhczS3ezYb835f4U5bu3srvGzWJGAVmbC/CmpKdRnM3Gg/YrAmofEVwHcGVXednIxMzegekmKdQcOcq3XhaQU40FHDzmptxf2VHy2i8x10rHdeQd9ryCbWdhIxFKUOUdKJFaWuxGBJOqymqPKrV+LyAqq9qvQ6mqqqjqQLm/6g7Fc26xjwiaD95V9rLwcVdoQ8PhaL2yijscDjfD43BfarA19A7Gcy6xjwjO7jjivA1Hg/getF+eUSMsMtz7EyZaENGRbsr9RUQQ6fUI6kRGhdto4JuxTzx6T3xG9cC72nl++Iwe4fZcgm9SCslel/vrQ7obMbXgXqR397Lcnx5FWkqEjQa+GRvF48Bx1S9xRngakgYJV+A3Kdb9kgHJjB8Ri8fVmjR/+lw4lCR3aUQLZfCYfl5kBY2QjFFcEGujYbewV0RhYwl4cBoOt1uvBqGD8P/jrfgEeNKxg26jpnBZ32APfrAPUQMnc/Ug9/UkAfx6jmHa+AQ8STh+3YZz7eRkgjzot7Ox3ylmFCpnMXV/fYmmo62c3tN0tD5TCPjjPTgT/bzr2qhg7+fLWLq5gNbqkWs+oSSPnszPRycS7NWepIni7M95Z8Vujtf/8KSVpvkSlX4R104ZTLyXIZ9LWs67DUWwcJVirFtB09c7MY6Xo/Qg9LgUfEZOxDmyN9qPyGUNpXlk797PwcKTVNabOANDiI7vSWa/VJJCO34dzqwrJmdXDjn5xZRVN6J8AwmPiSclI52MuCDbXYX8aYggnHNsfNFJOF+ICAIgIggWIoIAiAiChYggACKCYCEiCICIIFiICAIgIggWIoIAiAiChYggACKCYCEiCICIIFiICAIgIggW/wv8TD+KOSUSbgAAAABJRU5ErkJggg==;" vertex="1" parent="1">
          <mxGeometry x="739" y="347" width="130" height="243" as="geometry" />
        </mxCell>
        <mxCell id="AngJpRZp7Zyhj1QqLnKg-27" style="edgeStyle=orthogonalEdgeStyle;rounded=0;orthogonalLoop=1;jettySize=auto;html=1;exitX=1;exitY=0.5;exitDx=0;exitDy=0;entryX=0;entryY=0.5;entryDx=0;entryDy=0;fontColor=#FFCCCC;" edge="1" parent="1" source="AngJpRZp7Zyhj1QqLnKg-26" target="AngJpRZp7Zyhj1QqLnKg-24">
          <mxGeometry relative="1" as="geometry" />
        </mxCell>
        <mxCell id="AngJpRZp7Zyhj1QqLnKg-26" value="&lt;h1&gt;MEDIO&lt;br&gt;&lt;/h1&gt;&lt;p&gt;SU CALIFICACIÓN GENERAL ESTA ENTRE 21 Y 60 (%)&lt;br&gt;&lt;/p&gt;" style="text;html=1;strokeColor=none;fillColor=none;spacing=5;spacingTop=-20;whiteSpace=wrap;overflow=hidden;rounded=0;fontColor=#FAC800;" vertex="1" parent="1">
          <mxGeometry x="519" y="357" width="172" height="80" as="geometry" />
        </mxCell>
        <mxCell id="AngJpRZp7Zyhj1QqLnKg-30" style="edgeStyle=orthogonalEdgeStyle;rounded=0;orthogonalLoop=1;jettySize=auto;html=1;exitX=0.5;exitY=1;exitDx=0;exitDy=0;entryX=0.5;entryY=1;entryDx=0;entryDy=0;fontColor=#CC0000;" edge="1" parent="1" source="AngJpRZp7Zyhj1QqLnKg-29" target="AngJpRZp7Zyhj1QqLnKg-24">
          <mxGeometry relative="1" as="geometry">
            <Array as="points">
              <mxPoint x="624" y="621" />
              <mxPoint x="804" y="621" />
            </Array>
          </mxGeometry>
        </mxCell>
        <mxCell id="AngJpRZp7Zyhj1QqLnKg-29" value="&lt;h1&gt;BAJO&lt;br&gt;&lt;/h1&gt;&lt;p&gt;SU CALIFICACIÓN GENERAL ESTA ENTRE 0 Y 20 (%)&lt;br&gt;&lt;/p&gt;" style="text;html=1;strokeColor=none;fillColor=none;spacing=5;spacingTop=-20;whiteSpace=wrap;overflow=hidden;rounded=0;fontColor=#CC0000;" vertex="1" parent="1">
          <mxGeometry x="529" y="523.9999999999999" width="190" height="80" as="geometry" />
        </mxCell>
        <mxCell id="AngJpRZp7Zyhj1QqLnKg-31" style="edgeStyle=orthogonalEdgeStyle;rounded=0;orthogonalLoop=1;jettySize=auto;html=1;exitX=0.25;exitY=1;exitDx=0;exitDy=0;entryX=0.253;entryY=0.875;entryDx=0;entryDy=0;entryPerimeter=0;fontColor=#CC0000;" edge="1" parent="1" source="AngJpRZp7Zyhj1QqLnKg-26" target="AngJpRZp7Zyhj1QqLnKg-26">
          <mxGeometry relative="1" as="geometry" />
        </mxCell>
        <mxCell id="AngJpRZp7Zyhj1QqLnKg-33" style="edgeStyle=orthogonalEdgeStyle;rounded=0;orthogonalLoop=1;jettySize=auto;html=1;exitX=0.5;exitY=1;exitDx=0;exitDy=0;entryX=1;entryY=0.75;entryDx=0;entryDy=0;fontColor=#CC0000;" edge="1" parent="1" source="AngJpRZp7Zyhj1QqLnKg-32" target="AngJpRZp7Zyhj1QqLnKg-24">
          <mxGeometry relative="1" as="geometry" />
        </mxCell>
        <mxCell id="AngJpRZp7Zyhj1QqLnKg-32" value="&lt;h1&gt;ALTO&lt;br&gt;&lt;/h1&gt;&lt;p&gt;SU CALIFICACIÓN GENERAL ESTA ENTRE 61 Y 100 (%)&lt;br&gt;&lt;/p&gt;" style="text;html=1;strokeColor=none;fillColor=none;spacing=5;spacingTop=-20;whiteSpace=wrap;overflow=hidden;rounded=0;fontColor=#006600;" vertex="1" parent="1">
          <mxGeometry x="899" y="369.38" width="190" height="80" as="geometry" />
        </mxCell>
        <mxCell id="AngJpRZp7Zyhj1QqLnKg-35" value="" style="shape=image;verticalLabelPosition=bottom;labelBackgroundColor=#ffffff;verticalAlign=top;aspect=fixed;imageAspect=0;image=data:image/png,iVBORw0KGgoAAAANSUhEUgAAAbAAAAJVCAYAAAC/L6CGAAAABHNCSVQICAgIfAhkiAAAAAlwSFlzAAArEQAAKxEBiJQg7QAAABl0RVh0U29mdHdhcmUAd3d3Lmlua3NjYXBlLm9yZ5vuPBoAACAASURBVHic7N15vFVl2f/xz8UkIIOz5jxPaaZmTqmVZllWpjnkVGrlYw6ZT9lkPdljab/ySdPMHNMcUFMzzdkUEQQRVBRRUJlkEA4zHDhwzrl+f6x98ACHc/be61577bXW9/16nRcIe13rUoEv973udd/m7oh0xcy2A/4CHOfuS9LuR0SkW9oNSP0zs88AI4HPAz9JuR0REQBMIzDpjJmdC1wF9Cj90FJgV3efkl5XkhVmthnQ7O4Nafci+aMRmHTIzHqa2V+Ba/kwvAD6AL9LpyvJoCOBCWZ2gZn16PLTIhVQgMkazGxj4Bngu2v5yElmdlANW5Ls2g1YD7gaeNXMPptyP5IjCjBZhZl9HHgZOKSLj15lZlaDliTbdmv3/Y8Cz5jZP8xsm7QakvxQgMlKZnY8MBTYuoyP7wecmmxHkgO7dfBjxwHjzOxXZtan1g1JfmgRh1AaSV0KXAJUMqqaBuzg7k2JNCaZZma9gEageycfmwL80N3vq01XkicagRWcmfUDHgB+QWXhBbAFcHLwpiQvdqLz8IJotH+vmf3HzPasQU+SIwqwAiu9nPwicEyMMj8I1I7kT0fTh2vzGeAVM7vGzNZPqiHJFwVYQbV7OXmPmKX2NLPDA7Qk+bN7hZ/vDpwHjDezs81Mfz5Jp/QLpIDM7KvAk8CGgUpeFKiO5EslI7D2NgKuB54O2IvkkAKsmF4CFgesd5SZ7RKwnuRDtQHWZkWQLiS3FGAF5O4zgAsDlrTA9STjStN/O8csMypEL5JfCrCCcvfbgEcDljzdzEJNSUr2bUu07VgcCjDplAKs2L4LLAhUqy9wdqBakn1xpw9BASZdUIAVmLtPI+wCjHPNrGfAepJdcQNsrrtPCtGI5JcCrODc/RbgiUDlNgdODFRLsi1ugGn0JV1SgAnAd4jO+QrhgkB1JNsUYJI4BZjg7lOBmwKV28/MKn2BVfJHASaJU4BJmyuB5kC1vhmojmRQ6RTm9WKWUYBJlxRgAoC7TwbuDlTuVDPrahNXya+4o6957j4xSCeSawowae93QIjzdTYHjghQR7Ip7hSyRl9SFgWYrOTuY4GHA5XTNGJx7R3zegWYlEUBJqu7IlCdY8xsQKBaki2fiHm9AkzKogCTVbj7i8DgAKX6ACcEqCMZYma9gY/GLKMAk7IowKQjoUZhpweqI9nxMaBHjOvnuft7oZqRfFOAyRrc/XHg1QClDjGz7QPUkeyIO304OkgXUggKMFkbjcKkGvvGvF7Th1I2BZiszT+A9wPUOd3MLEAdyQYFmNSMAkw65O4twK0BSm0HHBKgjtQ5LeCQWlOASWduAVoD1NE7YcWwF/EWcMx393dDNSP5pwCTtSqdx/R0gFLHm1nfAHWkvsWdPtQCDqmIAky6EmKX+v7A1wLUkfqmF5ilphRg0pWHgNkB6mgaMf+0gENqSgEmnXL35cBtAUodbmZbBKgjdcjM+qBNfKXGFGBSjpsD1OgGnBqgjtSnuAs4FgBawCEVUYBJl9z9LWBIgFKaRsyv2As43D3EUT5SIAowKVeIxRy7mdl+AepI/dECDqk5BZiU6z6iaZ64NArLJy3gkJpTgElZ3H0pcGeAUt8ws14B6kid0AIOSYsCTCpxY4AaGwBHB6gj9ePjQPcY1y8A3gnUixSIAkzK5u6vAq8HKKVpxHyJO334ihZwSDUUYFKpuwLUOMrMNg5QR+qDnn9JKhRgUqm7gbh/W+4JnBygF6kPWoEoqVCASUXcfTIwLECp0wLUkJSZWT9gt5hlFGBSFQWYVCPEasR9zWy7AHUkXQcSbwHHQmBCoF6kYBRgUo37gOYAdb4eoIakK+5hpVrAIVVTgEnF3L0BeDJAKQVY9h0a83pNH0rVFGBSrRCrET9pZlsHqCMpKL2Qvn/MMgowqZoCTKr1T6AxQJ3jAtSQdOwH9I5ZQwEmVVOASVXcfQnwrwClNI2YXXGffy0CxodoRIpJASZxhFiNeKCZbR6gjtRe3OdfWsAhsSjAJI4ngLkxaxiaRswcM+sGHBSzjKYPJRYFmFTN3VcQLamPS9OI2bMXMDBmjZdDNCLFpQCTuEKsRvyUmW0aoI7UTtznXwDDA9SQAlOASVwvAB/ErNENODZAL1I7cZ9/feDu7wXpRApLASaxuHsrWo1YRHFHYCH205SCU4BJCA8GqHGYmW0UoI4kzMx2ATaJWUYBJrEpwCSEZ4je6YmjO/C1AL1I8kI8/1KASWwKMInN3ZcDjwYopWnEbIj7/KsJLaGXABRgEkqIacTPmtkGAepIsuKOwEa5e1OQTqTQFGASyqNEf7OOowfw1QC9SELMbCtg25hlNH0oQSjAJAh3X0T0LCwuTSPWNz3/krqhAJOQ/hmgxhFmFneHB0lO3OdfoACTQBRgEtJDQGvMGr2ArwToRZIRdwT2nrvHffFdBFCASUDuPoswf7vWNGIdKr2nt1vMMhp9STAKMAktxGrEI82sf4A6EtYhRKcHxDE0RCMioACT8EI8B+sNHB2gjoT1+QA1NAKTYBRgElRpg9YxAUppGrH+fCnm9QuBN0I0IgIKMElGiGnEo8xs3QB1JAAz2wvYMmaZEaXNn0WCUIBJEkIEWB/gCwHqSBghpnQ1fShBKcAkOHd/DZgYoFTcKSsJJ8T/CwWYBKUAk6SEWMxxlJnFXfUmMZWWz+8fs0wrOoFZAlOASVJCTCNuBuwboI7EcxTx/6wY6+4LQzQj0kYBJkkZCswKUOeLAWpIPCGef+n9LwlOASaJKK02+1eAUnoOliIz64He/5I6pQCTJIV4DrafmcU9vl6q9ykgxObKGoFJcAowSdLTwKKYNYzoGYykI8T04ZTSC+4iQSnAJDGlU3cfC1BK04jpCfHfPsQ5cSJrUIBJ0kJt7tsjQB2pgJntAOwaoJQCTBKhAJOkPQqsiFljIHBwgF6kMqFGvgowSYQCTBJVevcnxAN8TSPWXojnX2PdfWaAOiJrUIBJLTweoIYCrIbMrB9wWIBSGn1JYhRgUgshAmx3M9s2QB0pz+eAXgHqKMAkMQowSVxpc98ZAUppFFY7If5btwCDA9QR6ZACTGrliZjXLwUaQjQiZTkiQI2X3X1BgDoiHVKASa3EmUYcCezt7veEaka69FXin56s6UNJlAJMauUpoiM1KtEMXAoc5O5vh29J1qY07fsJ4I+AV1lGASaJMvdqf22KVMbMXgQOKPPj44HT3P2lBFuSMpjZZ4G/AVtVcNkyYH13X5ZIUyJoBCa1Ve404nVEU4YKrzrg7v8BPgbcVcFlQxVekjQFmNRSVwE2AzjK3c9198ZaNCTlcff57n4K8A1gXhmXaPpQEqcAk1oaCcxZy8/dB+zh7iHeGZOEuPsgotHY0118VAEmiVOASc2UDrl8arUfXkD0rOsEd5+bQltSIXd/HzgSuJDoWdfqFgCjatqUFJICTGqt/QjrP8Ce7n5HWs1IdTxyNbAv8MpqP/2cu7ek0JYUjAJMau0JopeSLwKOcPepKfcjMbj7m8D+wBV8+JqEpg+lJrSMXmrOzLZx98lp9yFhmdmngNuBo0vBJpIoBZiIBGNm/dx9cdp9SDEowEREJJP0DExERDJJASYiIpmkABMRkUxSgImISCYpwEREJJMUYCIikkkKMBERySQFmIiIZJICTEREMkkBJiIimaQAExGRTFKAiYhIJinAREQkkxRgIiKSSQowERHJJAWYiIhkkgJMREQySQEmIiKZpAATEZFMUoCJiEgmxQ4wMzvczHqGaEZERKRcsQLMzL4DPAncaWbdw7QkIiLStaoDzMwuAP5aqnE8cKuZaUpSRERqoqrAMbOfAFcD1u6HTwOuNzPr+CoREZFwKg4wM/s1cPlafvo7wFWxOhIRESlDRQFmZn8AftHFxy4ws7UFnIiISBDm7l1/KJoWvBb4XgW1/8fdf11tYyIiIp3pMsBKCzNuAs6oov6P3P0P1TQmIiLSmU4DzMx6AH8HTopxj/Pc/c8xrhcREVnDWgPMzHoB9wDHxLyHA99x95tj1hEREVmpwwAzsz7AA8AXAt2nFTjN3e8KVE9ERApujQAzs37Aw8CnA9+rGTjR3R8IXFdERApolWX0ZjaQaGuoTydwrx7AIDM7PoHaIiJSMCsDzMw2BP4DHJjg/XoShdjZCd5DREQKoBuAmW0KPAfsU6N7Xm9mP6/BvUREJKcM2BJ4Btg5hftfDfzAy3mbWkREpB0jWrBxdIo93A18290bU+xBREQyphtwInBrij18A3jZzPZIsQcREcmYbu7e6O5nAqcDS1LqYzfgJS3uEBGRcq3yHpiZ7QLcB+yZWkfR/b/j7gtS7EFEROrcKu+BufvbwCeBG9JpB4hOd37FzD6ZYg8iIlLn1jgPzN2XufvZRM+mFte+JQC2A14ws//WCc8iItKRrnajPwB4DFivZh2t6THgm+4+O8UeRESkzpRzHtjeRNtLbVSTjjo2HTjV3Z9NsQcREakja0whrs7dXyHaG3Fm4t2s3ebA02b2azPrnmIfIiJSJ7ocga38oNlORDt2bJVoR10bApzs7u+n3IeIiKSoyxFYG3efABwKTE6unbIcArxqZl9OuQ8REUlR2QEG4O6TiKYTpyTRTAU2BP5lZleVTo4WEZGCKXsKcZWLzLYDBpP+dCLAaKKDMt9JuxEREamdikZgbdx9ItFIrB6eQ+0DjDazU9JuREREaqeqAANw9/eIQiztZ2IA/YE7zOxWM1s37WZERCR5VU0hrlLAbGPgfqLFFfXgLaIpxTFpNyIiIsmpegTWprRDxuHA9fHbCWJXYISZfSftRkREJDmxR2CrFIuOQ7kG6BmsaDx3Ame7e1rHxIiISEKCBhiAmX2KaEpxk6CFq/cWcLy7v5F2I5JtZtYT6Au0/abxDr7f/p+b3b25pk2KFEjwAAMws62AfxKtEKwHjcB57p7mydNSp0rbk+1OdArCpu2+Nlnt+xtUUb6J6FSHrr4WEm3XNh2YUfp2lru3VPvvJZJ3iQQYgJn1Af4KnJbIDapzG/A9d29MuxFJR+l4np2A/YBPlL7dm2hkVW9agFmsGmozgGnABGCsTmmQIksswFbewOxMoudi9fIHxFiiKcVxaTciyStN+32aaKHRfsC+wMA0ewqsAXiz9DW27fvunubm2yI1kXiAAZjZR4F7iaZp6sES4Bx3/3vajUh4pXcBvwAcAxxNuufZpWUuHwbbCGCwu7+bbksiYdUkwADMrC9wLXBGTW5YnpuB8919adqNSDxmthHwZaLQOhLonW5HdWka0RZwg4kC7e2U+xGJpWYBtvKGZqcCfwH61fTGa/c60ZSifjNnjJl1A74CnEc0Taiz4iozk1UD7c2U+xHpkJn1IPqL6SnAMnc/C1IIsFIzuxBNKX6s5jfv2GLgLHe/N+1GpGtmNhA4iyi4tku5nTyZDTwC3AM8o1cAJE2lBVcHAycDxwMblX7qJXffH1IKsFJzvYGrgLNTaWBNrcC39FysfpnZzsAFwDepnxF8XjUQvc85CHje3VtT7kcKwsz2JAqtbwDbdPCRWe6+KaQYYG3M7ETgBmBAqo1EWoBT3X1Q2o3Ih8zsSOBCooUZlnI7RTQDuI8ozIZ72n9oSO6Y2TZEgXUysGcZl6zr7o2pBxiAme1ING1RDy8+NwOHufuwtBspOjP7JPAH6mejaIkOs70HGOTuo9NuRrKrtPDqeKLQOpjK/nK6u7uPq4sAAzCzdYj+sDov7V6I5v+PSLuJoiodmPpb4EQ04qpnI4h+zz6gKUYpR+kVl68SLcY4EuhRZakvuvtjdRNgbczsWKLl7Wm/u3OwRmG1ZWbrA5cQ/SWmV8rtSPneA/4I3KJdbmR1pcHJF4CTiFYNh9jU4lx3v67uAgxWzocOAg5IsY0xwH7uvjzFHgrBzHoRhdYlwPoptyPVm0v0isw17v5B2s1Iekr7ix5OFFrHEn73m9+7+8WxzwNLgrtPJnru8f/4cHfvWvsY8D8p3bswzOxzRCcGXInCK+s2AH4OTDazm8xst7QbktqxyCFm9meihT9PEG1ckcTWbdtCHaxC7IqZfR64nXSOZ2khesn5wRTunWtm1p/o+cl30+5FEuPAo8Dl7j407WYkGWb2CaKR1onAljW67Uh3/2TdBxiAmX0EuAP4bEotXAX8WNOJYZjZ4UTPOTt6x0Py6R7gR+4+Ne1GJL7S/rYnlb52TKGF2e6+SSYCDFZuG/Qz4Feks2XQy8CJ7v5eCvfOBTPrB/ye6OV1rS4snkbgcuAP7r4s7WakMma2PR+GVjnvaiWtX2YCrI2ZHQLcRe2Gqu0tIHpH7LUU7p1pZvZZolHXtrW8b48exm67DWC33QbQv38P+vbtTt++bd92/P0+fbrjDi0tvsZXa+uq/9zc7CxYsII5c5qYM2c5DQ3Rt+2/P3/+cjL22yxpE4H/1tR8/Sud63gi0VT/gSm3s7qPZi7AAMxsQ+BvREdl1NII4FPaI658pS3DrgTOIeFRV9++3dlrr/XYe+/1+PjH12Pvvddnzz0Hss466a5Vamlx5s6NQm3SpCW8/faiVb6mTSvsYQhPAxfobL76U9rO6btEBxLX6/l5R2cywNqY2YXA76jNO0MLgb01hVi+0gvJ9xOdeJyIbbbpy9FHb87RR3+Ez3xmk9TDqhpLljQzfvziNYJt7NgFNDXl/v3gZqJjln7l7gvSbqbISkdetY220nyFqVznZTrAYOUKmEHADgnf6hR3vyvhe+SGmX2RaOFN0KXx3boZBxywwcrQ2nPPev3LYXzLlrXw0ktzGTKkgSFDGhg2rIFFi3I7+J8F/NTdb0m7kaJpt0n2qdTvaKsjf8h8gAGY2QCi52JfSugWt7v7NxOqnSulxTb/A/yCQFOGPXoYX/ziRzjuuC354hc3Y6ON1glRNnNaWpxXX53P88/PXhlqDQ1NabcV2i3A2ZqmT56Z7Qv8hOhF4+xNXcA/chFgsPIPzsuBiwOXfodo6nBx4Lq5U3o2eSfw+fi14KCDNuKss7bja1/bgvXW6xm/wRwaN24hzz/fwMMPT+fJJz9gxYpcTDk+BXzd3Rem3UgelRZU/RTI+n6vL+cmwNqY2SnATYQ5Un4FcJC7vxygVq6VpnL/Qcx3u7bffl3OPXdHTjttGzbeuJgjrWrNnbuc++9/n7vvnsrgwbNpbc307+3XgS/pvbEwSodDHkMUXPul3E4oDbkLMAAz2w/4J7B5zFI/cvc/BGgp18zs20QP4qtKnIEDe3L88Vvyy19+lK226hO2uYKaMWMZ9947lUGDpjJ8+Jy026nWdKJNtSel3UhWlYLrZKJ9RndNuZ1QWoDHgZtzGWAAZrY58CDwySpLPAl8QYf3rV3pN8flwI8rvbZbN2P//Tfg17/+KEccsWn45mSliROXMGjQVAYNmsKYMZlb6PcG0SzIorQbyRozO4jolIBq/wysN+8QPSO9zd2nQwb2Qoyj9A7SjUSrayoxC9jL3WeG7yofSjvI/43oFNWy9e/fg/PO25Gf/nQ3+vev9iggqdYbbyzgj3+cwB13TGb58sw8L3sU+Iq7t6TdSBaY2dbAFVT4e7NOLSV6NHGzuw9e/SdzHWBtzOx/iLagKocTzb0/llxH2WZm6xGNbj9d7jUDBvTkZz/blQsu2Ik+fdLYCUzamzZtKf/3f+O54Yb3WLw4Ewv+rnb3C9Nuop6VDov8MfBDIOtz8SOJdu65u7PFPIUIMAAz+xHR8Sxd+aO7X5R0P1llZlsBjwEfLefzffp054ILduLHP96F9dfXGZX1Zt685Vx77Tv86U/vZGFJ/pnufmvaTdSb0lT+qUTT+Vuk3E4cc4jeHb3Z3V8v54LCBBiAmZ0H/Im1v5/0CnCAdp3vmJntRTSdU9bimK98ZXOuu24fttgi638ZzL/GxhZuvnkiV175NpMn1+2hyguB3d19WtqN1Asz25boD/2D0+2kaq1Er03cDDxU6Z+9hQowWLli7q+s+eLeEmBfd3+79l3Vv9LBk/cD/bv67IABPbn66o/zrW9tm3hfElZzs3P33VP43e/eYuzYunwN61/u/tW0m6gHZnYy0QnYA9LupQqTgFuBW+O8KlG4AAMws1OJFiC0fxhzlrax6Vjpv9ctQJdvEx9++Cbceut+bLVV3+Qbk8S4w6BBU7jooteYObPuTj450d3vTbuJtJQOg/0z0Ua7WbKM6Nn5zcB/QqzwLmSAAZjZ14m2n+oJ3OPuJ6XcUl0ysxOJ/jt1utXMOut048or9+J739sR00lfubFw4QouueQNrrvuXVpa6ubPilnAbu4+N+1Gas3MPkn0+zHpvV9DepUotO5093khCxc2wADM7MtEByzur52w12RmRwMP0MXIa+ed+/PMM4ex5ZZ61pVXo0fP47/+azQjR9ZNZvzJ3b+fdhO1Utoq78fAr4EsvH8yn2hbuZvd/ZWkblLoAAMws3Xcve6XX9Vaab+0f9PFllwHH7whQ4Z8VqOuAmhtdf761/f42c9eZ/78FWm3sxTY1t1npd1ILZjZU9T/3oUOPEs02nqgFqduZ3EH4qAUXmsyswOBh+givPbdd32eeuowhVdBdOtmnHPODrz99lGcemqsLS9D6AP8IO0maqieX9abCvwvsIO7H+7ud9UivEAjMFmNmX2c6G9R63X2uYEDe/Lqq59j223XrU1jUneee2423/veaMaNS2214kJgG3efn1YDtVJacXhn2n2000z0l9ybgCfdPZVtXQo/ApMPmdmuRHtAdhpeADfe+AmFV8F9+tMb89prn+OSS3ZLq4UBwHlp3bzG/gnUw5FOs4HfAtu5+9fd/fG0wgs0ApOS0guRL1DGm/xnn70911+/b9ItSYbcffcUzjhjJE1NNf+zbDawhbun/lAuaWZ2G3B6Srd/GbiGaMV23Tx2UYBJ2879Q4Dtu/rsHnsM5KWXDtd+hrKGoUMbOOaYYWlsSXWMuz9U65vWWmkzgSdreMsVwH3ANe4+vIb3LZsCrODMbCPgeaDLeaC+fbszcuQR7L57Fl/8l1p4993FHHXUECZMqOls1/3u/vVa3jANpaX0U4l/zmFXZhDtVvTXej+RQ8/ACszMBgJPUEZ4AVx55V4KL+nUDjv048knD2WTTWp6mvbRZrZ+LW+YhtKzprsSvMUwoiNYtnH3S+s9vEABVlilv80NAvYp5/MHH7wRZ5+dpZf/JS3bbrsuDz10ML1712yaeR3ghFrdLGV3BK63jGhbvX3d/WB3H5Sl54kKsOK6HPhCOR/s2bMbf/3rvnrfS8p2wAEbcttt+9Xy10zW9gWsiru/BpR11EgXZgE/B7Zy9zPcfXSAmjWnACsgMzsJuLjcz//oR7vw0Y9q6lAqc8IJW3HppWUdGxfCQWa2Ya1ulrI4o7CpwPeJdjH5rbs3BOopFVrEUTBmtjfRcvmytovfccd+vP76kbWcDpIcaWlx9t//GUaNCrqH69p83d3vr8WN0mRmWwKTqWwA8g5wBXB7lqYIu6IRWIGY2cZExxmUfdbJX/6yj8JLqta9u3HDDfvSvXtN5hIPr8VN0ubu7wPPlfnxN4CTgV3d/eY8hRcowArDzLoD9wJlb2L3jW9szRFHbJpcU1II++yzPhdcsFMtbvXZWtykTvy9i59/CTgG+Ji73+3uLTXoqeY0hVgQZvYz4Dflfr57d+Ott77Ajjv2S7ArKYolS5rZffcnmDKlMelbbenu05K+SdpKh1p+QLSpcXvPAb9x96dr3lQKNAIrADPbF/hVJdeceuo2Ci8JZt11e9RqQcdnanGTtLn7IqLNdNs8Chzs7p8pSniBAiz3zKwP0aqlTg+lbK97d0tzg1bJqVNO2boWh55+LOkb1JHbgX8A+7j7l9x9WNoN1ZoCLP/+AOxayQUafUkSevbsxg9+sHPSt6nJw7Z64O6PufvxSZ54XO/0DCzHzOwooqmFsunZlyRp8eJmtt7638ybtzypW7zh7nsmVVzqi0ZgOWVmGwC3VHqdRl+SpH79evC97yW6JdkOZtozpigUYPl1GbBZpRf99KcVzTaKVOyss7ZLsnwfyjjTTvJBAZZDZvYx4LuVXvepT23ELrv0T6AjkQ9tt926fPKTGyR5i8I8Bys6BVg+/QmoePuMM89M9G/GIiuddNJWSZZXgBWEAixnzOwE4LBKr+vXrwfHH79lAh2JrOmEE7ZKcqf6HROrLHVFAZYjpXe+fl/NtSecsBX9+vUI3JFIx7bYog+HHLJxUuU1AisIBVi+/ATYupoLzzxz27CdiHThy1/+SFKlFWAFoQDLidJO8z+q5tqdd+7PwQdvFLgjkc4ddlhiIzAtpS8IBVh+XMCaG3uW5fTTy96gXiSYffZZn/79E5m27g3ogW4BKMBywMzWBb5X7fWf/3zFr4uJxNa9u/GpTyU28k90maPUBwVYPnwbqOrFmg026MU++6wXuB2R8iQ4jZj4uS2SPgVYxplZD+Ciaq//zGc2oVs3PS6QdBx6aGIBtjCpwlI/FGDZdxJVrjwEOOKITQK2IlKZ3XcfkFRpBVgBKMCy7+I4Fx9xxKah+hCp2MCBPdl443WSKK0AKwAFWIaZ2aeBqo+O2Gabvtp5XlK3007Bfw02uXti57VI/VCAZdtJcS4+/HCNviR9O+0UfANpjb4KQgGWUaXFG1+PU2P//RPdEVykLAmMwBaELij1SQGWXZ8DNoxTYP31ewVqRaR6CQSYRmAFoQDLrljThwADBmjzXkmfphClWgqwDDKz3sAxcesMHNgzQDci8SSwkEgBVhAKsGw6Coj9Ao0CTOpB//492HTT3iFLKsAKQgGWTSeGKKIAk3oR+DmYAqwgFGDZ9JkQRRRgUi8CB5hWIRaEAixjzGx7IPb+T927G+uuq0UcUh+23XbdkOU0AisIBVj2HBCiyIABGn1J/Whqag1ZTgFWEAqw7DkwRBFNH0o9WbhwRdByIYtJ/VKA0JHgDQAAIABJREFUZU+QEZgCTOpJ4ACbG7KY1C8FWIaYWR9grxC1FGBSTxYubA5ZbmrIYlK/FGDZsi8QJHm0C4fUk8AjsMkhi0n9UoBlS5DpQ9AITOrLggXBAmy+u+sZWEEowLJl81CFFGBSTwKOwDT6KhAFWLYEe1mmXz9NIUr9CPgMTAFWIAqwbOmbdgMiSdAITKqhAMuWYCOw1qDvjYpUr7nZWbq0JVQ5BViBKMCyJdgIzN1DlRKJRSsQpVoKsGwJFmAagUm9UIBJtRRg2RJwClEjMKkPgV9iVoAViAIsWwJOIYaqJBJPwBHYUnefFaqY1D8FWLZoBCa5EzDApoQqJNmgAMsWjcAkd/QOmFRLAZYtGoFJ7sycuSxUKQVYwSjAMsLMugG9Q9XTCEzqxcSJS0KVUoAVjAIsO/qELKYRmNSLSZMUYFIdBVh2BJs+BAWY1I+AI7C3QhWSbFCAZUfQfRA1hSj1IlCANQGvhSgk2aEAy45eIYtpBCb1oKGhicWLg6xCHO3uQbf0kPqnAMuOYLudgraSkvoQcPpwRKhCkh0KsOwIut9O4P3nRKoyaVJjqFIKsAJSgGVH0ACbP18BJunTCEziUIBlR9ApxHnzlocsJ1KVQAE2y90nhigk2aIAyw6NwCR3AgXYSyGKSPYowLIj6Ahs/nyNwCR9gQJseIgikj0KsOwIOgJbsGCFltJLqtxh8uQgAabnXwWlAMuOoAHmHvwgQZGKzJixlKam2O9zODAyQDuSQQqw7Ag6hQiaRpR0BZo+fMvdF4QoJNmjAMuO4MOlefO0kEPSEyjANH1YYAqwjHD3VqLpkmA0ApM0jR+/OEQZBViBKcCyJfBKRI3AJD3DhjWEKKMAKzAFWLYEnUbUy8ySlpYWZ8SIuXHLNAKvB2hHMkoBli16mVlyYcyYBSF2oR/h7lpKW2AKsGwJmjgagUlahg4NMn34cIgikl0KsGyZH7SYRmCSkkAB9s8QRSS7FGDZMidksenTl4YsJ1K2oUNj/1J+XRv4igIsW4IG2OTJwc5iEinb1KmNTJ0a+9eeRl+iAMuYoAE2ZYoCTGovwOgL4KEQRSTbFGDZEnvdcXuzZzexdGnwHapEOhXg+ddUdx8VohfJNgVYtgQdgYFGYVJ7AQLsXyH6kOxTgGWLAkwybfHiZsaMib337j0hepHsU4BliwJMMm348Dm0tMTa0nO8uw8J1Y9kmwIsW4IHmFYiSi0FWMBxc4g+JB8UYNkSdBEHaAQmtRXz+VczcFugViQHFGDZoilEyazWVmf48Fi/hB9x9w9C9SPZpwDLlgSmEIMcKijSpeHD57JoUay9d28K1YvkgwIsQ0pHpwfdffv995fiQY/JFOnYvfdOjXP5NODxQK1ITijAsifoc7Dly1uZOXNZyJIia3CHf/zj/TglbnZ3vXUvq1CAZY+mESVzhg1rYNq0qjePng9cFbAdyQkFWPbE+mtsR7SQQ5J2772xftn+3t3nhepF8kMBlj3Bj5AYO3Zh6JIiK8WcPpwJXB2wHckRBVj2vBe64CuvBD0nU2QVQ4c2xDl77jJ31xy3dEgBlj0JBJhmZyQ5gwZVvfpwInBDwFYkZxRg2RM8wN5/fykNDU2hy4qweHEzf//75Gov/6W7rwjZj+SLAix7ggcYaBpRknHbbZNYuLCqDHoDuCtwO5IzCrCMKa3Gin0exeoUYJKEP//53Wov/bm7t4bsRfJHAZZNeg4mde/ppz9g3LiqVri+6O46tFK6pADLJq1ElLp3zTXvVHvpT0P2IfmlAMum4AE2YcJiliwJus2iFNjEiUt45JEZ1Vz6hLsPDt2P5JMCLJuCv8zc2uq89lrwR2tSUFddNYHW1op3iW5Foy+pgAIsmxJaiajnYBLftGlLue66qqYPb3H3V0L3I/mlAMsmLaWXunX22aNobq549DUf+FkC7UiOKcCyaTLRdEtQCjCJ6+WX5/Hvf1f17OsX7j47dD+Sb+Y6zTCTzGwysHXImuus041Fi75Gz576e41UZ7vtHmXSpIq3LhwD7KPzvqRS+pMqu94KXbCpqZU339TO9FKdP/1pQjXhBXC+wkuqoQDLrteSKKppRKlGY2MLF188pppL73b350P3I8WgAMsuBZjUjXPOGUVTU8WPZRcDP0qgHSkIBVh2vZpI0VcVYFKZRYuaufPOKdVcepm7TwvdjxSHAiy73gaCn4Hy6qvz0boeqcQZZ7xES0vFv2gmAH9MoB0pEAVYRrl7MzA2dN2FC1cwYcKi0GUlp2bPbuLBB6dXc+n33X156H6kWBRg2ZbINOLw4XOTKCs5dNppL1WzZdS/3P2xJPqRYlGAZVsiCzlGjJiTRFnJmSlTGnnyyZmVXrYYuCCBdqSAFGDZlkiAaQQm5TjzzJHVPC+92N0nJ9COFJACLNsSCbAxY+azdKneK5W1e+yxmTzzzKxKL3sWuD6BdqSgFGAZ5u7zifZFDKq52Rk1SjvTS8eamlo5//yKN41fApzl2rtOAlKAZV9C04h6DiYdu+KKt3j33cWVXvYTdw9+jp0UmwIs+7QSUWrmvfeWcMUVFW/DORj4cwLtSMEpwLJPKxGlZs4//xWWLavo+WgjmjqUhCjAsi+RAHv//aVMm7Y0idKSUf/85zQefbTis75+5u7vJtGPiAIs+94DEtk6Y8QITSNKpLGxhQsvrHi2+gXgmgTaEQEUYJlXmpqp6hyLrmghh7S57LI3mTy5sZJLlgJnunvwk8NF2ijA8kErESUxb7+9iCuvHF/pZZe4+4Qk+hFpowDLh0RWIo4aNY/mZj17L7rzznuF5csrGkg9A1yVUDsiKynA8qHit0rL0djYwuuvL0iitGTErbdO4umnP6jkkpnAKZo6lFpQgOXDa0TPHILTNGJxTZnSWOnCjVai8Koo8USqpQDLAXdfAYxMorZWIhaTe7RZ78KFKyq57DJ3/09SPYmsTgGWH8OSKKoRWDFdd907lW7W+xxwaTLdiHRMAZYfiQTY+PGLmDdPB+cWyTvvLObiiyt6M2MWcLKee0mtKcDy48UkirrDiy9qFFYUra3Ot741ksbGsreLcuA0d694iw6RuBRgOeHuDUDFL+uU47nnZidRVurQlVeOZ+jQhkouudzdn0yqH5HOKMDyJZFpxGefrfjgQsmgN99cyC9+8UYllwwBfplQOyJdUoDlSyIB9sor81mwoKLVaJIxzc3O6ae/RFNT2Y+xGoBvuLuO7pbUKMDyZWgSRVtanCFDKppWkoz57W/HVXIKdytwqrtPS7AlkS4pwPJlHDA/icKaRsyv0aPncdll4yq55GJ3fyKpfkTKpQDLkdLO9ImsRlSA5dP8+Ss4/vgXWbGi7KnD2939yiR7EimXAix/EnkO9tprC/Q+WM64w2mnjeC995aUe8lw4LsJtiRSEQVY/iQSYK2tzvPP6zlYnlx22Zs88kjZr29NA77m7k0JtiRSEQVY/owAElkZ9txzmkbMiyeemMmvfvVmuR9fCnzV3Wcm2JJIxRRgOePuS0johOZnn9ULzXkweXIjp5wygtbWss96O8vdRyXZk0g1FGD5lMhy+jFj5jN3rp6DZVlTUyvHHTeMOXPK/v94ubvfnWRPItVSgOVTIs/B3GHwYI3Csuzcc0dX8r7Xv4BLEmxHJBYFWD4lEmCg5fRZdvPNE7n55onlfnws0cvK2mFe6pYCLIfcfTLRqrHg9Bwsm0aNmse5544u9+NzgK+4+6IEWxKJTQGWX88kUXTs2AU0NGgldZbMmbOc444bVu4+h83A8e7+XsJticSmAMuvp5Mo6q7jVbKkudk5/vgXmTy5sdxLLnT3Z5PsSSQUBVh+JRJgoOdgWfL9779Syf+vG9z9z0n2IxKSAiynSifkVnS4U7k0AsuG6657l+uue7fcj48GLkiwHZHgFGD5lsgo7M03F/L++0uTKC2B/Oc/szjvvLIXbSwETtA2UZI1CrB8eyqpwo8+WvYeelJjU6c28qUvvYCXvdEGZ7p72UM1kXqhAMu3wUAiRylXsAms1FBjYwsHHPAMy5aVvR3mNe5+f5I9iSRFAZZjpX0REzkf7JlnPqjkD0mpkSOPfJ7p05eV+/GXgR8m2I5IohRg+ZfINGJjY4teaq4z55//CkOHln3kzXyi517a3FIySwGWf4ktp3/kkelJlZYK3X77JK699p1KLjnD3cveV0qkHplX8KRXssfMuhNtDTQwdO1ttunLpElfCl1WKjR27EI+/vEnaW4u+/fyVe7+gyR7EqkFjcByzt1bgP8kUXvy5EbeeGNBEqWlTHPnLueIIwZXEl4jgIsTbEmkZhRgxZDYNOK//63ViGlpbnaOPXYYM2eWvWhjHnCiuyeyMlWk1hRgxZDY+2BaTp+eiy56tZLz2Rz4ZumkApFcUIAVgLtPAKYkUfvFF+folOYU3H77ZK65pqJFG1e6+8NJ9SOSBgVYcSQyCmtpcR5/fGYSpWUtxo9fVMnZXhC9C/jThNoRSY0CrDgSm0bUc7DaWb68lZNOGs7ixc3lXrKA6LlX2ReIZIUCrDieIXoOEtzjj8+kpUWvY9TCxReP4ZVX5ldyyaXuPjWpfkTSpAArCHdvAF5NovbcucsZNmxOEqWlnUcemcHVV0+o5JK3gWsTakckdQqwYtFy+oyaPn0pZ5wxstLLLtKSeckzBVixJLicXttKJaW11TnllBE0NFR0XNdj7v5oUj2J1AMFWLEMAcp+67USY8cuZPLkxiRKF95vfjOu0lOwVwDaKkpyTwFWIO6+DBiaVH2NwsJ74YUGLr30zUovu9bd306iH5F6ogArnsSmER9+WM/BQpo3bzknnzyi0hWes4FLE2pJpK4owIonsQB77rlZlbyfJF0466yXmTq14mnZS9xdOyxLISjAiudVouNVgmtqauXJJz9IonThXHfduzz44LRKL3sVuCmBdkTqkgKsYNy9leil5kQ8/LCeg8X1+usL+O//fq2aS79f+v8rUggKsGJK7H2wRx+dQWurduWoVmNjCyeeOJxly1oqvfQ+d38+iZ5E6pUCrJgSew42a1YTI0bMTap87l188RjGjVtY6WXLgB8l0I5IXVOAFZC7TwIqOoujEppGrM4bbyzg+uvfrebS3+ucLykiBVhxJTaNqOX01fnhD8dUsyny+8AVCbQjUvcUYMWV2DTiG28sYNKkJUmVz6XHH5/JE09Uda7aj91dW6BIISnAius/QMUrBcqlUVj5WlqcH/6wqlWHw9z9rtD9iGSFAqyg3H0+MCqp+noOVr6bbprI2LEVL9wALdyQglOAFVti04iDB89m0SLtytGVhQtX8MtfvlHNpY+5+7DQ/YhkiQKs2BJbyLF8eWu1z3QK5fLL32LWrIqOSWnzi9C9iGSNAqzYhgGJLQDQNGLnJk9u5KqrKjphuc0/3T2x6V+RrFCAFZi7LweeS6r+o4/O1K4cnfjJT8ZUs+OGA79MoB2RzFGAyWNJFW5oaOLFFxPZNzjzRoyYyz33TK3m0nvc/fXQ/YhkkQJMEj12XsvpO3bRRa/ilQ9OW4BfBW9GJKMUYAXn7u8B45Oqr+dga7r33qkMG1bVyPQOnbQs8iEFmECCo7A331zIe+9pV442TU2t/OQnVc0AtqCTlkVWoQATSPA5GMAjj2gU1ubqqycwcWJVgf6gu08M3Y9IlinABGAwCS6nf+QRPQcDmD27id/+dly1l18dsheRPFCACe7eRLQ3YiKGDm1gxQodFPyrX41lwYIV1Vw6yt1fCN2PSNYpwKRNYs/BGhtbeOWV+UmVz4Tx4xdxww3vVXu5Rl8iHVCASZtEn4O98EJDkuXr3v/+7ziam6t6qfsD4J7A7YjkggJMgJWnNFf9gKYrRQ6w8eMXcffdU6q9/C+lHVNEZDUKMGkvsVHY0KHFDbDLLhtXzUnLAMuB6wO3I5IbCjBpL7HnYLNmNTF+/KKkytetCRMWc9ddVY++Brn7ByH7EckTBZi0NwRYnFTxIk4jXnbZm9WOvgD+HLIXkbxRgMlKpWctzyRVv2gB9s47i7nzzqpHX3OBkQHbEckdBZisLrHnYEULsBjPvgCed69iu1+RAlGAyeoSC7AJExZXe/pw5rzzzmLuuGNynBKDQ/UiklcKMFmFu08BxiZVf8SIYpwP9n//Nz7O6AsUYCJdUoBJRxIbhU2dujSp0nWjsbElzrMvgAXAa4HaEcktBZh0JLHl9NOn5z/A7r13KgsXVrXnYZsh7q7NI0W6oACTjrwAJPLS1owZy5IoW1duuin2qSfPh+hDJO8UYLIGd18BDEuidt5HYOPGLQyx68jQEL2I5J0CTNZmeBJF8x5gAUZfAJNCFBHJOwWYrE0iAZbnKcTly1u5/fZYS+cBmoGZAdoRyT0FmKzNS0DwF2kbGppye7jlQw9Np6Eh9ntu07WAQ6Q8CjDpkLvPBSaEr5vfUdiNN1Z9YGV7U0MUESkCBZh0RtOIZXr//aU8/XSQjePfD1FEpAgUYNIZLeQo0+DBswm0c6FGYCJlUoBJZxIJsA8+yN8I7MUXg22RpRGYSJkUYNKZ14HG0EX79esRumTqAgbYtFCFRPJOASZr5e7NwMuh6262We/QJVPV2NjCmDHzQ5XL3/BUJCEKMOmKAqwLI0fOpbk52BsHsTZRFCkSBZh0JfiUVt4CLOD0IUQvMotIGRRg0pUga8Pb9OhhbLjhOiFLpm74cAWYSBoUYNKVoAG26aa9MQtZMX3Dh88NWU5TiCJlUoBJV2aFLJa36cPGxpbQrwVoBCZSJgWYdCX4CCxPZswI/lK2AkykTAow6UoDEGxz2byNwBLYFktTiCJlUoBJp9y9BQi2SiFvATZzZvAA0whMpEwKMClHsGnEvAVYAiMwBZhImRRgUo5gCznyF2DBn4FpClGkTAowKYdGYGuhEZhIehRgUo55oQrlLcD0DEwkPQowKccGoQrlLcDmzVseuqSmEEXKpACTcmwaokjfvt3p3z9fR6m0tATbxLeNRmAiZVKASTmCBFjeRl8ArcHekFtJIzCRMinApBxBAmzzzfuEKFNXWluDj8BaQhcUySsFmHTKzHoS6BnYTjv1C1GmriQwhSgiZVKASVc2AYLsH7/zzv1DlKkrCYzAlIgiZVKASVeCTB9CXgMs7Q5EiksBJl0JGGCaQiyDRmAiZVKASVc2C1HEDHbcMX8BlsAUooiUSQEmXQkyAtt667707t09RKm6omdgIulRgElXggRYHp9/gVYhiqRJASZdUYB1IoFFHEpEkTIpwKQrgQIsf8+/QM/ARNKkAJOuBFnEsdNO+RyBaRWiSHoUYNIVjcA6oRGYSHoUYLJWobaR6tWrG9tuu26AjuqPnoGJpEcBJp0Jso3U9tuvS/fuQXajqjtahSiSHgWYdGbXEEXyugIRwk8hursSUaRMCjDpzB4hiijARCQJCjDpzJ4hiuR1AQcEfwa2OGg1kZxTgElnggTY4sXNIcrUpcAjsNkhi4nknQJMOmRmBnw0RK2LLnqNI498nldfnR+iXF1RgImkRwEma7M9EGzt+1NPfcA++zzFaae9xOTJjaHKpi7wFKICTKQCCjBZmyDTh+25wx13TGaXXR7jhz98jXnzloe+Rc1pBCaSHgWYrE3wAGvT1NTKlVeOZ4cdHuP3v3+bZctakrpV4hRgIulRgMnaHJj0DebNW87FF49h550f59ZbJ2VySXrgt7YUYCIVUIDJGsysD/DpWt1v6tRGzjxzJB/72JM8/PD0Wt02tgR24VCAiVRAASYd+TTQp9Y3HTt2IV/5ylAOPfRZXnxxTq1vX7EERowKMJEKKMCkI19M8+ZDhjRw0EH/4dhjh/HWW4vSbKVTCWzkqwATqYACTDpy1Gr/nMoqiwcfnMYeezzBd787iunTl6bRQqc0AhNJlwJMVmFmOwM7lP5xAdH2Rt3T6qelxbnxxvfYaafH+NnPXq+rpfcKMJF0KcBkdV8EmoE7gRVAXWxk2NjYwuWXv8UWWzzCWWe9zKhR89JuKfQU4jJ3116IIhVQgMnqDDgOOBLYKOVe1rB0aQu33DKRT3ziafbf/xluv31yau+R6R0wkXSZjh+S9sxsT+AZYOO0eynXhhv24swzt+Occ3Zgu+1qd/LzlCmNbLPNv0OVG+3u+4YqJlIECjBZKYvh1V63bsZBB23IQQdtyIEHRl+bbto7sfu9/PI89tvv6VDl/uDuPwpVTKQIeqTdgNSHrIcXRFN6L7zQwAsvNKz8se22W5cDD9yQAw6IAm2vvQbSs2eYmfNZs5aFKDMHOMfd7wtRTKRIFGDS5muktFw+SRMnLmHixCXcddcUAHr16sZWW/Vl6637stVWfdp9/8MfGzCgZ1m1Z81qitveI8B33H1m3EIiRaQAEwDc/ddmdhlwGHAi0UKOulvEEdfy5a28++5i3n137Qv+Bg7s2WnIbbllH3r16hYnwFqAc939r9UWEBE9A5O1MLMewBHA/yPBnemzqFevbuy993o0N3s1y/kXAQe4+5sJtCZSKAow6ZCZfQS4Ffh82r3kyGxgD3eflXYjInmg98BkDWZ2LPA6a4bXCuC5mjeUD7OA/RReIuEowGQlM+tvZrcC9wMbdvCRnsAI4FPA0Fr2lnHzgMPdfXLajYjkiaYQBQAzOxj4O7BdFx9dDGzj7nPN7ETgd8A2SfeXYY3A59x9WNqNiOSNRmAFZ2Y9S6sPB9N1eEG0N+KvANz9HmBX4BJgSVI9ZlgzcLzCSyQZGoEVmJntAtwBfKKKy4919wfb1foIcDlwOtF+ikXnwOnufkfajYjklUZgBWVm5wCjqS68AG41s+3b/sHdZ7j7t4D9gBfid5h5/63wEkmWRmAFY2abArcQ5tTl0cBB7r7GG71mdgLRO2RFfD52ubv/LO0mRPJOI7ACMbOvEi2PDxFeAPsAV3X0E+5+L9HzsZ8TLfwoipsUXiK1oRFYAZjZukRB8+2EbnGeu/+5k/tvCny39LVlQj3UgweJFm3kbk9JkXqkAMs5M9ufaKHGjgnf6rfAJd7JLygz6w58Gfge0TZVeVrs8RzwhY6mU0UkGQqwnCrtZXhJ6at7jW57J3Cmuy/v6oNmthPwX8C3gA0S7itprwKHufvCtBsRKRIFWE6Z2ZeIjuuotWeBr7n7gnI+bGZ9iHa//ypwKNkLs3eBg939g7QbESkaBVhOmdk6wAfAwBRu/wZwnLuPr+QiMzOine8PK30dSn0fsDmTaBXmxLQbESkiBViOlfY1/FZKt28EfuDuN1RboBRouxOF2f7AzsBOdLxPY60tAA519zFpNyJSVAqwHDOzI4EnUm7jIeDb7t4QqqCZrU8UZO2/dgS2AjYh+Wd+y4Aj3X1IwvcRkU4owHLMzLoRTeftlnIrM4gWdzye9I1KKx03BbYANm/37eZEI7hPAOtUWX4i0Z6Rt7r78/G7FZE4FGA5Z2bfAO5Ku4+SCURHtTzg7iPTaMDMegH7AgcDBxG9lzag3VcPosCdDkwrfY0CBrv71DR6FpGOKcByrjQKexPYJe1eVjMVeKD09YK7t6bcT02UXuo+GbjP3d9Pux+RLFOAFYCZfYXoWVS9mgX8k+h53WB3n5NyP0GZ2ebAl4CjiVZWflVTkCLxKcAKwsyuBc5Nu48yONFzu+eInjcNDrkApBZK77YdAhxZ+tqz9FPLicIr8WeBIkWgACuI0nthLwJ7p91LhRwYSxRow4AxwNvu3pxmU+2Vlvt/jCisPkcUXr1X+1gLcKK731/j9kRySwFWIGa2I9ERKP3T7iWmJqLnemPaf7n7rKRvbGYDiUZUH2v3tQed/zd14Ax3vy3p/kSKRAFWMHW2KjG02USLQ9pWD7ZfSdj2z42dXL8O0RL8zVb72pRoGf7uwNZV9HW+u19bxXUi0gkFWAGZ2Y0kd7SKrOrn7v7btJsQySMFWAGVnofdR3S0iSTnd+7+k7SbEMkrBVhBlY5b+TtwUtq95NR17p6FVZ8imdUt7QYkHaVVfKcAN6fdSw79HTgv7SZE8k4BVmCl3S++A1yddi858iDRikNNbYgkTAFWcB65EPjftHvJgSeBk9y9Je1GRIpAz8BkJTM7EbgJ6Jd2Lxn0AvB5d+9smb6IBKQAk1WY2W5EG+zumnYvGTIa+Ky7L0i7EZEi0RSirMLdxwH7ES2zl669STTyUniJ1JgCTNbg7ovd/QTgIqINaKVj7wGfy9pmwyJ5oSlE6ZSZbUj0rtjpwCdTbqeeTAMOcfeJaTciUlQKMCmbmf0N+GbafdSBBuDQ0nSriKREU4hSFjP7IwovgHnAkQovkfQpwKRLpfC6sIyPLiA69ypvnOhwzTOArd39lZT7ERE0hShdqCC82iwhOq6lheiAx+2T6KsGxgNDgKeAZ7RQQ6T+KMBkraoIr/YGEx3Z0gLsD3y83demQRoMZzHwEtGJ1S8Cw919TrotiUhXFGDSoZjh1WYZcDnRsSJN7WpvBuzFh4G2B9FBkQNi3q8rDkwCxhG9vzUOGAW8oe2fRLJHASZrCBRe7b1LdCrxY13cdwCw1Vq+1gd6A31KX23fX6d0+UJgDjB3tW8bgAlEYfWWtnoSyQ8FmKwigfBq70HgQnefEqqgmRnQTSMokeLRKkRZKeHwAvgaMM7MfmpmvUIULO2mn6nwMrNDzOz4tPsQyToFmAA1Ca82fYHfAmPM7Iga3K9umNm6ZvYn4DlgZMrtiGSeAkxqGV7t7QI8ZWb3mNkWNb53zZnZp4ExwPnAMHeflGpDIjmgZ2AFl1J4rW4p0XlaQ0pfI9x9abothWFm/YD/B/wXYKUfPsfdr0+vK5F8UIAVWJ2EV0eWEy1vbwu0oe4+L92WKleaIr0R2LbdD68ANnP3uak0JZIjCrCCquPw6ogDb/BhoA1x92nptrR2ZtYf+APw3Q5++iF3P6bGLYnkkgKsgDIWXmszkWiUNq7d19tpTz2a2eeJRl1bdfDTDuziRgs0AAAJq0lEQVTv7lrAIRKAAqxgchJea9MKTGbVUBsHjEt6CtLMBgL/B5zZycfucfeTkuxDpEgUYAViZpcCv0y7j5S07dTR0W4dq3+7AGgufbV08O3qP3YUcAPQ2WrKFcBu7v5u4H8vkcLqkXYDUlO/JzrP6gdEew8WyYDS13Yp3f96hZdIWBqBFZCZ9QBOBH5ItJmuJGshsKO7z067EZE80YvMBeTuze5+p7vvDXyFaLNbSc7ZCi+R8BRgBefuDxMdZ/IjopGChPUXdx+UdhMieaQpRFnJzDYBfkO0kk5/uYlvNHBQ+7PQRCQcBZiswcz2Bq4GDkm7lwxbAOzj7u+l3YhIXulv2bIGd3/F3Q8FTgKCnd1VIEuB4xVeIsnSCEw6ZWZ9iJ6P/ZjoKBTp3BLgaHd/Lu1GRPJOASZlMbOtgN8B30i7lzq2EDjK3Yel3YhIESjApCJm9nXgVqBf2r3UmbnAF7TPoUjt6BmYlM3MvgXcgsJrdcOAfRVeIrWlAJMumdmGZnY/0cirf9r91JFW4DLgMJ2wLFJ72gtROlU6HuRW4CMVXjqRaN/FvYDuofuqA+8Dp7r74LQbESkqjcCkQ2bW28z+BDxG5eEF0aa51wEDgc8CvyjVytzJyqtZSLSj/64KL5F0aRGHrKH0IvMdwO4xSy0G9mr/PpSZGbAt8NHVvnYD+sS8X5KagL8Av3H3hjiFzKwXsI67LwrSmUhBKcBkJTPrRvTO16+BXoHKDgUOdffWMu69HWsG2w6k+9xtFnAb8Gd3nxy3mJntCtxF9KKzjlcRiUEBJgCY2TbA7cChCZT/qbtfUe3FZtaXaBpzs3ZfHf3zJoR5rtsCPA7cDDzi7isC1MTM/ovo1OY+wLru3hiirkhRKcAEMzsV+DPRgY9JWE40ChuRUH1g5fTkRnQecm3fX2+1y98EBpe+nnX3WQH72pgoDL9c+qFF7p7Uf2uRwlCAFZiZrQ9cD5xQg9vNJVpu/kYN7tUlM+tNFGSbABOTOq+rtIrzb6V7tZng7jsncT+RIlGAFZiZ/QM4roa3nAEcUoRnP2a2DtHWWxcAttpPP+/uh9W+K5F80TL6Yrujxvf7CPC0mW1Z4/vWlJntAYwEvs+a4QUws7YdieSTAqzY/kX0wnEtbQs8VXoulDtmdj5ReO3Zycd0RI1IAAqwAistbb8mhVvvCjxpZhulcO9EmNmmZvYo8Cegdxcff6YGLYnknp6BFZyZDQCmkc4GvW8Cn3P36SncOxgz+xLRJseblPHxpcAG7r4s2a5E8k8jsIJz94VEex2mYXdgiJltm9L9YzGzPmZ2LfAI5YUXREv0FV4iASjABKJpxLSG4tsDL5R2qMgMM9sLeBk4t8JLH02gHZFCUoAJ7j4BeDjFFrYAnjezj6fYQ1kschEwgur2ilSAiQSiAJM2FxJtvpuWjYGhZvbtFHvolJl9BHgCuBJYp4oST7t7rVd9iuSWAkwAKP3B+sOU2+gL3Ghm95nZ6ls9pcrMjgZeBz5XZQkHfhyuIxHRKkRZhZk9Dnw+7T6IVkZeCtzq7s1pN2NmU4E4L2Df5e6nhOpHRBRgshoz2wJ4gzU3u03Lu0RBNijUrvCVMrOdgbdjlFhOdACmpg9FAtIUoqzC3acR7d9XL3YgOuZljpndb2ZnmtlmXV0U2OExr/+DwkskPI3ApENm9gDwtbT7WAsHRgP/Bh4j2t19TlI3i7np8UPAsV0d6CkilVOASYdKiyiGAHuk3UuZlhPtdj8DmF76dibQBDQTHVK5+rfLSz/f9m3bZzcnGvntWPo6gOpWHb5MdISMDq4USYACTNaq9DxsGLB12r1k0GTgAHfXzvMiCdEzMFmr0vOwLxAdRinlGw8cofASSZYCTDrl7uOAo4k2oZWuPUs08non7UZE8k4BJl1y9xeBE4ieG8na3QR83t3npd2ISBEowKQs7v4IcBag1XRrWgqc5+7fSetdNZEi0iIOqYiZnQr8Deieciv1YjRwammqVURqSCMwqYi73wGcQrTcvMhagN8QPe9SeImkQCMwqYqZHQsMAnqm3UsKxgPfKj0bFJGUaAQmVXH3B4h2p2hKu5caaiU6SmUvhZdI+jQCk1jM7EjgXmBg2r0k7G3gDAWXSP3QCExicfcngU8Q7WCfRy3A74GPK7xE6otGYBKEma1L9B7USWn3EtBbRM+6RqTdiIisSSMwCcLdl7j7N4DjifYBzLIW4P8RjboUXiJ1SiMwCc7M+gAXl776ptxOpcYCZ7r7S2k3IiKdU4BJYsxsANFKxVOAz1C/I/6ZwH1ErwW86PpNIZIJCjCpCTP7CNHzsVOAfVNuB2AO8ABRaD2nAydFskcBJjVnZrsARwK7ADuXvrYGrAa3fw64ABir0BLJth5pNyDF4+5vE71XtZKZ9QZ24sMw6wesu5av3h189QQaiE5jngYsBA4nCsn2hrv760n8e4lIbSnApC64+zLg9dJXLGZ2AnA9sH4HP90Yt76I1Id6faguUjEzG2BmtwP30HF4ASypYUsikiCNwCQXzOxQ4HZgmy4+qhGYSE5oBCaZZmY9zewK4Fm6Di/QCEwkNzQCk8wys92BO4C9K7hMIzCRnNAITDLHIucDo6gsvEABJpIbGoFJppReiP7/7d2/jk1RFAbwb0cnQQQPoBfRTe8JJGpGpvAEXkGtVNJpFJQSBZ1OpVJNa3REIjJZihuJMPHnzh53OfP79Wdld1++dc/Z92FW35GtwwoRFkID478xxrie1Wv264ZXooHBYggw2htjnBpjPEjyOMm5Q47TwGAhrBBpbYyxleRRkouTRn6cNAfYMA2M7rYzL7yS1SW+wAIIMLqbeeHup6ryGxgshACju/2Js95PnAVsmACju5kNTIDBgggwupsZYHsTZwEbJsDozgoROJAAo7uZfxkuwGBBBBjdnZw4ywoRFkSA0d2ZibM0MFgQAUZ3pyfOEmCwIAKM7mYGmBUiLIgAozsNDDiQAKM7DQw4kNvo6W7GSxyV5F40MFiUUTXzMxuYZ4wxknxJcuIQY3aT3KqqF1MOBbRhhUhnZ3O48HqY5LLwgmWyQqSzC2s+t5fkdlU9mXkYoBcNjM7Or/HM0ySXhBcsnwCjs79pYB+S7FTVtap6d1QHAvqwQqSzPw2wl0m2q2r3KA8D9KKB0dnvVoifk9xJclV4wfGjgdHZrxrY6yQ3qurNvzoM0IsGRmcHBdh+krtJtoQXHG8aGJ39uEJ8m+RmVb3axGGAXjQwOvu+gd1PckV4Ad+4Soq2xhi7WW0Jdqrq2abPA/SigdHZ86w+ShZewE++AqZ19qYpcksyAAAAAElFTkSuQmCC;sketch=0;" vertex="1" parent="1">
          <mxGeometry x="580" y="74.03999999999999" width="112" height="154.77" as="geometry" />
        </mxCell>
        <mxCell id="AngJpRZp7Zyhj1QqLnKg-41" value="" style="ellipse;whiteSpace=wrap;html=1;aspect=fixed;shadow=0;sketch=0;strokeColor=#2D7600;fontColor=#ffffff;fillColor=#66CC00;" vertex="1" parent="1">
          <mxGeometry x="118.5" y="102" width="44" height="45" as="geometry" />
        </mxCell>
        <mxCell id="AngJpRZp7Zyhj1QqLnKg-43" value="" style="ellipse;whiteSpace=wrap;html=1;aspect=fixed;shadow=0;sketch=0;fillColor=#e3c800;strokeColor=#B09500;fontColor=#ffffff;" vertex="1" parent="1">
          <mxGeometry x="118.5" y="159" width="44" height="45" as="geometry" />
        </mxCell>
        <mxCell id="AngJpRZp7Zyhj1QqLnKg-44" value="" style="ellipse;whiteSpace=wrap;html=1;aspect=fixed;shadow=0;sketch=0;fillColor=#e51400;strokeColor=#B20000;fontColor=#ffffff;" vertex="1" parent="1">
          <mxGeometry x="118.5" y="215" width="44" height="45" as="geometry" />
        </mxCell>
        <mxCell id="AngJpRZp7Zyhj1QqLnKg-45" value="" style="shape=image;verticalLabelPosition=bottom;labelBackgroundColor=#ffffff;verticalAlign=top;aspect=fixed;imageAspect=0;image=data:image/png,iVBORw0KGgoAAAANSUhEUgAAAW4AAAByCAYAAABzwTvbAAAABHNCSVQICAgIfAhkiAAAABl0RVh0U29mdHdhcmUAZ25vbWUtc2NyZWVuc2hvdO8Dvz4AAAAmdEVYdENyZWF0aW9uIFRpbWUAdmllIDI4IG1heSAyMDIxIDE1OjM3OjI1xoVWwgAAIABJREFUeJztvXd4Fde1v//OnH7Ue5cAiSIwHQSiY2NsejM2GBtjE2xjJ7aTGyf5xck3994kN3Gc68QlsUncHXcwvZnee+8IBJIQKkf1HJ1+Zub3hyRUkCi2uUH2fp+H5+FMXXvvmc9ee+2tWZKmaRoCgUAgaDPI/24DBAKBQHBzCOEWCASCNoYQboFAIGhjCOEWCASCNoYQboFAIGhjCOEWCASCNoYQboFAIGhjCOEWCASCNoYQboFAIGhjCOEWCASCNoYQboFAIGhjCOEWCASCNoYQboFAIGhjCOH+3qOheVxoivhIpEDQVtD/uw1ojiu3lEkrHFS1oCO64DBemxNNf93/vV3fOTQn/hWvUfXuSnyXHGi6MPT9xxP67NNY063/busEAsE1kG7H73GrGjQxS/HxryVFrEuK55+DzFj+XYYpOXzyh4WcMgVhqNsk6eK569HpZEdIN3UpNX8dLy6Emc/dTbubHfeoJax+cyuxj06nrwU8xxby96LBPDc64QaHUC58bz1J2T+OojZv/dC+hP3974R0NtX+1hzs/GAhrnsfYVRc06srlzby2vZYnrzPxOKXthE3bw6Dir5ssKWZnTdUtPx1vLwziWdmdMV4ZauGfe8nvOcazQ9HRIthouB7zy31uO1eld+vt7HpfA0AI9ODeWFUDKGma796sgRI9UKocWKPjY8J5/UB/0bRBtB8ePTdeegn4+n0Db1+OXko8+dC6NdRIc2H1+PFWxfeUH0+nF4fN9wD531B1bvHrhZtAPtB7C8vwvLGg+hlQAqmczos2HeJEeNTGz0wPnL2niCoYxYmvYWJ8+PRh0koeY1saWLnjXVsmt+L0+tDabY94PPi9vpvtIQCwXeaWyrcv19vY+O5miu/6///4ri4G75GzaVy/uu4jnnTw+hYL5aKn817yvnnGQ8VioQ13ML0QVHcn6hDRmPvpgLes0YysKKapUV+qhSZHj1j+E2WhXBAdbr5ZE8Vqy56KVNAZzEzZXgMP0jRgauGX35cjmlkCr9Jl29Qbr4GspnwsFt18Wuhouzbjt/XmsxraMd34K2aiT5SAiQie/Um5s2DnB2dStc6N1hz57A7N4mBY4ORgKDwEEDD9X9TCIHge80tFe56T/vqbTcm3JrbycvrnbQbmsTU8HoJVTm4o5g/2IJ5aUYcPSxQcNbGT1aUoH8gkfvCwOlROHLeQb9x8Xw+Roe/vIrnvijj43bJPBUrQUDDkhjOHwdbSDFpFJ0qYe7GKgY+HEV3k4nRvcLQRUs3JdqaI4cVCzdz1iMjqUbaj5zE5C4u1ry5iUBXM/mnbTickDh4IjMGxmOo2ss/FqlMf2wg1uOLePNsFGnOi+RVOXAF92LmrKG0N3q4sGMVKw6V4FE1tJCuTJ05nAzjtSzxU3xgDZ9vzcOlSZiS+nPfpP6kmBtKo9qd1ylMDapLg8jac6TgTAambGXXSReZvaxIaNiPHaKo81AyzYBawpoFW4mZcx+Z17isWnGSpct2kmMPoCl6kodPZWafyJsMfWjYz25h4cbTlPk0VCmS7KlTGWbZz5uLYNrcbGJlQLWx4e1NBD84nSypgI1LN3LcAbJmIHnIeCZ1C8Wbt4OPV57EIckoumiGTplIVowIxAhuf267yckraAHWbirjQGI073bRN7zcATdLTmvcMy6cHpZaYUnpFMXDp/JZdNbP1P61RQpLD+ehBB06QBcZRHZEJccqNIiVkMOsTL3i7UrEp1nJ2Ozkog+6mw2M7BfeulnOo/zr5dwrMW45vDez5w7GsHczFztO5ydDwpH81RTXmECrxuu8SIE8lyefjEXvPMfnC5azpcNc7tL5cbsVfJqG2efh0kUP4596hClmD4c/eYMNJ/sxt7eBiIwhzMmOJUSnUrT+bZYc6Ut6/9arTS3Zzcc7DEx44mk6WnzkrfuAjzYk8Py4FGoHLDL6jHQk+SSa2spFwjMwNBEwE136d2T5xuNU9cwiQqtg/0EXvSal1D5Amg+PuyF00xqSOY7+Ex9mcqQJyX2S9xfsIbfnGDKahZ2U8+t46aWtTTpO1e3AMKDOmuhMxs8eRqxVxn9+FS9vzWHgAx3p5P+c3YVZTEzRESg4yH59Bk9avJxcvJHqrBk8k25G8hey4p0NHOswmpoNx4mbNI+5SToCdhuV+ls2vhIIvlVuqXCPTA9uEiqp33Z9NAqO2/hrWRD//UAQkY33eBXKAjoyQxq/ZDLxITIVzgBqXZFCzDKN9UAv1016AprLw5KDdraVBnBpgBrgvGrgztaErBFSUI8WYtwarsQ4XBs2sd7clYz2aaRFmZAUQE6id6+YWqEPak+/jqtYd9HNnelNrkpoemfaWyTARFxcME6HBzCiVJ1h3eateCQZpdyBo5PrGrFsDXvuBfyd7ybdWnutlL5dMX+cS6maQkKdFkvZDxKcsRb7WV8LBTRhnD4Dk6npZkO73vRyLWefrR+j/Ic5KPdgbvxNeqeSh0t7trGhSkUnuyisNlLT0uqh9Lt5/pFejeYzNCq2v8c/nbV1JfnLOLBpO6UBCZ23FIc3Go+USf+scF7bd5F7k5PJ2ZdL8oARhGmFrD1bTal/FR/tr72aW5aI85lITJTZsWkrkb3ak94hhTirEG5B2+CWCvcLo2IArpqcvB6+smr+e5fChAlxZDUTEMmkI1qvcNmhQWhD+KTIoRKRqLuBYbfGzh3FvK1E89akYBJ0oNZU88MPv0l0VsKaOYFn4wo4cy6P/V+uZ3mnaTw9pMXb09JEnaRrsFyqO1BznWDx8lL6zZ9Kr2CJql0f8lYNdRO3WpOjG9S8qRK2KEWGTEJ+NhP3Ux80i3VLSJ0eIfzBjlefJ8cxoI+ef+7LIzVwhoh+j3D1QppmtjSxU+XSliXsNN7Hj2bGYVBy+fzP+1uy7tpolexYshnXqLnMTjejFW3if1eChkRY936033qQ42U1HCrK4K4pdQ+PHMuASVPp33xm+95HebwglzMXzrBkwzoSJjzCxA7XjEMJBLcFtzSgF2qSeXFcHHufSWfvM+m8OC7uuitK8Ht4e10Vap9Y5iW0cKzewuQu8NWuKg7VusvknynngxITEzoZb6hAOllCA/QSoAbYe7iGk/XLGBQ/m/ZXsc1+M6skNWpKS3CHpNIzayhTRmfgvFiMVwPUQg4cKsUHaDXn2ZdjIb2d+cbi55qKquow6GVQKjl2sqhutYUZq9FOWWXtL4PZhL+yEpcmEdqhPYYzR8h1aaB5KTh4Enf79rVx30ZIPecT8VDnhsU7AJZuhPxqLsZmnWXdGUT26k3U8WV8kZNIdregFsvQYMvVdiqKiqw3oEPDdeE0Z1tyt69bJxqqAgaDHgk/l0/kYKsfKZnSGdyljHWf7sLVsy+pOkBOoEtaCbv2luAD0LzYLl6mSvFgK6rBnNyZAcPuZkpPiQsFNTe+Mkcg+Ddy28W4fUUOltsUbKUFDN7RdJ+kM/H4jCR+MDiBn+8u46VP8ygLQHCElanj4phWF7cOMukIMzVaESLJhJhkgowgITFgYAyTNpQz591yTCYDA3oHMSTIS5AONK+Xrw5XY4oIZUhoswlKyYgpcJyP/nqRK9qmj+fO2VPIKD3C4i9X4kLDrwTTf/xwLJIN5DgSfdtZ8DcbdpdMytCJDI+VkaoMmM06jJKEbDBiNRrq7iWhN5oxGfRIQV0ZM/gMny14i43BEXRKTCXYqAc5kr6D4lnwwasUDJ3F/AH9yd62kD/9pYDp8+9h5qDVfP6PN/CioY/ry4NTUrh69aIZ49z/ImTvHOzH3SAFYZr3n4R0aVG1ay0LzmRIp60ss/SjyWGSEZPZiEknYchobMu4JnY+OeRuUj/9jJdPWQlLSiMjyX9lruDKpQwmgkxXd8B6owlLwAByBNn3duP9xW/xiiWYuPQU2lkMdQ+yjpS+XZH2XWZgn4jaa0gWuk+YTMniZbz8qoZRlrG2G8T0lBDKT6zj08U1qAQImDswZnrErVtFJBB8i9yWf4DznUEpYMkrW4h9fBaDgm9PSdBy36fs0Vfwd/spsa89iL5N/1Wqhn3/J7yen8VPp2Yggh6C7yq3ncf9nUIyYDIbMd7GYih1eIjIvyQTSBnZxkUb0DycOeOh750dhGgLvtMIj1sgEAjaGOKvDQQCgaCNIYRbIBAI2hhCuAUCgaCNIYRbIBAI2hhCuAUCgaCNIYRbIBAI2hhCuAUCgaCNIYRbIBAI2hhCuAUCgaCNIYRbIBAI2hhCuAUCgaCNIYRbIBAI2hhCuAUCgaCNcRsKt8LqlXnMP+jj6oyIKpvX5vHLnBtIDvl1UL0s+LiA14v/bz+YqLkc/OSdEja1kALyuigu/uefuQx8PZfB9f/+fpGpX5TyUaHCLaqp24PrtpfGno35zDvo/27Xg+B7x+33PW5Nw+lVOLCzhFejk/iPVLlJVhKnT6XGp6HRSj7Fb4SKw6Pi+zoC+g3QAioOr4rza6mLisNvYPb9yTwVW1sjaiDAseNlvLCilKAHE5gc8q2aextx/fZyeRXsXvVrpCTTqNj3BW9svEzgyjYFt91Hlxk/YU731jMFfW0COXzy0jbi5s3hzuhv5lP5y06yesVm9uXZUQ0WwhM7M+LeO+kXb2zxvdGq9rJgkcr9jw0k8gZfrPpzpj82kCithNVvbiX20en0bZ7b81tBpfrcDpasPcDZcj86k5Wo1DsYde8QukXc+g/JNynrbZAT5ZYKt92r8vv1tquSBV837yQSvTqb2Le+lNXT4xn7nRWeW4Os19OzZySTTxSy47LK5M634cDqtkcisv/9vNC/YYv/0kZe+cxNdsdblKZB34GJ8+PRh32z9tJqTvHp2xtQR97Hzx9OIFj2Yju9j605JfSKT7kqXRyApvjxuBV8N+ER1Z/j1wDNh9fjxavcGpfKe2E9bywqY8ADP2BWu2D0qov8Qzs5eL6SzH7Rtzx00KSs33Xh/v16GxvP1Vz5Xf//F8fFXffc0JQofhpRzI/XVJExJZxOrVhqL67m1e3V7KxS0WQ9XTuH8+zAYFJ1oDrt/ORzDwMHyGw56CTXCfHpkfxnfx2rNpeztjSA22jm/rti+UGy7kp2dW+Fgxf3VbOjUsFrMHJnVjTPZBqxAPazJTyUY+KpCDfvnPAS2S+Jv/fWU5hTwV/2O8nzAzoDI7NjeLKDvoUK1rDlVfGnHXYOOyEkxMzEnoamQ3k1wK795Sw47cUJyEFWHhkZxdgbdYVqb9PUy7zmNRUOHyzjr8c8VCiA0cCQvrVlNtqr+eEiL6OH6Niyz8l5pwqhVmYNj+b++LrRkOJn855y/nnGQ4UiYQ23MH1QFPcn6pDR2LupgPeskQysqGZpkZ8qRaZHzxh+k2UhHPBV1vD65ko2V6poSETFh/D0iAj6W8FebOet/Xa2FQdwqRAUHcIzd0cyIkS6UtBrtVdLFVNww23VCKWETUtPkDT2B3Qy36o3V0dQ+Df1UlRK9mwlt+NYfpGVUJcb1URM5hCmfXMD/z1oDg5sOkbcvfMZ0c5a+8zJVlL7jiL1323bv4lbKtz1nvbV264v3CDRqW8cT5UU8qvtJt4aYSG02RGq3c6vllcTPTyBLzsZMLg9fLC6mOe26fjXCAtmv4rd6WSZLY5XHowmyuviD5+V8GSRhTn3JrEkRuLC/ss8ttXOnTMjSK+9KltOevn1uGR+FgaVhVX8YmUxrwcn83yKjN+rUH6xmnWxsbwyx0KCAex5Np7drvLo5BQmREj47DX815ISPgpP4pHIZjZXVvPCagfJdyayvM7mD78q4axS78VpnNhTzG+Lg3l5RhxdjFB+sYwfrqogaWYUPW9gVKgpCsePV7DMZeHpZPm61+xWXMlvjsr89P40hlrBVe1mQ4lGADDW1eFHF6L50/Qo2htUco6W8twKG1EPxjHKqnJwRzF/sAXz0ow4elig4KyNn6woQf9AIveFgdOjcOS8g37j4vl8jA5/eRXPfVHGx+2SeSpGYcXmMk6nJvL5FCNmVeHUeSeVdfEJb0Ai/Y5Y5o41EiYp7NhYyG93mRkwOqhOmK/VXlcLrD2v7IbbqgGF4h0r2RN1Fz/uYkFCw352Cws3nqbMp6FKkWRPncrwJAMolRxeuZQ159zIOj2RPe9h1mATR5Z/xY4CJ4qqYs64k0fGdyG0ei8LFpaTFlzI0aoO3PdYN3Le3krMnOn0dp9k6bKd5NgDaIqe5OFTmdknElmt5OCyZWwqDKDTNIK63MWDd7Un6Eo/5uFiXjXtB6bSYjAnUMLuZVfbEgKgVnBw6Yeczq+iRosme/JkRrWzoFW0bMs1UR2cXLeS9Rc8yJKGJX04D9zVAf3xRbx5NpKEslNcir+L+ePjOLdmGavPONAwENN7NA+MaEeTFK3KZc4XxtN1hqVVZ1eryWXtonUcrAiAHModd09kfNcwpKraOu4QWcGZYjvVvihGzpzK4JgKtn2yggPVKhoK9pIqOjzwY2bFn7uhsnqLDvDlyiPYVBlNjiR74lj6G0/y2Wf7KFI00FyUlkQw8fmHyA759jv62y/G3RhJz9i7Yjj+RSm/O5XEHzObDojyz9g5EhPOl50MmAEsZh7KDmH5cgf7hlgYCiAbGd/LSowMWCxkx8FOcxj3xcjIQLtUC3H7fRSokC4BSPTpHcmdYbUZ3iOTwnmik51fnvbwbIoVADk0hB/0tZAgAyhsPVJDRM9kxkXUNpAxNIhZ6ZW8dN7Hw5FNM5ZfzKnhTHw4f2hk86ysYJZeqgvUBtwsPK4yZkIYXeq0PCotjPH7i9hQEknPxBYeAs3Pp4vzWCqDqmi4/BCbEsoTkyO4J+j61+ymgaqqVHtVVKuMNczChLDa41QAycikASG0NwDIdOweydTjhazKU7iro4clpzXuGRdOD0utbSmdonj4VD6LzvqZ2r/2EQtLD+ehBB06QBcZRHZEJccqNIgBVdPw+1ScCph1OjI7NnTRMckhTLryS0f/9iYC+/zYNOq8rWu1V3Of++baqh61fD+L9gQz9onMK4Jiis5k/OxhxFpl/OdX8fLWHAbOzMS5ZxnLnf155rluhOGmpNSLXqenXfYk+kwJxYiD7e98yu7STtyt9+PKz0eZ+wg/SzMjKQUcc9eGGyRzHP0nPszkSBOS+yTvL9hDbs8xtM/bzRpHb557qgdWPJTZfBibPBIeXB4TQZZWggdyUCu2gGq7jG/Co/x4ihlP3nr+tnArGc/dQ7tWbOnQ8h0AjaqDq9iiH8GTT8Zj1DycXPwx6y6mcY/Pw6XcGu5+8kkeCJGo2vsxK2v68dRzXQlTy9jy/icsjX+cWZmNup2AB7dmIaiuoFrVUT79ZA+X/V4C7cfw0/FJnFi5irzOM/nZwCjkqmN88PZK9ibPJEvx48ovhHGP8KMEPVW7P+Qv2y8yYFoGQ2c9xlDAV7CRN9aaGdXZiOS9gbIGCli7PJ/MmXOYGSKjlu9kwYojdJrdlxlP9ABUSrd/xMeO4fS9BaINt1i4R6YHNwmV1G+7GSSzlefuDeXppSV8EB1PzJU9GmVOBUuIvoknrgvWExvwYvPWb5EJbfQM6GUIMcsNL6gMOhWUKzeUiQ9pPCEqEReqx1Og4Ko/xSwTesXDUSiu0bh00sb83Ib7KH4I6twsXIFGhatlm+PkWuHWvAFKvArHthZxvNG75/bIDGhthk0yMGNK3eSkqnDySCm/OKERXVeO611TnxzB//St4K01l3jTK9MuwcrEfuHcHVV3sKwnoXGzSXriQ2CrU0X1KpQFdGQ2eUBr67DCGUCte8RCzDKNBwt6GVQNNEnPxDtjse0qZ/77AQg20a9TGI/2sBAjg8Pm4KPDTo5VqygSqG4fHr3xptqrofpvpq3qz6li97LdGEfOoc+VRpeQ/GUc2LSd0oCEzluKwxuNR/Nz8Xw56VldqA1TW4iLt4BaQ03uTtZvdqLJUFVWQ3yNBuEgx3SmT4r5ak9S8nBpzzY2VKnoZBeF1UZqNJAjE4izHWDVdujaPo2MpLBmMWszVrOXS24VaHl41qotsV3JSqv1ai0pvehhWsK5cpV2IS3b0jp+ck/nU+nbyeef1dWxS0eIJwBIhHa8gy4hMuDnQo6N9lmda+tLjqJ/ryi2nC1CyWzXYL3ejEVy4/RroJeQwnswc34P1NJtvLrejaoWcSYvhn6To2qftvBM+qesY19+gKwEkGMyuCOutpZCYqPRnXHip078fPmsWVlEn/tmkqADrZV6b4xqy+FUeQUVq5ZwHAAfqq4dbg3CJVCKd/LFiRSmPZZ6y5JW31LhfmFUrcw2n5y8WUwxEfz3IC+Prymj9xURlogO0uG+FKAaiK7bqjgClOj1xJgA/9cwWlMpsqtoNMS8i+0BzFYdVsDR/HhJR2yQRHr7WF7vob/OJIlElFWHu7AFm+uC3JJJR6zJQO87E5kX3dp1roGso2uvGObmX+KlPUF8ONyC9brX1NG9Zwyv9ATVH+DoMRu/WFFJ/MNR3AGgBrjsAMLrDlcDXLZDVIaMbNIRrVe47NBo6M1UihwqEYm6G5o0MoYHMX9MEPPRqC538eaaYn5vSOUvmX7eXV3OuR6JvDTKiFUCd04J4w40Ovk67SVJcCUd9k21Ve21qg6tZoM2iKf6hDWIq1bJjiWbcY2ay+x0M1rRJv53JWhIyDI0z78dOLeRj88k8MNH7iVS5+fQR3/nXP1OSW7BDpVLW5aw03gfP5oZh0HJ5fM/7689PLwXjz6ZzPmcXM7tWsgyd2/mPdynYaWDZCYtLYyvzhTg63p1tvtr2kJL827XsKXxYZJE065PR7vBE3mwc2OJ0XAdAEnXWs234p3qEklPLOHUOQ9Z3VsKl2i1bdyac9usjqV6OzUPOWvXYes3jfHR8o2XFZAiMhl//yCim+8IFLF+WS5dJs0ipaVZ4G+JWzoZG2qSeXFcHHufSWfvM+m8OC7uBlaUtExi1xheSPKyoajh4UjtHErPsipeP+PHDQRcHt7f5UDqFEL/r90laRw+XMH6KhUNjfJLlSw4IzE609xK76ljePcgCg+Ws7RUQQG0QIDDJ6tYVnz1+r60jiF0KW1q8wf7aiivL5beyuRMjaXbqzjsqt0YcHn56kA1+9w3WARJz7gh4YSdKufTMu261ywvsLMw14dDA9mgJy1ch0nVGrxazcfi3XZyvICmcupIOYs9Vsal6ZD0FiZ3ga92VXHIpQEq+WfK+aDExIROLYcemqD4WHfIweGa2jcvLMxAggkUTUNDQidpIEnoJVA9Hj497m62vv/a7RUdrKP0spuLgZtvK81xgiUbvAyb0JeoxgXRNFQFDAY9En4un8jBpgLoadcpjgsHTlKpApqb0pJqAqqCKhswyKDZz3A0T7nu8kRFUZH1BnRouC6c5myd26fYSylRIujYM4sxkwaTVJJPU9Nl4gcMIe3sSj4/UIJLBVQvpae2sWhbPv5r2KKWnmJfvgcNDc+lIxz1ppIRJbdqCyYzppoKyv0AZqxGO2WVCmCgQ6dYzu05RrkCoOIqyafQ2bzUetplRJN78AzVKhAoY//hMjp0TGg6VpBC6DOiK0WrlrAlr6buuVRwVTvwIoGcSOe0UvYfqiAAqNWn2JcfR5eUa4mAhitnPSsdWUzrG37lOb2Rssox6WQ4j7Ajz1Nbd/5qLuZX4sdP3sY1XLhjHCPjG0qg2Iu4UOb9GktSW+f2i3FLEsEmmRBj865MR/awOB6vKOaMoTaeKYWG8tvxGn/dXsSULSqaTkdmp2j+km3BCqgGmRCzTHCjp8Bq0hFqahhaS3qZUItMXfSaEIuBSb3M7F9/ib9UKgSMJu4aFl83yQcGk45gk47GCwvCOsTwqlLBK+sv8YZDQ9LLpCWHMi/tatmSI8L43b0qf9p+mfGbNUJCLUzpH0ZWuZcgGUCi16AEfrm/nL9+lkehHwwmAz06hfOjFnsOmRCLTIihaX3po8J4rmcNvzvhYfZwyzWvabFIFB4uZc6W2uVOequZqaMj6CXX+VCyhckd/Lz2RR5nnBqmcCuPjIvmTmvt/fsMTuDnu8t46dM8ygIQHGFl6rg4ptXFyYNMOsIa1TmSTIhJJsgIkiwTrrp5c0kll30aSDIp7WN4PlOPLOt5eFQEf9h0mckHJIKDzUzrHERSrlw7P3AD7dW1ZxRjCm3MebOKoaNT+H2nG20rjeoTBzhWVcKFd15lc6P6jsl+gNn3duPDxW/xiiWYuPQU2lkM6JEI7jueSbZl/POVnch6I9G9RzNj4DDGHl3M3/92iOCINNp1CEcxgKQzYDbruNJ0khGT2YhJpyNtyN2kfvoZL5+yEpaURkaSHwOgugrZtmo5l30Sqh9iho2jU7OIiBTcjZmPaaxasZA/rHDg1/SEpd7BqLHxmGNat8Wa2g7zgc/4y7IanGoEA6dNoZ1OhlZskYK6MKzrPj793wVkzZjLoEHxLPjgVQqGzmL+kAlMK1/OO6/uRTZK6EI6cu+UFKKMRqxGQ92zIBHRbzzjSpfy5itbQJOJ7DGeGZlXT6ua00czf+p2lq18m/+s8IMsYwyJ544R2egkMz3Gj+Xywi/4824VCKLLmElkhUlIVU3rWDIasZqMyGo5W786QpmvmHff2APIRPebxIM3VNYfMHZGPxYue4c/BQzoJSOJA8cwLfIYq7eXUha3mFcOgyRZ6THhfrqeW8n75SN4YVpGi0sxvw6S1nxcJxA0Qi2vZPZnXmbPi2f0LRz6CQSCG0f8ZYZAIBC0MYRwC66NQSbUoiNEPCkCwW2DCJUIBAJBG0P4UQKBQNDGEMItEAgEbQwh3AKBQNDGEMItEAgEbQwh3AKBQNDGEMItEAgEbQwh3AKBQNDGEMItEAgEbQwh3AKBQNDGEMItEAgEbQwh3AKBQNDGuP2+x43CmpX5/Geuhq7hA84Eh5kY2TuKH95h4uaSn7WExtm9hcw/F8TfZkTQ5d/UfXlzS7nvqJnS8cMHAAAaCElEQVS3J4US+62mptPYs7GAt8ITWNDHIHpngeA7xu0n3JpGjRd6DE3lzV516aU0lcKCan63ppg/W1P4TQe51SxFN4ZEasdIfh5noN31VE3z8+mXl8npm8qv2327iT8Vn4rdq+L5Vq9ai8urYPeq18y6oVSf46uFq7iQOZv5g8Kv1Kn38n6+WLKLC26QNBNJ/e/h/mFpDZnEm+EvOcjnX2wjx6liCOvMuPvvoVekDtRyNryxgPV2K+b69JXhfZgzbxgpLdS75ipg+5pN7DpfhsOjEdxhEDOmDSTNLAEq5cfW8NHaM1QGZII7DOXBKX1IMGh4io+yes0eThTbcSsmUrLGMWtUB66kwfRXcHjNYpY5snj+we40TyHcUJAWjvOfZ/EbKzjm1urqUsPrcNPxgf/g0e6NPviv2jmzdT1rD+VT7vIjhXdkzH3jGRCnB83J2Q1LWLS/FK9kJjlrDDOaZzInQNmJrSzdfIJL1R78hhj6jp3CpG5hyHX7lm85SX6VG78+mj5jpzD5jnDRKX9PuaXCbfeq/H697aqckzedvkySSUoNZ24nO7+64CHQwfqNM0mYI6yMjriRIzVqvCo1vusf2ZZQbfv45weH0YVoeHwBrqTsU0vZvGgPpjFz+VWGFbyFrH7rS9akPMW0Di0kn1WLWf/5XqxjH+c36SYcx5fy+pcHSJ2bRSQBfGoCo5+Yw8jI63V6Gu7CAhxpd/HU5CSCqeHoordZuKsjPx4ZjVS5n0/XeRj++LP0DPFybuX7fLQlkZ+Miqb4oo3oYTP4RYdQdO48lv5jKes7Pc2UNB0ol/nqn4s4bbXg1/woreUmbO04QzpTnnmWKfVWuk7ywWsH6JjaNB2RZi8kT+nM9PmTSTCrlO39gtdWHSVzTm/0J9bwRX46c/9jFvFaCRvf/4yFkXN5pGdQgylqJRcKTWTPfJLMSAP+om288d4GTnScSnd9JbmFJgbMeII5kQb8xdt4492NnOg0le63Khut4Lbmlgr379fbmmR5r///i+Pivt4FtcbvnEZBTgV/2e8kzw/oDIzMjuHJDvraQvl9rNxRxjs5Plw6HantwphktPMvOYYPB5lwni1h1lkrH4wPIQIovVjBiztrOOvR0GQdnTpG8OMMH79dWc1Zl0pgUz5jt0F8t3gWdPXw7GIfd2VJfLWnhvyYKD4aF0TlmSreOVrDoSqVADIp7SP41cgQ2usAFI4cKuevh11cVmWiY4J5JLGpP6w43Xy4rYKll/x4kIlPCuHxIeFkh7Qses4yB3/bVsVuh4aETEZmFD/vZ+G6GgnIkd2YNb837r3v8VHjHWoVNncyfdpba+valMAdHXSsrvCidbBepXlq0UmOmXvzeIfaJK6hXQfSc8NXHLf3Z1jI9e1oQMLacRBjr/wOpnPHOBaeq0IjiuqTJ3HecS/dQ2XAQvqQXpg/OEXRnSNpN3AU7epPsyTTJTnA9ooApOlAF8Og2Y8zsnwTf9p4jdvf0HEqtv27yO80gplhTWtCCs9k9F31v2SiOrYnakcF1ZqK88wlkrMmEm8AiGPwgHjWHziLs0fvBq9bjqH/6IZE2sa4dDpYLlDl0SA0hqzG+2IzSLeco8ypwVUp/gTfB27pSKve077etuuiaRQXVPHOOYmhGWYMgD2vjGe3Bxh5bwqLZqfyyYQQiraX8FEFgMqebcW8bDPzy1lprH4smf+X4uWj4z6qPCoq4Pcq2D0qXg3wOXl1nYt2I5NZ9lgay2bGMjkM/NER/OPRRB6KlBk8MpVVc9N4Z6AJnV/F7qjh03wjP5yexspxIUQCbk3P3cOTWDKvHWsfiaWPrYxXTtcmY7WdtvGzQyrjJ6Syem4q/xikZ+sJT0MiesXHBytK2BgUwT8ebcfqRxN5PNjJ/1tRxWnl6ipRa2r47bIqlJ4JfDY7lUUzY+ldaON3JwNcnfa2BXRWQqwtNL8ugc4JxRw8UVWbeLXmAvtzg+iUZm7RUQ2Ul+GOim4IS8iRxEVUUVJeZ4Xm5Oz6T3jpz6/w21c/YdVZx43Zh8LlwjKi4qKQUbGVVhEdF3nlgZVCoolylWFrXjdqFZeKTcTF1I/JDAQHm27gQb+B43wX2bJXY9CQ9rWJo31n+Ncf32Vz+dUl8hZdpioqpq4T1ZpkftdUFX+ZjTJNpXjzW/zXonMNz0Fd2avOHiLHmkHH4KtrXXMVU+iNJL6FfYLvB7dfjBsAjeO7LjFmH6BquPwa+nArD4xM4NE0GVDYeqSGiJ7JjIuofXiNoUHMSq/kpfM+Hg7xsyJH495xEfS11u5P6hjJrNM1vN7i7TQUTcPlVvEiYzYZGXaHsd6UlpGMTMsOpXtQ/QaZO7qENuw3mhicpGNjhR8F2H7KTVz3JKZEy8hAUHQo87rZ2XK+9vBAiYOl1Raem2olRgegJ3tgBIPfK2d1SThdEpu+pIVnqtkbE86XHfS1YSODkam9LPzrsIuqbjfl6jYrVwi97uzGzn+8xq9XhSA7awjNfohnoluSNI2Az4/e2DhwpcNoUPD5autElgMY293J09PikIt38NaHK9j/9AyyWhlF1BMo2cOK04mMfDIcCQWfT8VgaGyDAaPOjy8ADXEzlcrD69hjGcj8pG/bJ9GoOryTk4nZ/LS+LgxpjJ4Rijmi2b18BazbUMwd48YTJMmkdknli+27ycsYSqpWwJbTVYQooQQ0mZg+Y5ntjap7Ef3krHqPz46UU1FjJWvWo8RdlcPYxcm1O3BmTaeTyAH6veWWCvfI9OAmoZL6bddH4o7s5LrJSQ3bpUp+udaNPliHCUBTKK7RuHTSxvzchrMUPwR1BtWnUK7o6RraWBxkEkJ10IL3iimIn9wb4O/7i7h/s0ZklIXhPcKZ1d5AqyFESUdYk2TUGnnnq/j4tIc8T63a11QrBDJq7S1zQWyIvolHFxfa8Ft1Bqi0GIhrHEbW6UmwKFx0Nr+5RqkjgL+0mp8tdDSKkyoEB5vxfZOcRv4LLPvyIt2feJ5nEs3gK2PPFwtZeGI2D3WtZuN7S9hfraHJVnpMeohRRgMBX2N/UcHn12EyAnIMdz3xNLKhbmVLUhZD0/ZwOE+hX8JRPvh4N8UBkEztGDdnDHfUdbKaM4cvPz5MwoQ5dA+SAAmjUcbna+zZ+vEpBkxXxEvDk7eZdzfpGTO3zw2Fi24KpYjtO6vpM61LwyStZCa2XULT49Qq9n+xhJwuU3i6Q+3TY+16Lw+WrWTR3/9GIDSFwSN6EmfzYJFAF5pI+ysnG+g4dh6/Ggv+iuN8+t4itsY9wvCo+hsGKNqxkMXVWcybHEcLMw6C7wm3VLhfGFUbl2s+OXlzSMQkR/D/9XQzb3M1w6dH0FGnIzZIIr19LK/30F89vA34idYHyK/W4Ip4qxRWK2gt9hsSManh/CY1HFSVgoIq/nNNKdL9ScwJB1kCVWttVqvu6lXV/NdXLgZMSeDn8TIyGvs35fM7AElHtBW22gOoGK/YW2xvCGvIQXoi3H6KA5BZ31soAS67dcQENb+bREyIHnNCGH8ZG8xVu9E4LcHXSUqnll3kgrUzdyfUhUaM0fTtHsm63FLUO9px12Pzuavx8Zejsey2YdfSiZAAtZyiigjiompLqTc0dgtl9LraupSj+jDnR32uNiBQwqaPVlOZ/SA/6FQfU5eJiYugvLQClXhkQLPbsAXFEFNXmWrFET764gLdZjxMn/BvW7U1XKd2ciB0IM8mX0MuNQ/n137OV7o7eWpUMlf6dclK+vDp/GR47U9/zgq2x3e8YntLGCK70DtpDfuLFIZH6QENx6lVvH8ghunz+jft4AXfO25pjDvUJPPiuDj2PpPO3mfSeXFc3M2vKAFAokOvKCb6q3ntZAAVHcO7B1F4sJylpQoKoAUCHD5ZxbJiFfQWJnSSWLuzgl01GmgqF0+X82lRy9KrVjv57LibQj8gyyREGgiXNRQVkPSkhsGJXCdFLXnrV0yU0KMhybWV6ipzsPCCUhdp0TEk04LtWAULbbUxdoetmrdO+K8MAPRxIUwKc/POLhclCqAE2LGrku3BIYyNu9rq5E6hdC+q5JWzfpwaoKkU5Nt576wPBYgO1lF62c3FwE3WdFg0URXnOFFRd6Lq4OTpEiJjIlp8WOT4rnT3HmHzBTcaKlUndnMstCt3hErgv8T2tXs4U+lHA3ylB9mel0jXtFb8Bc3B0cULOZg0gYcHRDfyKCXCMzMJOr6LY3YVNBfnth8m0K0r8TJo7oss+2gH5jH3Mzr5FiyzUCvYve0ymUO706RP0DyU5hVhVwEUbPsX82l+V2ZP69boOJXy4zvYdt6BAiiOXFavu0xmVgeMgGIv4kKZF9WTx7b1B8m119a7Yj/H0YIQEurCMv7LO3h3pZPhD42ms1XEtr/v3IbJglXWrCxgXftk/txV10Roqy/YmLdPz/9MjyBD0sjLqeCVfTUcd2hIepm05FDmDQmnfxAQ8LFqexlvnfVSLevISI9gnFTJP7QYFo+04G60qiTc42HRrkoW5/lwqIBeT79e0fxHDxNBgL+qhj9/Vc5am4o5MZI374Q/LfIyc3YsQ/UNduccL+MP+92UIhEZE8KUMBdL9NG1E5qoHD1k4+VDbi4pErFxITzeIcDL58y8VfcHOIrTzftbyllSGMCDRHxSKE8MDWdwK/HgmlI7f9tRzRabQkCSiIq2Mi07imnxMprDyUurbKywwdDRKfy+U9O69J1dy6vLzlDjrMZOMBHBUWTPeIhRSVB1ehOffXWSsoAEqkx452HcP+YOYlrRW3/xQT5buI2cGhVDRBcm3H8PPSNk0DwU7NvAip05FDkDYIkna9wkxnYOabETUAs38MfXd+EMD21Y923txown7yJdV7uO+19rz1DllwnOGMasKb2J12tU7HiX362yERpuuSL2pozR/HByFyw1x/n47Y3kupxUuPVEhFpJGf4gc7IimtSH5mj9OK1kK39bbuSBxwYS29hw3xn+9b87SXr8EUaGX+DTP/yLg1I4IXUrPSQ5gkEPzmKo7gTLl2/laIkb1RhNj7snMLlnFHpUije/w5vlI3hhagKXdq5n5d5cSl0Kmj6czJETuC8rDiMeDnz4v3x43kxUUN0IRtKROuIhZvcL+4Z/0yBoi9yGwn2r0Ni5Po9XrAl8PMgk4oMCgaDN8p39w6vCc5W8fdJDUd28mb2kmk8uyAxMMwrRFggEbZrbdDngNyciwoBnTzk/2uWnWtGQTSaGZcfxRJIYWAoEgrbN9yhUIhAIBN8NvrOhEoFAIPiuIoRbIBAI2hhCuAUCgaCNIYRbIBAI2hhCuAUCgaCNIYRbIBAI2hhCuAUCgaCNIYRbIBAI2hhCuAUCgaCNIYRbIBAI2hjfe+H2eQMUOFQUTcP5jVLHfH00t4tXVlVx4saSMQoEgu85t61wqy4PizYX8fA7Fxj8Wi7D/pnPvNUVrLapraaBbDjZy4KPC3i9uO5ILcCixReZuNndkJTV7+XzVQVM+qiYP+x1cuRIEfe8Z2PntZIlfAP8l8qYuOAyX9ib79E4cbCcPaFmOty2rSEQCG4nbsuvA6pOJ79bWMr+sDCeuieKPhE6JK+fQznVvLu6gqhZ0WRd89usKg6PWpewFpB0DM6KJsZkulLgS8fLeKMmhLcfCaeDDjSPiVfjZbreom++6mNCeX6kQkazPGNqjYP3Lll5fooZy625dQOKjS3vfkHZyCeYlq6rzcC+YQmL9pfilcwkZ41hxoh2NE8ernkK2frlcjbnu8EYRe8xkxifGVabQsxziU0Ll7PtkgeM0fSbMIWxHYObfdxfo/LYCj7cWkpAF8Ww+yfSL7I26XPh7q0Udx5B3wjx1UaB4Ea5pcJt96r8fr3tqpyT105fprJndxkbgyJ4d2I47esPteoYnWVmdNbXsUQiPimY+Cu/NXJLfcQkRZNWJ9SS2Uif+FZO/xaQTEaGdrp6u2y28uxYHSm3IONWU1Rse1azJrearoM1QMN1Yg1f5Kcz9z9mEa+VsPH9z1gYOZdHegY1Et4AueuWcDB6Ej+bmYyh4jDvv7OEHXGzGRrp59zapRxLnMovHkpAV36Ad99bzeEn76N3UCMhVvLYtFVj1A8eI6NgNa9vyaXnlAz0lYdYeVTH+P5CtAWCm+GWCvfv19uaZHmv//+L4+JaP0nxsC5XZcDw0AbRbgHV6eaTPVWsuuilTAGdxcyU4TH8IEXXQionjb2bCngrLIE3u/t56ZNS1tpVXHIRY0/W31fFHRPFp1PDSJSgsrCKv+6ws7tSBYOOzh0jeH5QMEmea9834HDx7tYKlhX68UgyCYkhzB8eyQC1mh8u8vHQ7BgG6WrTlH24rYKll/x4kIlPCuHxIeFkh0i1oZ7PbHh6huI4Wc3eygBug4lxw2J5psPVyZE1Vw2//Lgc08gUfpMut5jKSqs8xJJj8WR3LqG6tgbJP3OJ5KyJxBsA4hg8IJ71B87i7NG7wetWbZzKDWXA3CQsEhDVnWEdN7H8WAWDh1Rx8GwMQ3+UUJsYN6onw9rvYOc5H717mhruXVNKiTWRu40SxqQkQjeUUK0mU7rpCOEjHiJRZLYQCG6KWyrc9Z721dtaF27V5afQp6dP5HW8sICGJTGcPw62kGLSKDpVwtyNVQx8OIruLRzu9ChUm1U0g5Wfz04ja/VF3gxP4OPs2jRmvnMl3L1XxUVtxvYXVtiJGhrPl5lGLD4fW8/4cKrXua/m5e3lJWxJjOXNx4JIkhVO5dRQ4tdAVbG7FWpUAB8frChhU2Is/3jUSgwBdu0s5v+tgNfuj6CLpOJw+1h93M/vxibzq2AoOlnCo5sqGZgWw8BmQieZTIzuFYYuWmo5/6BWzd4VR4i7dyapO45yrGEHjT/Hrqkq/jIbZRpNwyVaXeLkunMUNYCtpBy1pooyYzSDr4wWdMTEhlBuq0YltqGD0clIWm2SZE1T0WQZrWgPGxy9eaijCYFAcHO02ekwOczK1C4WUkwAEvFpVjJcPi76rnfm9cnLcXAiJpxnMo0ESSCbjIzoEUwXw7XvGyh2sMphZe6gIJL0gKwjs3MYI5rFbwMlDpZWW3hsoJUYHaDTkz0wgsE1DlaX1AupRP9eEWQHS7X3aR9EZ5+PC84WDNYZGNkvnGFhLfra2I+sY3f4SEanGRoJu0xql1QKdu4mz62hufLZcrqKECVAoPHsrxxDZoad3Vtzcaga3uID7C8yog8EUH0+/HoDjaM8BoMev69pI0jWJJK9F8lxqjjP5+JICCVnYy7pw2I5uehDXl3wAR9uK8AtUnoIBDfELfW4R6YHNwmV1G+7FrLVQJIhQG6FBtGte92qy8OSg3a2lQZwaYAa4Lxq4M5vvKROo8KpYAzR05IOXuu+qluhyqwn9jq1qjoDVFoMxDX2nHV6EiwKF68Is0youcEASa5tLOUmy6c5T7Nsl5l75rTDTOMlMxLWrvfyYNlKFv39bwRCUxg8oidxNk9tSOQKejrcPY1By1fz+l+/wprQnXuykskvtCAbjRgCDhrLtM8XwGBqFrCX47lzTCJffP4h+8ztuLvrRTZ4srmvaBNLYsbw9FQDuz9YzPbOs7k7ts36EgLB/xm3VLhfGBUDcNXk5DXRmbmrg8wLR+1czAinXYvvscbOHcW8rUTz1qRgEnSg1lTzww9dV46QJA31a3lwEjEherwX/JRrkNBExK59XzlIT5Tbz2U/dL9GBEAO0hPh9lMcgMx6jVMCXHbriAlq/bybR8N97iTnK/O58PprgIbPUYP3wpssGPEA8wbHkD58Oj8ZXnu0P2cF2+M7EtOsziVTAoPve4zBAKhc+uotYpJj0QVrxPguUOKDZDOAQmmpg+hOYc2GchLWdkN45LEhoNpY//ZX9J2WgXv7NuK7RaCTJdISFbaUqyCEWyC4Lrf0LQk1ybw4Lo69z6Sz95l0XhwXd50VJbUmZWdHM7KmkmeWV7Dmsh+bW8FW6WH9vhIe+sDGzgDoZAkN0EuAGmDv4RpO1juUkp64IJWTBV4cX0O8kzuG0Luiir8e92JXQfX62HKshpzr3FcfF8KECDdvb6shzweoCqfO2tlW3fT6+rgQJoW5eWeXixIFUALs2FXJ9uAQxsZ9jRUWip9N+6vYZm9eWAlrz2n85pc/5tfPP8Ovn3+a+7oE033qkzwxOIrK4zvYdt6BAiiOXFavu0xmVgeMgGIv4kKZF01zcnr7Tk5U+NFQcRXsZPmpOAZ1syLpUujdqYztu4rwAn7bIbZeTKJ3emtLZDQcRzdzInk4AyNlwkL1lJe70DQvtnIICxWiLRDcCLflOm45KIhf35/Al3sr+deaan7r1JBNetKTgpgxJoJsvYQ2MIZJG8qZ8245JpOBAb2DGBLkJUgHSAbGZ4ezc10R9x438ezMBNqZdYSZGlZcGPQSJl3DZJ6kl7DoJUyAHBrKbydqvLa9hOk7FTSDgV6ZkfxYlki/1n1lI4+Mj0faVsEz79mokXSkpYbydDIgyYRadATLgM7I7PFxaFvKmfdOKR4k4pNC+e/x4XTRAapMiEXG31j/dDIhJpngFlpM83r56nA1pohQhoS2MkFZW0qMpiAsRgmQCY0Nxbb8A377mRvVGE2Pu6cxOc0AqNgOruT98hG8MK09cVEeFv3rb3zmCKAPz2DU9DF0tUiAgYzRE+m+cAl//KMHjDH0nzSFHtZWLFAK2bRbx4iHkzAgEdN/GAmffMorB0CXOJSHE4VwCwQ3wvc2y7umaHglCfMVrdDwKRJGsTTt1qF5qbJrhIWZr9G5CASC6/G9FW6BQCBoq4ixqUAgELQxhHALBAJBG0MIt0AgELQxhHALBAJBG0MIt0AgELQxhHALBAJBG0MIt0AgELQxhHALBAJBG0MIt0AgELQxhHALBAJBG0MIt0AgELQx/n+UUC66e18FRgAAAABJRU5ErkJggg==;" vertex="1" parent="1">
          <mxGeometry x="727" y="701" width="330" height="102.79" as="geometry" />
        </mxCell>
        <mxCell id="AngJpRZp7Zyhj1QqLnKg-48" style="rounded=0;orthogonalLoop=1;jettySize=auto;html=1;exitX=0;exitY=0.5;exitDx=0;exitDy=0;entryX=0;entryY=0.75;entryDx=0;entryDy=0;fontColor=#006600;edgeStyle=elbowEdgeStyle;" edge="1" parent="1" source="AngJpRZp7Zyhj1QqLnKg-46" target="AngJpRZp7Zyhj1QqLnKg-45">
          <mxGeometry relative="1" as="geometry">
            <Array as="points">
              <mxPoint x="687" y="727" />
            </Array>
          </mxGeometry>
        </mxCell>
        <mxCell id="AngJpRZp7Zyhj1QqLnKg-46" value="&lt;font color=&quot;#4D4D4D&quot;&gt;LA CALIFICACIÓN DEL SISTEMA ES APRECIABLE EN EL DETALLE DE CADA FORMULARIO&lt;br&gt;&lt;/font&gt;" style="text;html=1;strokeColor=none;fillColor=none;align=center;verticalAlign=middle;whiteSpace=wrap;rounded=0;shadow=1;sketch=0;fontColor=#006600;" vertex="1" parent="1">
          <mxGeometry x="741" y="674" width="310" height="20" as="geometry" />
        </mxCell>
        <mxCell id="AngJpRZp7Zyhj1QqLnKg-49" value="" style="shape=image;verticalLabelPosition=bottom;labelBackgroundColor=#ffffff;verticalAlign=top;aspect=fixed;imageAspect=0;image=data:image/png,iVBORw0KGgoAAAANSUhEUgAAAHYAAAAvCAYAAAA2Jj4uAAAESklEQVR4nO2b3VMbVRiH+/fRjvWmeuPonRdOAlJcoOCGGiS1k8qHUL4yxhZnWkexUWgqTIvaCdqOtCPSSoI0tPIxgZDdPedsClOS8vOiUigl+5VMstk9F89MMkneeed99pzznpPdY4wx7KGq+68ZY1CZ+sr7w6ganxlCLfL3nIIcM/Klw8I59seQWKMUPYI51up+xMArqVhd+MgvG+UVaxJV1V7jq5VyzGy2FsvhYjlcrDvgYovAzrsALvYoYQ7o3rlYh8LFOhQuljGwKt0va63xXKxDsZ1YSjJIra5geS0NiZQyNgFjy8jSx1CZXNKciZTG6vIKVtYzUGxQQxuJJVibj+FqqBctLT54BREeQURtaxDnv4oitpgGtRw7gS1yDnn5FCDV/M9J7MrN2CG/I2s1Lk1j4bcohrqDaGh8ka9H8KHe34eLo9N4mCIuF0vXMTs+jKaXxXkdb3MQ/bcWsWkytkrHsSO/eUDoYY5jV+7FFlVMxaWb/+CnUBB1BfL1CCJqz4YQebBexAVZ1WIzeDh2Eac1CuQRRHg/EuFpDKBn6rHxqY7eQE4+oSF1Xy7kbmwxaiyusoSJ/sDLWUUz79Z+ROKS+8TKiSjam/ULtF+oYUw8MSLgX2wrbxuQuscJPFemDZwkUSzdHNK9EA9Sd+EG4oqrxGZwd8TYlb+PD23XEvqjlo4gLx03IbYGkFqxrTdqlXlcDfhM5CvC03gO4XsZF4kl87jyqckiCSLqum4iSbViU6ikyaTUGkA6hR2iLYAkJxFoMpevR/BBHI2XvVuunFjpDwycMVskEV7/NfypObUpyCrvWxD7BvLkiWbOyuwozmg0eYWoD89Aco1Y+R6GW80XqbbjB8wd3t++cmhPkCUfWBB7Ejmyqi32QQQfWxDbcPk+ZNeIpUlELrSZLtKHAzGs6cRWSTt2TYt9F890tj107Ta6TDR7L2hDILoE4hqxjGBh7AvNveDr+NH186qBveEEcmabJ7kHT3UvxhVM9vlNNXzepl5EFstzWHHwPnBLYkv1fyVNzSDkN95A1Z3/EX9ljMSWkSVeE6P2LeRI0lDOm3MRnDXcQPnQMnIfqQoMnIqfPG3MjSFgYK31toUQXTCz2U9gW3nH0Nr6XJkycTeEhPjEMAQDa21D53XMpitT14qLZYwhnfgFQ5+1F5jifBA6v8PtJSsH90lsKfXYLTgtv4ccuWPhFhcJj2LfokP0HZmzt7Edn1z6FfHNytXUFmIZY2BKCn/fmcI3X19Gd+8ggn1hDF6JYnImiQ3NfaseFCqNYVvpRE4WkJdPI6904BkZx1Na3MEB2XiEu7eu49KXYXT2DOLzgRGEv5/CdCJV8X957CPWiVTw3iku1qFwsQ6Fi3UoXKxD4WJLiJ2eDOBiHQoX61C4WIdSVWL3nnC301pmV6pKLIeLdT1crEPhYkuAHR+U5mIdChdrI0rZ7XOxDoWLdSj/AX+76JbBMLWdAAAAAElFTkSuQmCC;" vertex="1" parent="1">
          <mxGeometry x="884" y="777" width="56.45" height="22.49" as="geometry" />
        </mxCell>
        <mxCell id="AngJpRZp7Zyhj1QqLnKg-55" value="&lt;div&gt;&lt;font style=&quot;font-size: 12px&quot; color=&quot;#4D4D4D&quot;&gt;&lt;b&gt;INDICADORES DE CALIFICACIÓN DEL SEMÁFORO&lt;/b&gt;&lt;/font&gt;&lt;/div&gt;&lt;div align=&quot;left&quot;&gt;&lt;font style=&quot;font-size: 12px&quot; color=&quot;#4D4D4D&quot;&gt;&lt;br&gt;&lt;/font&gt;&lt;/div&gt;&lt;div align=&quot;left&quot;&gt;&lt;ul&gt;&lt;li&gt;&lt;font style=&quot;font-size: 12px&quot; color=&quot;#4D4D4D&quot;&gt;SON ESTABLECIDOS POR TIPO DE FORMULARIO A REGISTRAR (RURALES O INDÍGENAS).&lt;/font&gt;&lt;/li&gt;&lt;li style=&quot;font-size: 12px&quot;&gt;&lt;font style=&quot;font-size: 12px&quot; color=&quot;#4D4D4D&quot;&gt;&lt;br&gt;&lt;/font&gt;&lt;/li&gt;&lt;li&gt;&lt;font style=&quot;font-size: 12px&quot; color=&quot;#4D4D4D&quot;&gt;LA CALIFICACIÓN FINAL ES ESTABLECIDO MEDIANTE CÁLCULOS UTILIZANDO LA REGLA DE TRES, ESTABLECIENDO UNA PUNTUACIÓN MÁXIMA EQUIVALENTE A LA CALIFICACIÓN ASIGNADA EJ: 100% = 40%; O &lt;b&gt;Porcentaje Total = Valor Asignado&lt;/b&gt;&lt;/font&gt;&lt;font style=&quot;font-size: 12px&quot; color=&quot;#4D4D4D&quot;&gt;.&lt;/font&gt;&lt;/li&gt;&lt;li&gt;&lt;br&gt;&lt;/li&gt;&lt;li&gt;&lt;font color=&quot;#4D4D4D&quot;&gt;LA CALIFICACIÓN OBTENIDA (DE 0 A 100) ES ASIGNADA AL FORMULARIO JUNTO AL COLOR DEL SEMÁFORO QUE CORRESPONDA SEGÚN SU RANGO&lt;/font&gt;&lt;br&gt;&lt;/li&gt;&lt;/ul&gt;&lt;/div&gt;" style="text;html=1;strokeColor=none;fillColor=none;align=center;verticalAlign=middle;whiteSpace=wrap;rounded=0;shadow=1;sketch=0;fontColor=#006600;" vertex="1" parent="1">
          <mxGeometry x="12" y="321" width="459.25" height="197" as="geometry" />
        </mxCell>
        <mxCell id="AngJpRZp7Zyhj1QqLnKg-56" value="" style="shape=image;verticalLabelPosition=bottom;labelBackgroundColor=#ffffff;verticalAlign=top;aspect=fixed;imageAspect=0;image=data:image/png,iVBORw0KGgoAAAANSUhEUgAAAocAAADHCAYAAABr0/mnAAAABHNCSVQICAgIfAhkiAAAABl0RVh0U29mdHdhcmUAZ25vbWUtc2NyZWVuc2hvdO8Dvz4AAAAmdEVYdENyZWF0aW9uIFRpbWUAdmllIDI4IG1heSAyMDIxIDE1OjQ4OjU0FIA81QAAIABJREFUeJzs3U9oG/ne7/l3PxwkDVjcAhkeWTyH1MrRZWyuQIYr+zKkzsbWA3Y/uu2Gq6QXqWwSLeLG087CcS+iLNrWIg6i7YWSzaksjqOBdhDtLBRtjrJ4bN2ZFqNn7IXsVYU+SLrgAj3IFyQNTGYh2ZH83/nffb4vjs85qfr9q5/U5NO/X1X5i9evX7/mkF9//Rt//OM/HT4shBBC/ObJ33Hi791Z/wz8w0ccixBCCCGE+MxJOBRCCCGEEAckHAohhBBCiAMSDoUQQgghxIE/HD7wxRdffIpxCCGEEEKIj+SY55EP/OHXX//2EYcihBBCCCE+tdPy3xeHX2Wzv3L4yy+/fNhRCSGEEJ+I3+//1EMQ4pPYz3mnrRzKPYdCCCGEEOKAhEMhhBBCCHFAwqEQQgghhDjwOw+HDRqfeghCCCGEEL8hFwyHDXa313mxtsbai3W2d9uHay+Y0UYYm8t+1DDW2FxhbmqGxfXdoyfNFfSR/8KX0XVqH24E1Mw82RdrrK29IJvfZvc9TcD20jU0TccwP6+2Pj6TFV1jZGKRTQBKZOenmJpbZfut2nvX+kIIIcTv25H3HJ6otolx5w7LeevNMVsfVx/9xEzfHnt7TWq1Bk3A/v7HefyQdl6S2chzqf8mMyO9HWdKrC48Zqf/Nn++O4LzQ3ReyrI4t8DTLav7uOsKP/xlkbHeY2ud217NYm/PhvUeku37bOvja2DV9mjWau2QX2b95QYbNRivTXL5wh/uu9bvtrtu8DgLmq4z4nm3toQQQojPwTnD4S4volMs5/dw+a9z9/YEKibrqwY7FtD3Qcd4ot7JH0kP17B7DicxJ/7bS/ykDuL5EEm1scni1B2evrJxafwuM1eHUZ1NrJ111lbz7O0B7xgOxUn8zPyURseJ562C3bvW71beWOXZsybNMQmHQgghfh/Ot61cyvDk5R70jHL3wRTaoIo6qHEtahDVjk9fDXON+VsTjAwNMTQ0wpgeZXW7vedae8Hc2BgzxirRyRGGtCjrpSyLU9cYGxliaGiIkTGd+WxpvzXMtSj62AhDQ0Nok1OsbDcgv8iNGzeIvnizrVzKLjI1OcHXN27w5ZjGtRmDfHvFrLE+z8TYLZbWVpib1FptXZsne8yu9Gl2M8usvoKeK/d4FJ1k5LIHj0dlULvG3NIik2pHX6uLXNOGGJl6zv+9GkWfaPU7NKQxObPC5v5qnvmC6LX9Mc2x9urQ/nRtk5W5jvmZuMX8C/P4bfwz28pjzEyitT+biVtLHLczz24eY6pdbmQMfT7LLiaGPsbYNeNgW3bb0Bkb01kxAUqs3hpjIrrKi0W9NV5tkuiLbTZXZpjUWm3dWsq3VwI7y99qlR+ZYMrYPOF2gBLP577hxq3HB9vMF+2vu/5p83HC2Fa2aQDbxi3urJYBi8zMGBN6a05O/e4LIYQQn7lzhcPGZh4TsPlHGT7PakttnYVb93m2aUO7fZfvrvuxbT1n4dsF1htAYw/Lsni5vECm2c/woIpjJ0u+2c/4zD1+uHeV/sYWz6KPWW9AY3OZqfvP2bH5uXr7NhOeEhtbNRo1C8sqY1nN9jgXmbrzlHzTz/W7d7mtuTBfLjMTfcEuQNPCsvI8uf+YbY/G6EAPezvPWHi8edrVHJ4NtjY2adLDyKRGL1AzN8nn862fTbMVQvb7WljFUofxq/8v/2dmB5d2k3s//MB3o05evXzI4loJKLESvc/zHegfvcqoa5NMfq+jz11ezE3xMFOib/Q77n53lcFmnmffz/D4yI1zZ7e1NjfD8oad0Xs/8uMP4zg3n3Dn+zW68+Eua99Psbxh4Rm/zXdX/bC1zitqWJaFZZXYb3WvVMayLMo1gBqlXYvy8wXuZ+z4NT+uvVc8//4bbjw2UbUrXLJZ5J8ssmoeKp+F4clR+m1lNpbnOP5jqVEqWVglqx323qK/rvqnzUdn2w38o8P0UWZj+SGZXXD1DzOg2gAbfYNXGNb6cZ313RdCCCE+c+faVq7t7dEEepzOc91P2FhfJWPBpevzzOuXgXHU8hjfZjbIbMHIpXbBvq9YWpnD3w6cKxpAg1rNz17mKVsbZco12FrNUMbFePQBM3476Hqrn2x3v1trGV7hYvzuPFMjdpjsx9q8wdONDPnGGNpBt4uszPmxl1YoffmQrVcmNQa77k3c3cxycDuhawBtcH+fuEmt1gRcuJx2oMb64g2+39iv2c/tn1a4ul/1yj3+sjjW3mX+r+0JqrHbm+dp5hllswy7JpmtJvTf5sH8NTxcxz/zNd+/3B/MS55u7MHAd8xHr+EBRp0mY/c3yGa2mbp8uWPgG2e29XxjD5t/nEm/ipNJRvufsbyZZasxwcFC8O5LVvNNGJjhx+gkvcC1KYBNDk378Wx+Zv78iElPjTXrT9zP9zG+aBD1O9lcnODG0xI7JUB9U/7unx8x0QulvhJfPtxiPWsyM3iezt6iv4P5Om0++g+13WCdMb59XmKzDBMjOvrGKi93mgzqc8z5ofFi5vTvvvxSBiGEEJ+5c4VDZ08PNqBp7VKDMx/wsKwyTcCj7t+EZcfT5wLK1Gpvlk9sqp/+/cZ211m6v8jqxiv2ulqrUbIsYID+vtOiaY1S2QL6UQ9uNOxD9QDlPfY69ihdal8r5Dqd7Wtp0ui6rhKZxTs83Gr/ceA7fjZaoQycuJw9gEWpVINBJ9r8z/xs1cgufMPDfKNrO7TPP9gOhg22V++z8DjLVnulE8AFYJlYgE31tPvopdfVca3l9nmPyv6MOj19OIG9WvdsndmWZVICmvmHfPPlwzfHbYems91nj9r3drdP2vro8wA4cbpsgBPV1Zphp8sJWNDsLu9qd+TxeLCxxV7NAno+TH/7zjMfB23bcTqdQPP4tjjPd/9jPa4lhBBCvJ1zhUP7oB+Vl+zkn5EpjTF5cON9jVrDeSQs2pytI5Zl0YpcDSxrj1awOu4vxwbry3M82XAy/uAnZoZdrM+NtVe7bDhtNsDCtIATb/q34XS2ypUs2itEFqVdwNaD60IPH3iYXPoZbT/lOV1d3Q5e8dOTecnGk1W2NZ3LTg8eZw2X7XDC6lBaZWEhg+n/jj//ZQK1bKDfeNIKwnYXTqBsWewCvTSo7TU4SCjO/fPl9nmo7ba2Rfs8ru5+zmqrfd668gMvFsdODvrtPq2yddBnl8YejQZgr3W3/7aaNWrtf/PYtUqtlWqPCz70y5FOnY9tznfDQce/8Fz4uy+EEEJ8Xs73tLJngpujT7iTybNwQ2dzXEOlRD6boXntJx5d6S7e67/CgC3P1tMFlvquMriX5XHGgr6vGBuA4540aG3V2rDZwMqv8nxrf2nGzoDmx/Zyg+cLUdSrfpr5VfL98zzoCop2Bq746clskFmaZ1AfgbzRenBkdAL/Bf9etjs9Jz7N6hyb4ubTDR5uLXPr2iYTEyOoNpPMzgnLSQC19j1uNju2PZP11Sxl2quVqh9/H+zkDRYM8JfWeJzZ42AtUx3Gf2m5dX6lh0mPxeryS5r0M6Gp3f2ct62NJyyu9TLZb6NZ3mHT6ufq5OCbda2Ddpa5v9Rk1GOSWa1xdeU2qscG+XWWFwzyzQyrne2/reZLFm5FKY87yT/ZAvoY8avwod9GeOp8nB14W6uSZfIrBqulQa6c9d0XQgghPnPnfAm2E+3eI+59NYCrtsXzJ8ssP3nGpl3jK38vYGstHLX/B88k0Xvj9DfyPPn+DncWnlPqG+Xug5l2SDtUHjuafpOBnlc8+/Zrvr6zhq3/0kHvvRN3uTd+CdvOcx7ev89ytona+YK6dqLpHbvH/NUB7FvPuH/nDvef7uAcvs3iXa07uhwkIFv7Pxdd9VK59ujP3PvKj7P8kqfLCyw8fEre6qHPrzHSuZi339flSW6O9tHcWOCbr2/wsKzSf1BukJt3r9LfU+bl8gLLL53o14dbo7IBXOb2/F2uXLJ4+fB7vr3zkJe1fsZ/eMBV9fDYztlWn8nz+7e48c0Nbt1ZYs08HGwHuTl/G7+rxsaTBe4vrGL2+VHpZfT2Vfp79th5vszTvAv9amf7dpz21nXvX7qt/d/7C6u2/cJdW7f9DDo3WH74lA2rh4HrUW4OHtfeWX8+q7/D5U+bj2PatnV9cVFHrzLsgvLLZRaMdawzv/tCCCHE5+2L169fv+468MUXAPzyyy8nVKmxW6qB00Vv1zbZcfdTNdgtWTRtLjy9R88dLd9q2+7y4LRDowH2ri52KVng8vS+qXlstzVKVg3bkTEeV/5d7wNrtLZ4mzacnt7uEHpM041aCavhxNPrPFqgUaNkNY6206G2W6LWtHXPwbHDOrutxm4Jq2nD6erl5B3P1vU17Ifmst3+SeM4fOknT/s2S5Pf8MQa58dslMHdEg27h95Dgz6rvfP3d8J5Tp6PI20f/l7SYHe3ht3ZWe+0774Q4lPz++XpMPH3aT/nHYp/3WUuHg6FeJ+6w+HIpx6OEOLvgoRD8ffqPOHw/L8+T4gPwsPI5FfUrJEjb5kRQgghxMcnK4dCCCH+7sjKofh7da6Vw19//dvHGo8QQgghhPgMnJb//vDHP/7TRxyKEEIIIYT41E7Lf+d8lY0QQgghhPh7IOFQCCGEEEIckHAohBBCCCEOSDgUQgghhBAHJBx+Mg0an3oIQgghulWLZNNZitVPPZAPpJ4l4lXR0+96gRWyiQRp830M6l2YJDQ34VT94lXrFQrZFMlkiux5P3AzTkAJ8TbdnXus7e9godI1WCq5NEkjSSpbpHO0lVyKZDJ95DtbLyaJJ4tvM9Dzh8OauUk+n2fTrB1ztsHuduv8dqkdeWp5lmammDHyHzgE1Sht5snnN9nePa6nXcz2+dJxQz+z+RfMjWmMzWVpAI3NFeamZlhc3z212qnlzBX0kf/Cl9F13mZIQgghPoxCLMSf/vlPhGKFTzaGesFgNpHlbeObmZollq4cc6ZObnaaXChJIqi8yxChXiQZj5MsvlVKeo/qVKtVqvULjqOaJuLzEpxOkEzGmdZUgslzzHi9Tr1e5+2u+jxjNUmEAvzpn/9EJGm2j1VI6V684SjJdJJY2Ic3aGAClWSIQCSFWYgTDEyT22+6nmM2HMNU1bca6Tl/Q8o6C/q3ZPYAXIw/+pmo/83vi61l7/P1nQx7AAPf8bNxDU9pnezLDV5Zw1i6H89bDe8cNh9z68ZTygA9V/hhbZGxg9/L2yA/f4Nbz8oA9F39C2szly/WfmMPy9rDqtVoAo2dl2Q28lzqv8nMSO+J1WonliuxuvCYnf7b/PnuyIm/91gIIcTHlsNI1vmX61dIpwwKsTi+TzCKejFJPKGhRzTeJsIVUwkSSojZoPvQGQfe6TQ51Y3jXQfp0EgU325V6nNgGlEMIuQKsdZnXK9Qqb9jYH4PqqlpYvUwt/6zwf6/ntSzUSIpL4limrAbqCTQ1Fmi6RDBZI5A1GQ2ZEI6RLIIAV+V7LRONpgkF3i7T/qcK4dNaAIuFy4ssisbHSteu2RXs+y5+nDZgGaTJsDlKYz0z6QfXftwwRCABk2gx+XCtrfBs0zHSl1jg9VMGZvLRc/+dbyj3skfSf+cxpg6PWSeXM6J//YSPy3pXLYfW1UIIcQnUM8apAgxG4ugVVIYuTfnKulZgl43iuLGF4pTaK/QZKcDRJJZEnoAVVFw+8IkCh0rQ3WT1HQQr1tBcXvRppOYB6s7RYyIhtet4FYDhOM5/h8jjDadpVGME/L6CExnW6tUlSyxcKsPxe1FixgUjixAVUlFfERS/84rI4zX50NPVfcvgFjIh8/nRVUD6EbhYPWrbqaYDvpQ3W5UX4hYtgIUiAfDxNMGEU1tXXc40dFngXhQI5Y7rQ2o5hLomhe30rpGPZ47ZkW0QEwLMJ3tuCDTIOzTSR2zmGemplufhdtLcDaLeXgWcnHCARW34kb1hYnnTlgRrFep7nfpcOPez4bVAolIEJ+qoChuvMFZssctxJoJQoFpsgcHKhjhAJH0m+s4a6zd48kyO10kFJ/F15HpCqk0VU0ntJ/13SH0QJVsehMOViEdONp1qulpIgUdI+p7638JuNg9h64rjPpt7G2ssb6fDksvWc036buiMdBZtvaChRs3uLGwfrCtXNtcYe7aGCNDQ4xo15hbM9vbtmPMGKtEJ0cY0qKsA6XsIlOTGkNDQwyNaFybMcifsgfrHB5luKdJfi1Dab+/7Brrez1oo8OHVugamC/m0cdGGBoaYmTsGnOr2+1x1sgbU0yMDDE0MsHU4zxdG8P5RW7cuEH0xe6bttaiB21pk1OsbDeOKbd/TRN8feMGX451X1NjfZ6JsVssra0w175u7do82dN3r4UQQrwXdbJGCkJhAu4gulYlabSDGVmiuoESK1CtFklO+1D2/yKuFDD0COlAnGwxR8JXYDo0S67dZm42SKQQJFmsUi0aBHMRQvECUCcd0ZguBknkTArpKL5igf8vFCMx7cOuhoinkiRnAzgoEgsGSRAhVTQxszF8uQjBSPpQ0FIIRpPMBv4D/xiMkUwmiQUVoEgsGCbljZOrVjHTOpXZUDuMFYgGdbLeGNlikWw8iJkrUqdOsZBiNpLEG01TyMbwZqeJGObBfBULhfZ9bie0YRqEglEqYYOCaZIzQpjRIGHjcNLy4lNNjMSb6zFTCVKOAL7Di3lmnHA4iWM2TbGQRK/EMf6t45ayikE4mECZzWJWTbKzEA8eDZlqeJYQjwj6QsRS3ffwUSlS9U2TLFSomGn0agI9luOIqkmxYHbUrVIpFjD3E+dZY+1SpxCdJq3FiXat9tUxzQqKW+0Iem7cqoNq5X8SCHrJxaMYiShGNUhISRGZNokY3QHzoi74QIqH0dFBbM0NnrdTi5lZZat5idEJP10LYY09rLKFZbW2Y6llWbjzkIzZw/D129wcdbK5YdJo7GFZFi+XF8g0+xkeVHFsLjJ15yn5pp/rd+9yW3NhvlxmJvqCE7OSU2NipAe2npMxAXbJPttgz6Uxrh2KhpvLTH3/jHL/TR78+IDb/RaZhTssbzZorC8yt7xB2eXnq0k/tUyGV511axaWVcaymm/auv+cHZufq7dvM+EpsbFVO6bcGdfUtLCsPE/uP2bbozE60MPezjMWHm9e7CMSQghxcfUsRlohpAcAhaCuUU8ZtBazHECdStGkioJX01A7qrr1BMlIANXtJRSbxldJkyq02kwkq4SiEbyOOnWHDz0SoJjKYtbTGCkIR2fRVAW3N8hsIoJPUfGqCjhUVK8X1e2AXIJEUSOa0PG5FRRviFgs1DG+NxxuL6obHG4Vn9eL2wEUDAxTY3o2gFKvgxomolVJp4qQM0hWNKKxIKqioGoRErNaO4g4CMVTTGteVJ9OJKRQzB2zlXxCG5VUnJx3lkQkgFtRULVZYrpC1jgcah1oegglbdB6TsYklSwQiIS65hnATCUpeKeJ6z7cbh9hI8l0xzacmUyQ9U23ttTr4A5NE1KypA5nO3eIZGGDhFYlHv6PqD6dg1v8vGFmI0G8igOH4iMUUqkUzQvfZ3jWWLsLJ4gkVWKx4KFbCerU6+BwdCc9h8NBvV5HnU6TmlapEiSRnaYyPUtlOkHInCUcDBKKJCi8xc2r57zncJ8N15Vx/It58s9fsjsxwNraDly6zkS/jcen1Kytr5G14NL1eRanLgM6OsDuaqtA31csrczhd0J+foxXuBi/O8/UiB0m+7E2b/B0I0O+McbYsXNrwz8+Qk8mw9qaiT65zmq+ieurCfy2bFfJrbUMZfr4anKUfhXUyWGebDxnPWuiWRtY9DB690fmRuw0xl1c++ZJV0Dsams1QxkX49EHzPjtoOsANLKHyq1lTr0mjf1pWGRlzo+9tELpy4dsvTKpMSj3JgohxAdUTSdI1xXCuQSJHFB14P4fKYx0nWAoQCwVRdeDuONewrEEcd138Je4Q1HerOooblSqVKpAvYJZrVLQfWQ7/m73+tw4qhUqdTcB9eyx1SsmFUXF25EaHKqKu55r9XP41sLDKibmv2eZDfiIHhxU8UYcB227T1hl6gwliqJw3L7oSW2YxQqoalfAU70qZCtUoCsEObQIIUXDSFcJB1IYRY3p0NELq5gVUL0dl+w4WMXdP9/IRQn64h2NewkddzuhEkBPZAlH08wGQ+hhH4HcNGrdJBWdJpYqUKlDvVqBANThQtu0Z431jSrJ6RjVkEGgbmKaFar11ryaVR8OB9Tr3QmvXq23Pg8UfKEIPsA0guj1WdKhHJFAkXA6gTseJBwNUIxf7O7ZC4ZDoFdj1L/AxsYaz9e2ybyC/tsTqPbSqdVqVpkmNjz9x9+BaFP99DsBapTKFtCP6tlPgX2oHqC8x14NOCF4O/3jaD0ZnmdWWSPPFn18NeHH3nFHADTYLdeAJs/ufMmzjjM9/E92rRqg0t/u2+7y0AsnhMMaJcsCBujvO+0GwnNcU5tL7WtdntPZDoRNGiDhUAghPpgqaSOLwxuCQqH9IICC9z9B2khRDYVRAtOkihHMdJRwOMi0amJorb/pux4+rVapoBBQAIeCghs9WSQeONxlEgdVzAocWR47xOFQcNSrVDrTSaVCtfM+ucM6x+RQUP5DkEQhSfBwOEkrOKqtMPK2N6g5HMe3oTgcUKlS4U1+rZgVUNzHPGjjIxJ240skyZoGpjZ7bKBT3A4oVDgpEytuB3YtSi6tn/thHoc7SGxWIxEptLJvIkw4HSCbSxFQwIz78KZPqt1a2Ttu7s4a6xsmZtVBPakTSLZbrTb492KYYCXBkuqmWmxtXyvt8sViHVVXO5pIEIk5iGZ11GKEohok6FVxh3xU4kWq+C70cNNbvOfQiTbux8YWjxeeU2aA8VH1zFo2uxNoYpWts0ridNoAi9JBUYvSLmDrwXVaSrL7GdVcUF5l4ekO9GlMDB5zBU6AS1z/y7/yyy+/HPysTv2v2J10971XO+V1MzacttZYzVMv6x2uSQghxIdVSWGk3YQTBolE4uAnGQtB2iBdKZIrVAEHqhYioNTpXMh5ZUwTL1SBOoV4nJxbI+QFHAFCWpVUPMXBXXb1CkWzDkqAkK9CMp5snaubpOJJCrRX6yrFNw+uBEJopIkniq3MVy+SiKUgGEY7JpQ4HA6qlY574QIhNEeauPFma7ReKWJWgUCw1bbRarteyRI3chfbQj2hDTUUxJ2Lv3kgpJIilqyg6cFjw5I3EsGXi6HHTYJ66NgwowY0lJyBUai35jsxTfzfOtrQgrhzia6HgqrF4pv5b109uUSM5P6LBOtFDKOAI6DhZT/AelEVoF4glTKPv27Vi0qBVLp67FjOGusbPmazJmalQqVSoVIpEAvY+c/RHEUjxP8WCuLOxom1r6majhIvBtBDart+kbgeR4kZraeZFQVHxaQCVCtVHG7lwk+9v9VLsJ0j4wzboNlsYhuYQDvH48i9/mH6gR0jyvzqGqtLM1ybe3FM8LIzcMVPDxaZpXnWslnWFhdYfQU92gT+0xbosOOfGMZFk2YTLo2OczQb2um/4qeHVzxffkp2c5vN/DprKwbZkp2B4UFsWGQW51lZNZiZeczOKf0NaH5slHm+EGVlbQ0jqjO1cngV9V2uSQghxIdUTSfJqiH0QztvDk0npGQx/o88iZCKonpR3UFSvhjRjiW4fwyoZEMqiqIQMBxMGzFazxS40Q2DoBlBVVS8XhXFHWA221ou1I0EWkGnz6GgKD6iBQcKrS3WsCNJSFFwh9PUlRCJpE495kNR3LiVADFmSSWOD1ABXUdNX8WtKASNCjiCJJIR6lEvbreKV3Xj9kVImYASJm6EqMz+RxRFQfFGyNbb2+QOx+mrifvnT2hD0WIko26SmhvF7UZRI1RCSQz9hHU0NYweqPCqHkI/ssS5/5lEMfQ6sYCCoqjouRD6WEfZQIxU1E1CU3CrXlS3gjecoPt1jA4UR4Go1scXDgeO/8VHtB4maei4gUAkStCcxqt6Ub0RCm4vDjqnov3/lDDRqEr6v7pRFJVwNkj4ygXGek4OLYYxrWAEFBS3gjtcQEsaRNTW+WJMJ6HGSewvtfoizKpJQgENLQazs8EL9/nF69evX3cd+OILAH755ZeOo+vMad+SUdvvMKRGdm6CO5kmw/d+ZmmiF1gnqn3L8/0yu2vc+vI+m8M/8NfFMew0MFfnmFp8SbkJ2Fz4b//Io9GdQ+UAdllfvMP9p1u0Ftps9A3fJDqv4z+8yra5yMSNp9iu/4XVqcvQyDP/9S2eWf3cXllBV4HtRSa+eQpX/8zazOAx7YPNNczMoyUm+0xW79xiYcMCeugf1+nfXCbj+YEXS2PYsjP86c5L+u/+jDHpAUq8iE6x8PxV6z2PPf1cXXzE7Vr0ULnTr6lxuN3aC6bGvic/eI+fH01w8hsVhRBCXJTf779wnWqlQt2h4O64cSwVdjCr5ijGvO1VmuPfIVivVqjWHShu5dD5OtVKtbXV6jh8vI6jq3yrbP207eQ3HVKpO7rG+qa+cuh461ylPf63f9vfSW1UqVTqOI5c42FVUmGViCOFaWin73JXK1Q47jq6x8Kpc3XS3O+fOzz/bzmWM8d6TvXWvazKoe9EpVgE1Xfkns96tdpaRTzUzH7OOxT/usucLxwCNDhys9+RQ4cPHFenxq5Vw+7y4LSfUq5dtmTVsDld9DpPWV4719AaYD86lpJVA5sTT++hJ5p3S1h2F57j+j1uuI1dSha4PL2celmnXdOZ8ymEEOJ9eJtweJw34fBTvC77d6ZiEPRGUdMmicP3aIr35jzh8AIPpBwTUo4cOnzguDpOej2Hl/9OCEB2J54jZd92aMeP5aT27b2ek1/efdxw7b14Dlc4ttwp13TmfAohhPiceIMRdPdZjwuLc6mCNxJjWoLhJ3eBlUMhhBDi9+F9rRwK8VtznpXDt3ogRQghhBBC/D794ddf//apxyCEEEIIIT6i0/LfH/74x3/nRj6CAAAgAElEQVT6iEMRQgghhBCf2mn5T7aVhRBCCCHEAQmHQgghhBDigIRDIYQQQghx4ILhsMHu9jov1tZYe7HO9u6HGRRAY3OFuakZFtffTydntld7wdyYxthclsZFG3+XukIIIYQQn5HzvwS7tolx5w7LeevNMVsfVx/9xMzgu76s2WRtcYUddZLbk5exA7Wdl2Q28lzqv8nMyLv/8rgz22vsYVl7WLUaTS74+ul3qSuEEEII8Rk5Zzjc5UV0iuX8Hi7/de7enkDFZH3VYMc6u/aZaptknj5jY+Ay19vhsHfyR9LDNeye9/Nbhd93e0IIIYQQv0fn21YuZXjycg96Rrn7YAptUEUd1LgWNYhqrXWyhrnG/K0JRoaGGBoaYUyPsrrd3mStvWBubIwZ4wVLU60yI2O3WMrXoJYlem2RPMDOEt+MTTD3ogb5RW7cuEH0RWsbuLE+z8TYLZbWVpib1BgaGkK7Nk+2vUtcy0aZ0Np1WweYm9CYiLa3eg+1BzXyxhQTI0MMjUww9ThP14ZzKcvi1DXGRoYYGhpiZExnPls6X10hhBBCiN+oc4XDxmYeE7D5Rxk+7tcC19ZZuHWfZ5s2tNt3+e66H9vWcxa+XWC9QXvb1eLl8vesWv2MXrmEzcrzZHEV09mHf/gyLgCniv+KxrBqo1GzsKwyltVs9dG0sKw8T+4/ZtujMTrQw97OMxYeb7bHYFHeK2PttQNpw8Iq71G2Wlu9h9trrC8yt7xB2eXnq0k/tUyGV53XvJMl3+xnfOYeP9y7Sn9ji2fRx6w3zq4rhBBCCPFbda5t5dreHk2gx+k89n66xvoqGQsuXZ9nXr8MjKOWx/g2s0FmC0YutQv238b4s45q32Zx4huemjuY6ExMjZN5lqfcN8F3c5P0Ao3y8WPp+2qRlTk/9tIKpS8fsvXKpMbghS98K7OBRQ+jd39kbsROY9zFtW+eHIQ8uxZlRQNoUKv52cs8ZWujTLl2dl0hhBBCiN+qc4VDZ08PNqBp7VIDDi8eWlaZJuBRPe0jdjx9LqBMrfbm+V2bqw+XHcBJnxOwLv5sr0vtawVUp7M9jiYNLvoQSI1dqwao9HtaNe0uD73wJuDtrrN0f5HVjVfsXbSuEEIIIcRv1Lm2le2DflSgmX9GptR5pkatATZnK6ZZ1v7TKQ0saw9w4nJeLLY1L1T6qFqtHeX2atROLGXD7gSwKO0Puat8g/XlOZ5sNNEe/MRf//Wv/HDFds66QgghhBC/Xed7Wtkzwc3RJ9zJ5Fm4obM5rqFSIp/N0Lz2E4+GrzBgy7P1dIGlvqsM7mV5nLGg7yvGBuDM5GRz4rQB5hrGKowMjDN8wQtxqn24gJ3VRZZQ2Vl9ys6Jpe0MDA9iy+TJLM6jTnrIrzzuKl+rNQEbNhtY+VWebzXPXVcIIYQQ4rfqnC/BdqLde8S9rwZw1bZ4/mSZ5SfP2LRrfOXvBc8k0Xvj9DfyPPn+DncWnlPqG+Xugxn8dgAb2N78D+1DB5vBdj+Tk5ew7W3xbGGRVbNj/fDwwuPBn23t/7RbHNS5faUPW3mDJ8trWP7rjF/qOH+ofu/oXWaGXeztPOPhgkF58GZHeTuafpOBnlc8+/Zrvr6zhq3/0kETp9cVQgghhPjt+uL169evuw588QUAv/zyywlVauyWauB00Xtky7jBbsmiaXPh6T167nDSO3ykUdul1nDSu1/3SIHDTRxts7ZbomZ34TluO/uYmxMbuyWsk8q3r9Xu8uC0Q6MBdvt56wohhPhc+f3+Tz0EIT6J/Zx3KP51l7l4OBRCCCF+2yQcir9X5wmHF/zdykIIIYQQ4vdMwqEQQgghhDgg4VAIIYQQQhw48Z5DIYQQQgjx+3TaPYd/+PXXv33EoQghhBBCiE/ttPx34srhaYlSCCGE+K369de/8cc//tOnHoYQn4Q8rSyEEEIIIS5EwqEQQgghhDgg4VAIIYQQQhyQcCiEEEIIIQ5IOBRCCCGEEAckHAohhBBCiAMSDoUQQgghxAEJh0IIIYQQ4oCEQyGEEEIIcUDCoRBCCCGEOCDhUAghhBBCHJBwKIQQQgghDkg4FEIIIYQQByQcCiGEEEKIAxIOhRBCCCHEAQmHQgghhBDigIRDIYQQQghxQMKhEEIIIYQ48IeTTnzxxRcfcxxCCCGEEOIz8Idff/3bpx6DEEIIIYT4iE7Lf1+8fv36ddeB9orhL7/88mFHJYQQQnwifr//Uw9BiE9iP+cdin9d5J5DIYQQQghxQMKhEEIIIYQ4IOFQCCGEEEIckHAohBBCCCEOnPgqmzca7G5v8WrvuHM9XPJfpve8vdXyLEUNzEGded2PHaC0xtzUIplXe7hGH/DTvIbzvO0JIYQQQoj36hzhcIcnd27xtHzcuX5u/7SCrp6zt9I62ZcbvLKGsXQ/HhrkHy+SeQUDX91G8/dhO//YhRBCCCHEe3aOcNjP1QeP0PagsfmYO8t5bMPfMa9fxk4Pl9QL9HZ5CiM9ScPpaa821iiV94BhJqd0JmTJUAghhBDikzrHPYd2PJf9+P1+RlRX60jfZUb8fvx+O/n5W0xqIwwNDTGkTXBraZ1dgNoL5sbGmDFWiU6OMKRFWa+9YOHGDW4srNNgl7WZGyxuAuRZ/HqCmbUSlLIsTl1jbGSIoaEhRsZ05rOl1lB211m8NcHI0BBDIxrXFtepfZh5EUIIIYT4u/RuD6TsbpLZsuHXZ/jhh7uMeyzyTxZ4sg009rAsi5fLC2Sa/QwPqjgbe1hlC8uq0cSOOuJHdQK4uDysMaI6aexkyTf7GZ+5xw/3rtLf2OJZ9DHrDcg/vs/TvI3Re494ND/FcN/7mAIhhBBCCLHvHNvKp+idYHFlAoBGrYZaXuX5jkmp3ABXu0zfVyytzOF3ArurHZWdDE7eZiLznC1LZXxmpr2tHGVFA2hQq/nZyzxla6NMuQZ9zQYAltXApU0ypb3T6IUQQgghxCHvFg4bJi8WF1jO5CkfPM3c/UiJTfXTf5F7CXfXWbq/yOrGKw4/ID1y8y7jmws8X/6Wrx/3cWXmAfOTl1tPPQshhBBCiHf2TtvKtcwi959t4px4xM9//Ss/fzfwjsNpsL48x5ONJtqDn/jrv/6VH650hE3PGNHVF/z043cMu8q8XHzI89137FIIIYQQQhx4p3DYaNZoAjabjWYpz9OM+c4DqtWagA2bDaz8Ks+3mvu9kV9ZZHV9BzyX6Xe2QqO8+kYIIYQQ4v252LayzYYNsNlbkax39CZfrdzh2ZMbfP2kh/4rl+ljc79wK7nZOgPc0WO29h9af7aj6TcZyC/z7NuveWa7xBX/Jdholy2vs/jwKU0AWx/Dt79j9Nxv4BZCCCGEEGf54vXr16+7DnzxBQC//PLL8TUaDbB33uXXoLZrUbO78Djt0IA3NwF2/eHEY0eP1Ngt1bC7PDjth7qs7VKqNXG2zwkhhBAX5ff7P/UQhPgk9nPeofjX5eLbyvbDicyOs9fTCoatP3adO6aBcxxx0ut5E/66unT24vFIMBRCCPFbUKGQTZMz6596IO+uWiSbzlKsnlEuG0H1xSi8VSd1iqk4iWzlPZd9z6o5jHiK4u/gYz3Ou73nUAghhBAnqqdnCf7pn9F0g08QYVqqORKzBoV3DDKFWIg//fOfCMXOiH3VKtVqhbfrrk4hmSCRNt9b2XrBYDaR5axMe7IK6fgsyWLHITNLImGQe/tGP2sSDoUQQogPok7WSOP+b/8Nb84gaX6iYVRzGPF3DYc5jGSdf7l+BTNlvOWq4HkohJNFCrHAeytbLyaJJ3LvEM5N0vEEqc5w6JslV0yhu9+60c/aP/z669/o/BFCCCHEe1BNk0i7CUdj6L4CRufSk5kionlxKwqqL4xhtqukdLTZFNl4GJ9bQVED6MlixypcnYIRQfO6URQ3vtAs6YPUUyWX0AmobhS3F003KP73OMFgjEIjx2zAi0/b3+41Sc2G8KlKq53gNKlTtr7rWYMUIWZjEbRKCiPXeZ0FEuEAqqKgBnSMYrVr1TA7HUA30sTDPtyKG28wRrZikp4N4nUruH1hjI792exsgFCi2FX3TfuRrpDdWbaSniV4MC9xCnUwjTDadJZGMU7I6yMwnaV+0G6KWU1FUcMkXxVIRIIH8+ENztLarc4yGwhjvPp30tNefL5Q67MyDcKBadL1HDEtwHS244pNg7BPJ1VtfV7Fg89LQfWFiHVug5/wPfgYDue/zp9/+OMf/4nOHyGEEEK8u2o6QdarE/aqhHUfRWN/xa1Kalon6zMoVqsUkhG87Tr1qkkurjNdCGLkimSjbtK6Tjv/UE3pBKMV9JRJtVog5k4RDicwgUpy/1wBs5Ak4i6Q+0edRDyMavcxbaRIGhF81MlFNPS0m2i6iFlMM+tOEQ7Okjs2H9bJGikIhQm4g+halaSRbQfAOunpINPFAIlCkWzMSzL+gkbnPFQKPIlMkwsa5HIGmnmXkFcjVp8mlcsSVbNEppMH275Vs0CxHVT362a1ONlCmmlH8oSyWaK6gRIrUK0WSU77UByghmIkpn3Y1RDxVJLkbABHu91kZJpCKEE6OUugWqTqmyZZqFAx0+jVBHosBwSYNmKE/tFOYDZJMhknpAL1CsVCkSo+fO4iRiJ9EIjNVIKUw4dPaYf96SKBRA7TLJKMQDwYIl48/XvwMRzOf50/sq0shBBCvHcVUkYObziECrhDOgEziVEAcIADqmaRSh0Ur0ZA7ajqnSVp6PhUNz49iq4WSGYrQJV0IoU7HCWsQr2uoE3rqLkUuWqVdCKNW48R8blR3D7CsTi6qqB6VRQcuL1evKoC9SzxZJVQLE7I2y4bj6KZqfb4DqlnMdIKIT0AKAR1jXrKoLVYliOZqhOKxQiqblRtllT8X448aHpJN0jqPlRvkEjoMnXvLMl4EK/qQ9c1KBYoHum4o24kgKoGiExrUMhhHinlAOpUiiZVFLyahgqgqK1rdqioXi+q23FQQwnFSU4HCQR8qP8pzGwkiFdx4FB8hEIqlaJJHQdur4ricKC4fXi9KsqhfjU9hCOdJF0HMEklCwT0MCpVUokUDj1GTFNRFDeBSJxZbwEjVTz7e/AJSTgUQggh3rdKCiPrQDHTJBIJEikTh/KKlJEDHITiSfR6FJ9bJTid7H7q1eHgTYRx43VD1awAFcxKg6IRwufztX5CBnWvioJJsQKqVz17bFWTSl3Fq77pBUVFVSpUKkeXDqvpBOm6Qj2XIJFIkCw6cP+PFEa63m7LjdrRlqNr/O1jSkcocztAeVPG4XDgqJ+8pd1Z1+FoRbOjpQPEUlEUI4jbHUA3Cmc+gKKoHUGv3tpmD3hVVFVFixVP6OeY8Wk6IUeaZLoOZgqjqKGH3IBJ0QTVp3aUdqOqUDGrnPk9+IQkHAohhBDvmZk0yLl9qPUChUKBQqGK6rtMJdlecXMHiaVNqrk4alonFD3pEY8qlSooqgIoKIod72yWYrH45qeQIKgouBWoVM/x+KxDwUEFs7NovUKlquB2H451VdJGFofXC4X2tZgK3v8EaSNF1aHgoEq14za6OucLVe+bEpgmVaxQNDSK08Hu+wDPYCbChNMq8ZyJaZrkop0bvIfn5BCHhh5WSBspckkDM6ATcgO0PpNqpXOiq1Qq4FbbsfTc34OPS8KhEEII8V4VSRoFfNOtlbaDn+QsWjWFka1QyLUeMnF4NYI+hXr1TZBp/Pc400brfDUbJ1H0EtJUwI0W8lJMxMke5I06ZrFCHRVNUykmYu1zVYrJOCmT9kpkhaLZrqIECAWqpGLJ9vZsnUI8TtYdRvcdupRKCiPtJpwwuq4lGQtB2iBdDxAMtLZPKwCVNNPRVNc9hx9FvUiu0FqNU7UQAaVOvT1HDocDKkVOe9VkxayA4kVVgHqBVMrsOOvArdQxTfP4ykBAD6FkY0QMEy0SbK9IqgRDXoqJ2MFDQ9VslHjBSzjkBaqnfg8+JQmHbY3G23yVa5RMk92P/k/B562xa2LKpAgh/l4VUySLPsIhtfu4EkIP1kklX/B/RTXcbhWvqqIXgsRm37yOxX7Z19oeVRTcwTTemMF0eyHLG0mSCGQJuVv3EroVN8FYjirgixrE1BRBd+uJWy1u4lAAd5BIsEo8oKB4p8mhEjEMgmYEr+LGrShohkosFSNwaJGsmk6SVUNHQqND0wkpWYyUAz0ex5cLoyoKSiCGooe57Ohcbzuyydx9zAEOx+HzJ9R1HD7S/lO1SCKkoqheVHeQlC9GNOhojzVC2JEkpCi4w/sPjnS3EohECZrTeFUvqjdCwe3tGKWXkB6g+L97UZQAseKhvgF8OmH3v/FvlSCR4Ju7Er3TBvFAjrCq4HYruEM5Akaq/XlWKZzyPfiUzv3r83a387zaa/1/m81FX79K72fyW0o2lyaZWnWiGwa6ekbh/DwTMy9RZ/7C0kQvUCM79zV3sn18t2Jw7az6HUorOl8/tJj88xozg28//o/BXIuymLExfneOMc8xBY7MywV01XWSnRvjzrqfH9YWGXO+l+ELIcR79Tn8+rx6tUK13r2VWzE01ESIYm4ad6VCXXGjHLerWa9SqdZxHHO+Xq1QRcF96ES9WqHu6C5/3Bje8mqoVqo43O6zNmE/qGqlQt1x9Npb46vjcCunjO+MMtUKFdy4leNOnqFeoVJ1oBzT9vv7DM7nPL8+7w/na2qdhze+JdPsOGTrY/j2Ax5cu3zsL8n7mJq1Pfb2mljnWayqWVh7Fs5a62Ia+SUWszZG5x9cKBjCNk+fbtG8dJ3xzzwYQgMzm2Fjw4arfEI4PDQvF9JV187wuIYrk+FppsTY5HGdCSGEcChuTnuH8qlBy6HgPqHySe06lKPtnTWG83OgnDSgj+jkMThaD8Kc6owy7zJXDveFP69P6Zzbyu3A4Brl3l/+wqMfrjJgK7PxcI6n5oca2kdyaZIHKyvMaxdcLdvOsF4Gl1/j8ocZ2XtkR5t/wc/pNe5+hH9Ztvs1BmxNtjIb7H747oQQ4ndD8YaJhAO8zeKUEO/Lxe45tLlQL1/GP3abmyM2oMym2YBSlsWpa4yNDDE0NMTImM58ttSq0zBZi+qtcyMaY2NjjE1MEl1vALvkjRkmtRGGhoYY0iaZWlo/NlDU8gYz+gQjQ0MMDY0wdm2ONfMcS4WNbVZnJtGGhhga05nPWHSujZlP7/PtrTusmBfrp5TP8wobA/7+g2PbS9cYuzbP2lqUa9oQQ0Nj6IvrbOcNpiZGGBoaYWJqhe2D5k6//v32VoxbjA2NoK+UzqxT2zSYmdQOzkVftM5sP53ixjd3WDXPNy+nzsMZdbH34+8HNtfJy62HQghxbo5AhPi0hEPxab3lAylldswm4MLjstPYyZJv9jM+c48f7l2lv7HFs+hj1htQWo1y/3mZgds/8uPMCDbLouHyo6l2zJU7TC2/ZO/yJN/dvc24x2LjyR3urJSO9LiTzWB5Rrl97wfuXffDToaFxSy1M0a6/XiOhZevsA+Mc/WKnZeZra7zezULyypRblysH3PHbF2/x97d1s4z7i/kcY2M0t9jsfX0W765ZWD1jzLcB+WNZR5mWoHtrOvfb+/hsonL70d12c6oY2JEl3m55+fuj494MKOh2luxba9U7rrOs+bltHk4q25rXmzQNNkxz/iAhBBCCPFZOec9h21WluUZE8xN8q+gx68zOQh2oqxoAA1qNT97madsbZQp14AdE2wjTEyOMAIMLmXIekYY9mzzeHWLpm2Y7x7MtB5cGIadL5db25HXJunc6PXPrGAANBrUanY2VjfIlHawGDtlwNtksq/ANsztpSgTTriq6nz58HCYOV8/b56tqGFZe4AH15EHLnq4Mr/CoubENEy+Xt6h//oj/jx1GdabjH2bobRTBizWzrj+Fhv+u3/m0aQH2GZp8rQ6A607ABoWZq2HKxNTaG85LyfPg3qOObXj7HECFtbeKR+PEEIIIT47FwuHNNkt1+j1+PlqchJ9cgQPwO46S/cXWd14xeEsMKiN0PM8y8KtGTL2HbJ7PfivDGBnh7IFuFQ8+wHLpdJng51aCQu6wmEtbxBdfMrGTscWposz3qVkYbX7UNt9eDwubKfUuFg/NmxHGnPi6Wt11tNOji7V03pox9nT8fCOdeb173feP+A5Z51Jrt69Sn7uKU+//4anD/3cfvAAffBwgj17Xk6eh/PN6cGfZVtZCCGE+E252Laya5ToisGjpUXmro3Q2lFtsL48x5ONJtqDn/jrv/6VH67sR4MG5vomez2DDPc7oU/j9gODB2O9gJMeO2CV3jxlbFlYTaDXg6ur400eR5d5aQ1w9y9p/vrXHxnvLnACJzZndx+12mlLWeftx4bTZgNqWGfta58ytvNf//nr9I7MYLz4mUd3R7lUy7O8sHrM76A8a15Om4fzzWmt2QCcOOVVNkIIIcRvygVXDo9XqzXZX0Wz8qs839pfa2pSKlvQBKt5iT4nWOYmebOPEbUfbdjFs+cbLC2sgtbD5upjtrDhHx2m+9nhJo0mgB0be+xkVslbQM9ZI+tnZLCHZ5kNlu6vYA3ssPo4z8kvazlvP3b61D54WaZcbsDlt3mZz9nX/+rCdbZZW8zjHB1B7R+g15Y5po3zzMtp83CeOd2lXN4DLqP2vcXUCCGE+M2qFrPkTAdeLYDqAOomhZzZ9buOFa+Gzw1QpZBOU8SLFvR1vdLFTMfJKhH0w2/mFh/cOVcObQf7hEe3ZO1o+k0Gel7x7Nuv+frOGrb+S+1zTi4P92Nr1iiVX/FqJ8/zx/f59tq3rJbsjMzMc3vYRfn5AnfufM+TPPivPuCHI+/G83Pt5jAuK8P333z9/7d3fzFRXXvDx79NnuzNBTPhDUNeBRtHLgATieSBoOCLzqsGeKqcajnpAZuWMbFqWmmocAF4wXAhcCHWt9ITqyfp0OaU6ckBOQ/CwQk879DpEfS8k2AwEbmg09QBEmYSntlcsOem78UMw/8/Wv+c6u+TkDB71lr7t9am7a9r7bU35fYQ5hQFVANqNCZl9djO1ZC/HX5yXqaxZQSztZRdi/qxtO7651nMnJlKLCEejUwuHqUlcago4U/RwNRFMW7c/5X92qiOijZynaqTv+f3Jy/jUXdRVlmMeUVbG43LeuOw8Zii/8SIF9i+i11P+IQgIYQQv2EznZy1/G/+4z9KuDL/JhFXNZbCEs5WVFBRUUFFRTVXXFPAHK6zeymxDzNsL2FvSedCAjl6hZKKYbakSWL4Mmz6DSmgo6Ou88BrDf+EhhqfiEEFXQcVF7UFVThTa+j9MrzBZKS5iJNtGkc/d2HLjbSsTRDQwBCpuybdz0QA4hNNqIRvZ5svruugrllXxx+uuOpbXVbUXec8C911UVlUxYD5PP9pP0Himm0tq7xKoOv1f61+rVvHP0EgpETjX7ut9cdl/XFYp+5IM0Un26D0K7r+1V8dI4R4Lf0rvCHl1TOH62wGZ7FgtveSNuTlSgbQW0KczcLo0NllD3t2Yd1iwzLswhpjpzDNRcWUncK5YZosJXhtQ1wrlIf6PGvP8A0pwLqJIYABU+LCDWbhJCQ+vJvXc51Pyj2YlQlGBidRtpdStOifS9WQSOJm7k1TTSQumlRcHM/aiWG4pClx+WzkOnXXOU+UIYcT+fEMdDhxTZzgROJabW10svX7v1a/1q1jSmS13q5sa/1xWX8c1q474nQxyXbKiiUxFEKI18awjYrevVwZKuSavXcTFeZYeFlyTPTYkM2KY+81hiQxfGmeyT2Ha0un8qs/s8vp5IE3gE46xTWnyc+f38zyW6aSebqB84YREp/ijXOvLh0lpZhzdZkUm192LEIIIV4ML1cqHJibhijcMsS1FV/bOVviIi5uCxmFVqzHMogjg8K9w1ypvgYxdryWatJc1RzrLeTakOWlvqP5dfcEy8pCCCHEq0GWlZ+tKccx9l6x4BqqwEwnx2IqMM8vK08N4egdhZgYZry9XGtyMHOsk2F7IXFzo/Q6evGSQWHhHE0WG2aHg70uG029U2wprKapwvIv9+7h37JNLSv//PPjFxWPEEIIIV41cy6qq4exXGkCrxfv3BRzwIzXy0yambgteymx7o0ULqHEPMMW6zV6rxVSEpNGoTUNmKHXupfhs500TVWT0bmXTvteHMeOUZ3mxV4o84jP2nr537+9+ea2FxiKEEIIIV4pU+HH1AydtRC+03COGf2/4ayFmSYXnVbzkuJxcXHEMLW0ic6zVHgr6LSnMdU0StxeGxnmNOYsMVSMTkHh0jbEr7de/veU71YWQgghhADMVjq9XqampiI/dgrV7Zzt9dJp3cKoy4V3LlJ2bphrVzrBUoJlfjJwysHZ6hmq7WdJI5w8Tk1NMcccM1NzbNkiG1NetOe8IUUIIYQQr5+YyIaSObydFZQUjkJcHMzMEGex0Wm3Ru4j9GK32sDmYn6CccuxCgqvWNlriWNuzor9mCSHL5psSBFCCPHakQ0pL9jcDFMzc8TEbSFuye2DM4wOz2DOMC/bnTzHzAzExcm9hs/aZjakPOGyso7/0R1ud3XRdfsOj/y/JrxfQbtNpSWXgloXOoDm4WplOZV2D/pGdVdt71fWf56029QWWBb6+uQN4PW46Opqp73Lhce79GXQ+h0bBbkWyrtWv5jLv9dHvqW2vJLmO8/n4nu7bJSXN3B74rk0L4QQ4mWIiWPLluWJIUAcaSsSQ4AYSQxfos0vK2sj2KuqaPEEFo4pWyn98q9Upr/ghxbqs8zOhtA0nRCgTtzBNTDIT4EcAtbMVR8Ava5fW38JL13N3zJmLuZcceoGDw7fBH2WQGCWgKaF+/okVR99S21VCwOTix/EqLD1QCVXG4oxq0BIQwvNRt6PvYpl32tjAzgHPWxPOU1l7rN+N56O1+VkcFAhfrKWgl93IYQQQgjxFDaZHPq5bSunxTNLfGYZNeeKMOPlTrudsR2asKIAABsZSURBVMDGtZ+71HLsvcXohkSeKl35tfUX00ZwtnUwuCuVsmeRHD51HHdo/OQyA4F4cs7VcS7fjBoY4dvGejoGGqm8vov28tQnbtZU/Dm9ORpq4vN4abKKpeE2/6lBvLyTWQghhHgpNresPOGkdWAWYvOpuVSOJd2MOd3CCZsdm0UFfxflBRaKGjzzFWgvL6CguJkRiCyNFlBpv83V8iJys7LILaqkfeQRXbYTWLKyyLKcoGF+qVK7TW1REZXfLipfYF17KVO7TePJk5xsvBNZZn7y8y2pD+iP2qk9UUBuVhZZuQVYG27j1ddou+AMVz0aaC5sJ5rxAIxd5b2CImpvh5dxJ1zNlBdbyMrKIivXwolKOx5tRU8ADY+9nKLcLLJyiyi/7mFpr3W8txuwFuSSlZVFbsEJatsfrVhy9rtacQYg/mgdl6y5pCYmYk4voLahlO3AT85b4Wszf9YHbVRG4rOcsOFaa1nX08zJkyex3Y5EpXvpslkpyA33q6CggIKiYmx3dDSPnUpreIyysnIpOFFLl3c+0glczWcosoS/KzpzFY8Gj9rKOfleFe3eaE/w2CsptoT7m2UppvzqneiYPLp6goITDXR12ThhySIry0JxbRcL4fu501weOU8WluJK7CPhgddG7NE+Z1mKF/okhBBCvMY2lRzqIx68gJKZT85q7/OdDYSXPgNaJEkJoQUCBCYDaBBZGg0w0HKBW4EULDlbYXKAxpPv0egxkJu/i9jZMToaW8MJiz5LYHKSgcsXuKVlUnw0E0PgAW21l7mz2o13+iyByQCBQHjp9enOt6i+dof6TxpxaplUfv45l0rNeDsuUNvmXdJ2eyCF/APbUQIeWpvb8Rq2kpmTSjyAwUzmAQs5ZgV9pJnyqjY8oUzKamo4Z4nHO9BCpe02y9MR/U4ztS2DTMZn8k5xJprTyU9LrkUL5Rc6mEw5zaXPL3EuJYCzsYqWkaUD85PHSwiFlJzMpbOX5lzS44FJL4tvP/zJ2cVkahHv5GwlNHaL2sauFbEB6FqAQGCSQCC8zDzRbqP+1iS7zn3O55W5KIEAenwmFrPKmMtJIDGfc3UXqSvLhDEnjc0uNMBrr6K2zUMo9R3OnSsmRfMwEoDZiUkCgQkmI93xfltFecsAs6nFnK85x9HEAIOtVVR9G07/ZrUAgbEO6hs9GHLzyYyf5SdnMy0uPVL/E6raRogvusjnn9eQGxqgpbwRl+bFbmthYDaTms+/5FKlBbMq70EUQgghNrWsrM3OEgJiDYZft0yaco4vv7JixkVtQRVODlD3VTMFpgns3t/RMhZOWNIXl7dbMaOxK1DAhUEPrgeQu/05nS9C97TjCkBKWTE55q2QmE96m4fBQQ/+owtt27+yYlYf0Vz0Hm3eMbxYKSo/irPDw+TWIs7XFmMCPA1OfiKeozUNlOeqUJxCYOQkbYNOPHoBBYsG9YFzkACx5Nd8Tm2uin40nhPvtUYTxAddTibZyjvF+aSYwVycQ+vgLe64vFSmLywTa6Fw5mcwLL9iCgYFIMTi6cat71zlq9p0VN1C6HdnuOVx8UAvImeDIfaOeUHJpag4l1wg/aoTV2IuOYmgVn6LHUDX0TSVwfZBnBNjBDDT1TVGSDnA+Uu1FBgAa7g9z5LWH9HV/oCQksP5S5Xhcjkw9rsWHjgH8Z8ojpSL5UDDtzRbDGi3NQouDOL1TgLQ1T5GKPYAxcXpmBUotmzH2ebhzpiOIQToAbxaLAeKyrFs0FchhBDidbCp5NAQG4sChAJ+NGC1ycPNUOK3Eq8CxBOrAkoi4VvXDMQbAEIry4cjIHGrAdAIaJvfs/uk55sXmAgQAsZaz/C71kXtrdq2ga0GILBWXBoTkwEgBXPifKK2FXMiMDnLrMaiXSYa/oAGmEmJlFXjw/dBhpNDHf+kBoToqPodHYvOErvsrAbFAATQAsuumB4gEACUeAyLDseb48NhqFtJiQcCswRWXfZeKt2SS+wtF41nKnGqY7hmY8k8sAsV0Dx2bM1tDI4FFkY6HnQCTAaA+ETM6/4xzZczkzhfLt7MVgXGtAkWbned//sAg8GAwnzeOxHu6+wA9b8fWNRuPJBKaU0pnto22i68R9vlTM5duoQ1/Wn/uoUQQohXw6aSQzU9EzMDjHk6cE4UUBzdRaqh6QYMihJOHkORHbW6xsQmEouNhLRZdMCAxkQkyYlfMRP27M3PtmXW9PJl8bKdEf72TbcTTogUDAYFCDARAMyEf/cDSmwkSZ2noBpYWnZWY/FQhhO67ZT9+VvKU9cei+2ZZpRbAUacd/AXFUQ32vhdXdwJgZKZw65F1bVoJjiJN7BabKvR8d4ZYTY2HUuKgVDIwrlLxRRbTMAI120tDIQOUPfnGiyJYzT//hNuAaCGk3UtwKQOa3fDEC4XmAjn3ioQCBAIAaZE4oHZdeMzhMdLPcqX/2kjc8V5KrHfLsVzq4WGZictje1YvrWGL5EQQgjxmtrcbuXEIk7nt1Ll9NB40srIUQtmJvC4nIRO/JUvjyaSGAsPPHYarwaI9bTRMcnSqban8aCZM5UTFKd7aRsIQXwmll3AM0g812PIPMAuxYPHfpn2raXsMoSY9I4wEX+UEykbVFYM4WVbbxf2dsjddZRdBzKJdQ7ivNpAujUXPHbaf4LY/KJlCYvKrpx0FKcHZ3MD5uJEPN9eZ2zR9ymRtm61tJF+Oof4UADvozEMFiuWRY9+MVnKyG/xcGuwnjOVDyjONYP3Du3tA8yyndJz+ZhYWFn+qbWK8lApmYF2bgVAybEsSR5XFwrPioYgENrOVgMEvCN4vFvJNYfQQ+GYFWYZc7bjCRCZ4tyFJTOWDqeL5lo7mkVh5JYTwzk7uUvaT8GSE0/HrUGuNraDJZaR9us8QCEzP2fRjOpaUsjJjKftlourLbcpzzejaF5GPJBZbmas2YMhPxdzyi5MinODtoQQQojXwyYfZWPAUvcldbE2Wm494FbrAwBiU45Sk2kCNYey05l4LntwtrYQv6uUsgNOWj3z2aESThSVhXxRVaLfRH5Rwj+LbU8ncayNywMhULbzTs15clVAW97eRp83Ot+y8oknsNWNUdt4i8ZPnJEiW8mvO7pq2+FfIpmUmklx8XZcbQ/oaBxj8mI+loI6Gh5UUd/WQX1VB6CwNeccthrLiiV6U34Nlc4zNA52cLkxlpSjpzlKC87I2UzRtlqoGmwJnz4+h8pc67JLlkvNlxdRbJe5NdDG5ciqauz2A5yrrcG65NmUW8kvTedR+2UGQ6BszaempmhJ8rjiZtPIknpqTgrKoJeJyZ8ITWp4R9povX6Lmr9+yYnTOQw0OrnwnhNlaw6ZKQqTGFBRyT3fQOlELW0DLdQPgLL9KA1bF66fEjlJbmUD5wI2rt9qpOoWoMSTWXqJi5Hp66XlFy60urx+2wXOtEXGYNc5viQVbeQ69W2Xwwfjd1FWWSyzhkIIIV57T/H6PA3/hAaGeEzLl3i1CSZ0A4mm1dYj59cFFz7rqMuOREr42zlT2MhIzkVuX81Fn9BQ4xNZerqV7W30ec3zrVo+fMw/ESCEQnyiad2yK86m+dF0AyaTuvggEwENZbWxW35m/wQBNZ7EtcpF2kJZa7wX0fxMaCEwrNNe+KRMBFjW19U6F/msRzb6pNbQ+2V4881IcxEn2zSOfu7ClruyzRVN+ScIsLQPug7qsjB1bYKABoYVfwerlF/lUuqan4AWWjH2un+CQGj59RVCvOrk9XnidbWZ1+dt/g0pUQZMiWskI4ZE1vpqtamnVSejNn2+jWo/6flWO7uKKXG113SsLLuibYMpcv/gkoMkrj1AS4uaEtd/U8sTtIXBtM51WXJSNtXd+c9qfPi+RM91Pin3YFYmGBmcRNleStH8v3eXtbmiqVX6uTwxBFDX+dtaUX7V+quPwYbjLIQQQrxmniI5fAEMu8gvfYeUlNSn3hktXoR0Kr/6M7ucTh54A+ikU1xzmvz8XBJlGk4IIYT4TXqKZWUhhBDit02WlcXrajPLypt7fZ4QQgghhHgtrDlzKIQQQgghXk3rbkj5+efHLzAUIYQQQgjxsq2X/605c7heRimEEEL8Vv3882PefHPbyw5DiJdC7jkUQgghhBBPRJJDIYQQQggRJcmhEEIIIYSIkuRQCCGEEEJESXIohBBCCCGiJDkUQgghhBBRkhwKIYQQQogoSQ6FEEIIIUSUJIdCCCGEECJKkkMhhBBCCBElyaEQQgghhIiS5FAIIYQQQkRJciiEEEIIIaIkORRCCCGEEFGSHAohhBBCiChJDoUQQgghRJQkh0IIIYQQIkqSQyGEEEIIEfVva33xxhtvvMg4hBBCCCHEv4B/+/nnxy87BiGEEEII8QKtl/+98csvv/yy5EBkxvDRo0fPNyohhBDiJUlJSXnZIQjxUsznecvSvyXknkMhhBBCCBElyaEQQgghhIiS5FAIIYQQQkQ9cXI4/fAu33//PXfHg88jnhcsyPjdPjo62mjr6HupfRrvqObUqTq6n/n+oMf01Z3i1KdtPHzWTa8wTuu7WaQfvMjwcz+XEEKIfyUzoy56h6eWHRvC5XIt/Ax5mVml7px3iE5HJy7v3LJGh7Bf6cT73KIWq1nzUTarCvbR8P7H9GhA0gd8918XyHg+cW0UCMNtzdwcz6bswhGSn6IF/WErn358iX5faNFRhaRDtfzps1KS1WcV66aiYbyvG7dbxeSr58i2Z9m2D3efG3cQjgdL2Wl8lm0vpzMd1AgFNV6F/3UQQgixCXNeOqutnP0/A8wUtDHVW0IcAF7sVgu2qTTMcZGycSVcc1Wzd3F97zUKLQ7SzmYwWm2jsHeY6jSAGXorrFzL6MT6QjsknmjmMOjuwK0pGAwK+PrpfmnTQ0HuOxw4HN081J+m+vfUnWqg32ckr/IGnf39/P27y5Skga/fxkdXn/8c21Iqhz/7B/0//Bf1e55123uo/fsP9P/jC44818RQCCHE62cGh7WQK5yl6cz2Vb6P45h9mOHhyM/yxBCY6nXgLWziWvUVmo7N0NnrDR/vPEuFtwJ7Rdrz7oRY5gmSwyDubjeaIY/a2jwM+Oi5eZeF3Owx3XXvsi89ldTUdPa9ez28tBjs5tODB/motZtLpw6SnppK+r53ufj9dLSm/rCNT9/eR3pqKqnp+3i3rpvxSMPB4dbod+lZb/NpxyAdH33A1VEg5Kbu4EEK6+6GI+i7yKnCLFJTU0lNz+Ltj65zd5UprOm+G3T7wXS8kS9O72fntm0kZxyh/rMydgA/9nQwDOjf13Fw3/tcarvI21mppJ/qJqiP01Ed6Wd6Fvv27WPfwUKqv9cJ3r3OR++G+5iams6+tz+lI9KRh5feZt/bdXR0VPN2ViqpqVkUftrB/Cryw9ZT/OHYxzjGAcZpff8gB/fti7Qf7qOOzsO2at49GOljahaFH7UyPN/H6btcP1VIVnQc+5jmMR3nj/GH968uLPUGh2n99O3ItUol/eD71HWPR67lY9re38fB6ja6L74f6edBTrU+jHy/QQxCCCFeI3GUOEZxXSkhI27j0quZm5uDmPDvMfO/TDk4Wz1Dtf0skhq+eJtPDoNubrpDGLKPcPjwO+QZwN93k+FIEqf3NVDteIip5Au+vtHE6d0G0AE9iN/no7/hPDeD2ZQcz8bov8/X5xv4XgeC31N9ykaPlk3tjRt8UZbMuOM8n7aOQ7CPuo8b6Bk3kPdhJeVHjNx3T/NmXjbJBoAEdublcTg7AX34Iqc+/pq7oWw+tNmoPGxivL+Zj6u7mV7WlfF744RQ2Jm3hyWrx8l5ZJgA34+MB4HQNNP+e9ywOfAn57Fnh4EJRzU1N33srrrBjdo8VL8f3bSHw8kqD/u68Se9RVXjZRo/3AOjPdQ19BEEgpof/6iDmrp7GPPeItuk8WNPA8194QEM+nz4/T4e6wAm0g4f4tDhw2Qngd/nQ0NFxYe75yGmQ+U0Xr5M7VtGfuxvoOHmY2CajvOnaHb7STpeSW1ZNgy7GUfD99iP3+ePLPVO033+FA09PpKO1GKr/YAM/R6O8x8RnjDV8E378d20Ud2jk30kjyR8uC810D0NrBuDEEIIsdgMQ00llFitnK22r7ynEDBbLMR0NtFkv4KtN4ZjFrBbbWCzYzW/6HgFPME9h9N9N7kbMpB3JA+jUeVInoGeHjc37+rs2a+i6yEghObzQXIJZfuX3bSXVsk3fzlNMkEy/Ps4775H/zDs0Rz0+SHtwxLykpNg21tktN7D7b7LeJKbPj/s+PAz/li1EzjNaQD+nSOOm9wfT6Okvp4jKtyt6+FHTBy3fUbVfhVKdzJ9/w987e7mnn6EI4vC0fRwmmQwLL+xUCV8SGfRlCimQ010/vEICcD31edByeOdkv3sB3Y399CXlEfeNlAv/I2/AOg6waCK2+Gm5/FD/ByJtGTg0Ged/PGwkWC3xr7zbsbHfbDirkkje8ousCd4l7pjDjAdovZc+O7O09/8LVxEDzJtukdrjwPfuA+mx3HcC8HuWv7UVEoCUFYF8BD30gtJq1uD3bVcbipjG3DE8CP7atz0dT+kameknJJN7XffULpN53v28eFNH/d98E5C8toxIOvWQggh5m2h0HaNuJkYYuamGHLYKMywc2XIxdnF04EZTbgcDjqHZrA6ekkbKuFYnI3eDBcVx+yMkoa1qYmStJiX1pPXzSaTw2ncN+8Swojf3UzdPdD9KuCnr+cu+v79GA/XUnvoFA39DXzQf5Udx+v5U9MR5vdWKAlJmAAwkpRkBIJMazrTPj8hYPTGBxy6sXBGBZj1+wihsG1n0gbxBfH5/EAaydvmE74kkpMAn0YwCCQslDaoRsCP5g+yJKHR/finAcWEcdHhpD27o9UzDudhuNlH3fsf0a2O0qcZ2HN4NyoQvHud6oZW3KPhPgFgWpxnzvcdjAYDKkty0GV07jbX4PAZyLtcz5GE8LGHbdXUtfRx37+wkcYE4BvHDxiSkxZ3daVIOSVpR/TaGJOSMAKatmg81CSStgGoGA1GFhLmdWIQQgghomJIK7RGl4VLrBZi0vZyxT7M2aal21m37C3h7F5g9Ap7r5i54srAcewYM9W9XJmrptB6jb1DFZhfdBdeU5tbVp7u4+ZwCBQdn7uPvr4+3OM6CqD13cStA2oypX/8L/7R+QUfZsOPN+uiS6YAoWAwkggF8U2Hk5AEg4oxMnuXbfuBR48eRX9Gvillq2IEQkz7/BsEqGI0KIAfX3QNOfK7YiBh2YRWcnYyCjDc416y5Dzd14E7BEpGHrtX3a2sM+6+j2bIIG+nEZIOUfXFX/jiSAIwzNWaZvr9u6nv/IF//vMGx39FxqQPX6LO4cOQV4vtSCTde+ygztbDeHIV3/3wT/753YfsmK9gTMAA6D7/imX0JSLlQn5ftFzQP00QMCStm1ZuHIMQQgixpji2rHdf4twwTdZrZFy7QmHcKEOjaRwrNJNWWEiad5jRFxan2NTM4eO+mwyHFLJtf+eb0vkEIkj3qX2cd7vpcAfZrTho9adxJCOJjCQTsCyhu9/A+x/5KM0Yp7U/BKZsDmWAMekwu5V73LvRQFtSGRlGHd/4fXym45TtySONe4xer6bOUEKarw+H7wjffJaNwQiE7nPzahvB7D0cPrwHQ4+b7uY6dp/Og7vXcfwIhrfeIXtZopdw+EOONN/jprua9z8apjQvGcbdtDn60djBB5XhJeSVs3o6Pt806ODXk0kywPT4MHfHk9ifrBPSAVRUNB52O7jnBwxPdkHCHtJa/TU/YmB3kkZ/ayuYsjmeHE7iUBVUbRy3o4/oYm5yNtlJMHqvmZpLOm8ljdPj0Pjgb2VLm07OI3tHM6P3blDXaqQkyY+juZ8QabxzOBk2ehqitk4MQgghxLypYVxTZiyRnSpTvU1cG95C4ZXVtpjMMWSz4th7jSFLHBBHXMwMUzPA3AwzcVvY8iJjf81tIjkMcq/nISElg7cOL55ZMpJ3PA/F3c+97mE4Pk5PXTM3QgAKO96qp/ywSnR6akcG20ZbaegPgbKDkvpa9qvAtjKamh7yad1NbB/2hMsqSbzVdJyy5DI+sw1zqqEfh+0+KCayq8oxkkBe2XGShm/ivmFj2H+D0qZGLg9/TM3XDmo+dgAKSXmVNNYfXpm4GPdT/81l1OoGOvq/pqE/fNiw4xCV9fWczliWTSoLfd6ZtxPFPc5j3zg6QcYdX3Pj6k1sf/+GsnN59Nl6OH+sByUpjz1pCj6MqBDZ+KIsbIBRw7/Nf176/TTjfgCN+44G7gPs+JC83hLK3+qhusfGsf8AU/Yhdpp+xAdABuWXKxn9+CruGzbcKCQdqicZldFIAOG2d1L1mQ3fpw30N5ynH8CQxvHLX1CWHI7EuKQ8qKqyEOTO9WJYWVcIIcSrbI7Oki0c/+6/I59L+R9vlPI/z/xfpipGaTq2l8KZOOKYYSYmjZJrvTTtXXnv4NxQNWd7C7k2ZInsV95LRcUcxyx7sTPDFlvvS3qu8uvpjV9++eWXJQfeeAOAR48eLTqqo6Ou/h98XY8mOuhBHk8HUY0JJBgjx6bbeP9/2RjOu8w//pSH/jiImrAN44rGdKYfT6OjkrAtYem59CDT06vU04NMB8GYYFwov1oM6wlO8ziogzGBbauV11nIdPQ+Pt33MT07bfzwTXjTx/DFg/zh6yDHb/w/mvYD+jSPp4n2YUn1RUO1ou3Vvl+DHnzMtG5kW4JxZSPoBKen0dWl/V9eKtz1xwT1VcZ7tVaXxbZeDKudSwgh/pWkpKS87BBeG3MzU8zMxRC3JY61tpTMeYfxxmSQtnx6cG6GGeKIk70oz8x8nrcs/VtikxtS1kgMYWnGoBrZtm29BUYjCWt+r5KwbY1Xg6hr1FONJCy/TW7DGJaHlMC6xRd3XDVhMgL3Wjh16h7Jio/7bh/Kjg84Pv/wajWBxd1YUn3l5uilHzeZUanGbSycYmWjxoSV47ha08aEbWsuB69odXms68QgiaEQQoh5MZtYEo4xZ6z+PMOYOJ7y8YniV3iy1+c9DWMGb31QQtrOna/AfWkZXPiuk4yebobH/YTYTUn9Od46sp9tkhEJIYQQ4hWwyWVlIYQQ4tUhy8ridbWZZeUnereyEEIIIYR4ta05cyiEEEIIIV5N625I+flneSeuEEIIIcTrZL38b8XM4XyFN99cY+ewEEII8Rsm/40Tr7uN/hmQew6FEEIIIUSUJIdCCCGEECJKkkMhhBBCCBElyaEQQgghhIj6/1O8Xs5xzHNAAAAAAElFTkSuQmCC;" vertex="1" parent="1">
          <mxGeometry x="47.75" y="562.49" width="380" height="116.88" as="geometry" />
        </mxCell>
        <mxCell id="AngJpRZp7Zyhj1QqLnKg-58" value="&lt;font style=&quot;font-size: 11px&quot;&gt;Es utilizado el maximo valor siempre para el calculo de la regla de 3, en este caso hay 3 indicadores que sumando dan un maximo de 300%, es decir, 300% equivale al 40% de la puntuacion&lt;/font&gt;" style="text;html=1;align=center;verticalAlign=middle;whiteSpace=wrap;rounded=0;shadow=1;sketch=0;fontColor=#FFFFFF;" vertex="1" parent="1">
          <mxGeometry x="123" y="751.49" width="267" height="19" as="geometry" />
        </mxCell>
        <mxCell id="AngJpRZp7Zyhj1QqLnKg-61" style="edgeStyle=elbowEdgeStyle;rounded=0;orthogonalLoop=1;jettySize=auto;html=1;entryX=1;entryY=0.25;entryDx=0;entryDy=0;fontColor=#006600;strokeWidth=4;fillColor=#647687;strokeColor=#314354;" edge="1" parent="1" source="AngJpRZp7Zyhj1QqLnKg-60" target="AngJpRZp7Zyhj1QqLnKg-56">
          <mxGeometry relative="1" as="geometry">
            <Array as="points">
              <mxPoint x="476" y="592" />
            </Array>
          </mxGeometry>
        </mxCell>
        <mxCell id="AngJpRZp7Zyhj1QqLnKg-62" value="&lt;b&gt;&lt;font color=&quot;#4D4D4D&quot;&gt;EJ: INDICADORES DE COMUNIDADES RURALES&lt;/font&gt;&lt;/b&gt;" style="text;html=1;strokeColor=none;fillColor=none;align=center;verticalAlign=middle;whiteSpace=wrap;rounded=0;shadow=1;sketch=0;fontColor=#006600;" vertex="1" parent="1">
          <mxGeometry x="20" y="527" width="358" height="31" as="geometry" />
        </mxCell>
        <mxCell id="AngJpRZp7Zyhj1QqLnKg-65" value="" style="shape=image;verticalLabelPosition=bottom;labelBackgroundColor=#ffffff;verticalAlign=top;aspect=fixed;imageAspect=0;image=https://madeinparaguay.tk/images/estaticos/xnet/logo-xnet-black.png;" vertex="1" parent="1">
          <mxGeometry x="618.9952941176471" y="808.9958823529412" width="51" height="28" as="geometry" />
        </mxCell>
        <mxCell id="AngJpRZp7Zyhj1QqLnKg-68" value="&lt;span class=&quot;opacity-60&quot;&gt;Todos los derechos reservados.&lt;br&gt;						Desarrollado por&lt;/span&gt;&amp;nbsp;" style="text;html=1;strokeColor=none;fillColor=none;align=center;verticalAlign=middle;whiteSpace=wrap;rounded=0;shadow=1;sketch=0;labelBackgroundColor=none;fontColor=#333333;" vertex="1" parent="1">
          <mxGeometry x="425" y="810" width="192" height="34" as="geometry" />
        </mxCell>
      </root>
    </mxGraphModel>
  </diagram>
</mxfile>
